<svg width="5" height="23" viewBox="0 0 5 23" fill="none" xmlns="http://www.w3.org/2000/svg">
<path d="M2.5 5.04981C2.99445 5.04981 3.4778 4.90318 3.88893 4.62848C4.30005 4.35378 4.62048 3.96333 4.8097 3.50651C4.99892 3.0497 5.04843 2.54703 4.95196 2.06208C4.8555 1.57713 4.6174 1.13167 4.26777 0.782039C3.91814 0.432407 3.47268 0.194306 2.98773 0.0978426C2.50277 0.00137956 2.00011 0.0508879 1.54329 0.240107C1.08648 0.429326 0.696031 0.749757 0.421328 1.16088C0.146624 1.572 1.34724e-06 2.05535 1.34724e-06 2.54981C1.34724e-06 3.21285 0.263394 3.84873 0.732235 4.31757C1.20108 4.78641 1.83696 5.04981 2.5 5.04981ZM2.5 17.5498C2.00555 17.5498 1.5222 17.6964 1.11108 17.9711C0.699953 18.2458 0.379521 18.6363 0.190302 19.0931C0.0010832 19.5499 -0.0484251 20.0526 0.0480379 20.5375C0.144501 21.0225 0.382604 21.4679 0.732235 21.8176C1.08187 22.1672 1.52732 22.4053 2.01228 22.5018C2.49723 22.5982 2.99989 22.5487 3.45671 22.3595C3.91352 22.1703 4.30397 21.8499 4.57868 21.4387C4.85338 21.0276 5 20.5443 5 20.0498C5 19.3868 4.73661 18.7509 4.26777 18.282C3.79893 17.8132 3.16304 17.5498 2.5 17.5498ZM2.5 8.79981C2.00555 8.79981 1.5222 8.94643 1.11108 9.22113C0.699953 9.49584 0.379521 9.88628 0.190302 10.3431C0.0010832 10.7999 -0.0484251 11.3026 0.0480379 11.7875C0.144501 12.2725 0.382604 12.7179 0.732235 13.0676C1.08187 13.4172 1.52732 13.6553 2.01228 13.7518C2.49723 13.8482 2.99989 13.7987 3.45671 13.6095C3.91352 13.4203 4.30397 13.0999 4.57868 12.6887C4.85338 12.2776 5 11.7943 5 11.2998C5 10.6368 4.73661 10.0009 4.26777 9.53204C3.79893 9.0632 3.16304 8.79981 2.5 8.79981Z" fill="black" fill-opacity="0.6"/>
</svg>
