<svg width="18" height="20" viewBox="0 0 18 20" fill="none" xmlns="http://www.w3.org/2000/svg">
<path d="M1.03516 19.1298H17M2.6975 11.3339C2.27205 11.7603 2.03307 12.338 2.03296 12.9404V16.1364H5.24889C5.85156 16.1364 6.42929 15.8969 6.85535 15.4698L16.3345 5.98569C16.7598 5.55922 16.9986 4.98151 16.9986 4.37922C16.9986 3.77693 16.7598 3.19922 16.3345 2.77275L15.3986 1.83482C15.1875 1.62363 14.9369 1.45612 14.661 1.34187C14.3851 1.22761 14.0895 1.16885 13.7909 1.16895C13.4923 1.16904 13.1967 1.22798 12.9209 1.34241C12.6451 1.45684 12.3946 1.6245 12.1836 1.83581L2.6975 11.3339Z" stroke="black" stroke-opacity="0.7" stroke-width="1.49671" stroke-linecap="round" stroke-linejoin="round"/>
</svg>
