<svg width="36" height="37" viewBox="0 0 36 37" fill="none" xmlns="http://www.w3.org/2000/svg">
<rect x="0.5" y="1" width="35" height="35" rx="17.5" stroke="white"/>
<path d="M9.24294 18.1478C10.8885 17.2485 12.7254 16.498 14.4417 15.7436C17.3944 14.508 20.3588 13.2938 23.3532 12.1634C23.9358 11.9708 24.9825 11.7824 25.0852 12.639C25.029 13.8514 24.7978 15.0568 24.6392 16.2621C24.2367 18.9128 23.7714 21.5544 23.3177 24.1964C23.1614 25.0764 22.0502 25.532 21.3393 24.9688C19.6306 23.8238 17.9088 22.6898 16.2219 21.5182C15.6693 20.9612 16.1817 20.1612 16.6752 19.7634C18.0826 18.3875 19.575 17.2184 20.9088 15.7713C21.2686 14.9094 20.2055 15.6358 19.8549 15.8584C17.9283 17.1756 16.0488 18.5732 14.0175 19.7309C12.98 20.2975 11.7707 19.8133 10.7336 19.4971C9.8037 19.1151 8.44106 18.7303 9.24285 18.1479L9.24294 18.1478Z" fill="white"/>
</svg>
