<svg width="80" height="70" viewBox="0 0 80 70" fill="none" xmlns="http://www.w3.org/2000/svg">
<path d="M79.9999 26.4C80.0016 25.3139 79.7157 24.2468 79.1712 23.3071C78.6266 22.3674 77.843 21.5886 76.8999 21.05L43.1999 1.05C42.2287 0.483344 41.1244 0.184753 39.9999 0.184753C38.8755 0.184753 37.7712 0.483344 36.7999 1.05L3.04992 21.05C2.11728 21.6034 1.34468 22.3899 0.808058 23.3323C0.271436 24.2747 -0.0107422 25.3405 -0.0107422 26.425C-0.0107422 27.5095 0.271436 28.5753 0.808058 29.5177C1.34468 30.4601 2.11728 31.2466 3.04992 31.8L12.6499 37.4V51.45C12.6557 52.5481 12.9439 53.6262 13.4868 54.5806C14.0297 55.5351 14.8091 56.3338 15.7499 56.9L36.9999 69.15C37.9487 69.6753 39.0154 69.9509 40.0999 69.9509C41.1844 69.9509 42.2511 69.6753 43.1999 69.15L64.4499 56.9C65.3908 56.3338 66.1701 55.5351 66.713 54.5806C67.2559 53.6262 67.5441 52.5481 67.5499 51.45V37.25L73.7499 33.6V47.2H79.9999V26.4ZM61.3499 51.4L39.9999 63.7L18.8999 51.45V41.1L36.7999 51.75C37.7745 52.3069 38.8775 52.5998 39.9999 52.5998C41.1224 52.5998 42.2254 52.3069 43.1999 51.75L61.2999 40.95L61.3499 51.4ZM39.9999 46.35L6.24992 26.35L39.9999 6.3L73.7499 26.3L39.9999 46.35Z" fill="black"/>
</svg>
