<svg width="74" height="64" viewBox="0 0 74 64" fill="none" xmlns="http://www.w3.org/2000/svg">
<path d="M28.3333 7.33335C27.0201 7.33335 25.7198 7.59201 24.5065 8.09456C23.2932 8.59711 22.1909 9.3337 21.2623 10.2623C20.3337 11.1909 19.5971 12.2933 19.0945 13.5065C18.592 14.7198 18.3333 16.0201 18.3333 17.3334C18.3333 18.6466 18.592 19.9469 19.0945 21.1602C19.5971 22.3734 20.3337 23.4758 21.2623 24.4044C22.1909 25.333 23.2932 26.0696 24.5065 26.5721C25.7198 27.0747 27.0201 27.3334 28.3333 27.3334C30.9855 27.3334 33.529 26.2798 35.4044 24.4044C37.2798 22.5291 38.3333 19.9855 38.3333 17.3334C38.3333 14.6812 37.2798 12.1376 35.4044 10.2623C33.529 8.38692 30.9855 7.33335 28.3333 7.33335ZM11.6667 17.3334C11.6667 12.9131 13.4226 8.67385 16.5482 5.54824C19.6738 2.42263 23.9131 0.666687 28.3333 0.666687C32.7536 0.666687 36.9928 2.42263 40.1185 5.54824C43.2441 8.67385 45 12.9131 45 17.3334C45 21.7536 43.2441 25.9929 40.1185 29.1185C36.9928 32.2441 32.7536 34 28.3333 34C23.9131 34 19.6738 32.2441 16.5482 29.1185C13.4226 25.9929 11.6667 21.7536 11.6667 17.3334ZM68.5767 12.8267L70.2333 15.7167C72.2648 19.2545 73.3332 23.263 73.3321 27.3426C73.3309 31.4221 72.2602 35.4301 70.2267 38.9667L68.5633 41.8567L62.7867 38.5334L64.4467 35.6434C65.8994 33.1174 66.6645 30.2548 66.6656 27.3409C66.6668 24.427 65.904 21.5638 64.4533 19.0367L62.7933 16.1467L68.5767 12.8267ZM58.46 18.6334L60.1167 21.5267C61.1326 23.2951 61.6672 25.2989 61.6672 27.3384C61.6672 29.3778 61.1326 31.3816 60.1167 33.15L58.45 36.04L52.6733 32.7167L54.3333 29.8267C54.7691 29.0686 54.9984 28.2094 54.9984 27.335C54.9984 26.4606 54.7691 25.6015 54.3333 24.8434L52.6767 21.9534L58.46 18.6334ZM0 57.3334C0 52.9131 1.75595 48.6738 4.88155 45.5482C8.00716 42.4226 12.2464 40.6667 16.6667 40.6667H40C44.4203 40.6667 48.6595 42.4226 51.7851 45.5482C54.9107 48.6738 56.6667 52.9131 56.6667 57.3334V64H50V57.3334C50 54.6812 48.9464 52.1376 47.0711 50.2623C45.1957 48.3869 42.6522 47.3334 40 47.3334H16.6667C14.0145 47.3334 11.471 48.3869 9.5956 50.2623C7.72024 52.1376 6.66667 54.6812 6.66667 57.3334V64H0V57.3334Z" fill="black"/>
</svg>
