<svg width="67" height="68" viewBox="0 0 67 68" fill="none" xmlns="http://www.w3.org/2000/svg">
<path d="M6.66667 67.3333C4.83333 67.3333 3.26444 66.6811 1.96 65.3766C0.655556 64.0722 0.00222222 62.5022 0 60.6666V14C0 12.1666 0.653334 10.5977 1.96 9.2933C3.26667 7.98886 4.83556 7.33553 6.66667 7.3333H10V3.99997C10 3.05553 10.32 2.26442 10.96 1.62664C11.6 0.98886 12.3911 0.66886 13.3333 0.666637C14.2756 0.664415 15.0678 0.984416 15.71 1.62664C16.3522 2.26886 16.6711 3.05997 16.6667 3.99997V7.3333H43.3333V3.99997C43.3333 3.05553 43.6533 2.26442 44.2933 1.62664C44.9333 0.98886 45.7244 0.66886 46.6667 0.666637C47.6089 0.664415 48.4011 0.984416 49.0433 1.62664C49.6856 2.26886 50.0044 3.05997 50 3.99997V7.3333H53.3333C55.1667 7.3333 56.7367 7.98664 58.0433 9.2933C59.35 10.6 60.0022 12.1689 60 14V27.4166C60 28.3611 59.68 29.1533 59.04 29.7933C58.4 30.4333 57.6089 30.7522 56.6667 30.75C55.7244 30.7477 54.9333 30.4278 54.2933 29.79C53.6533 29.1522 53.3333 28.3611 53.3333 27.4166V27.3333H6.66667V60.6666H26.6667C27.6111 60.6666 28.4033 60.9866 29.0433 61.6266C29.6833 62.2666 30.0022 63.0578 30 64C29.9978 64.9422 29.6778 65.7344 29.04 66.3766C28.4022 67.0189 27.6111 67.3378 26.6667 67.3333H6.66667ZM6.66667 20.6666H53.3333V14H6.66667V20.6666ZM36.6667 64V58.5C36.6667 58.0555 36.75 57.6255 36.9167 57.21C37.0833 56.7944 37.3333 56.4189 37.6667 56.0833L55.0833 38.75C55.5833 38.25 56.1389 37.8889 56.75 37.6666C57.3611 37.4444 57.9722 37.3333 58.5833 37.3333C59.25 37.3333 59.8889 37.4589 60.5 37.71C61.1111 37.9611 61.6667 38.3355 62.1667 38.8333L65.25 41.9166C65.6945 42.4166 66.0422 42.9722 66.2933 43.5833C66.5444 44.1944 66.6689 44.8055 66.6667 45.4166C66.6645 46.0278 66.5533 46.6533 66.3333 47.2933C66.1133 47.9333 65.7522 48.5022 65.25 49L47.9167 66.3333C47.5833 66.6666 47.2089 66.9166 46.7933 67.0833C46.3778 67.25 45.9467 67.3333 45.5 67.3333H40C39.0556 67.3333 38.2644 67.0144 37.6267 66.3766C36.9889 65.7389 36.6689 64.9466 36.6667 64ZM41.6667 62.3333H44.8333L61.9167 45.1666L60.4167 43.5833L58.8333 42.0833L41.6667 59.1666V62.3333ZM60.4167 43.5833L58.8333 42.0833L60.375 43.625L61.9167 45.1666L60.4167 43.5833Z" fill="black"/>
</svg>
