<svg width="80" height="80" viewBox="0 0 80 80" fill="none" xmlns="http://www.w3.org/2000/svg">
<path d="M44.15 39.04V25.9C44.15 24.8658 43.7996 23.9996 43.0988 23.3012C42.398 22.6028 41.5317 22.2524 40.5 22.25C39.4682 22.2476 38.602 22.598 37.9012 23.3012C37.2004 24.0044 36.85 24.8707 36.85 25.9V40.4087C36.85 40.8954 36.9412 41.3675 37.1237 41.8249C37.3062 42.2824 37.58 42.6924 37.945 43.055L49.99 55.1C50.6591 55.7691 51.5108 56.1037 52.545 56.1037C53.5791 56.1037 54.4308 55.7691 55.1 55.1C55.7691 54.4308 56.1037 53.5792 56.1037 52.545C56.1037 51.5108 55.7691 50.6592 55.1 49.99L44.15 39.04ZM40.5 77C35.4508 77 30.7058 76.0412 26.265 74.1238C21.8242 72.2063 17.9612 69.6063 14.6762 66.3237C11.3913 63.0412 8.79123 59.1782 6.8762 54.735C4.96117 50.2917 4.00244 45.5467 4 40.5C3.99757 35.4533 4.9563 30.7083 6.8762 26.265C8.7961 21.8217 11.3961 17.9588 14.6762 14.6762C17.9564 11.3937 21.8193 8.79367 26.265 6.8762C30.7107 4.95873 35.4557 4 40.5 4C45.5443 4 50.2893 4.95873 54.735 6.8762C59.1807 8.79367 63.0436 11.3937 66.3237 14.6762C69.6039 17.9588 72.2051 21.8217 74.1274 26.265C76.0497 30.7083 77.0073 35.4533 77 40.5C76.9927 45.5467 76.0339 50.2917 74.1238 54.735C72.2136 59.1782 69.6136 63.0412 66.3237 66.3237C63.0339 69.6063 59.1709 72.2075 54.735 74.1274C50.299 76.0473 45.554 77.0048 40.5 77ZM40.5 69.7C48.5908 69.7 55.4808 66.8566 61.1699 61.1699C66.859 55.4832 69.7024 48.5933 69.7 40.5C69.6975 32.4067 66.8542 25.5167 61.1699 19.83C55.4857 14.1433 48.5957 11.3 40.5 11.3C32.4043 11.3 25.5143 14.1446 19.83 19.8337C14.1458 25.5228 11.3024 32.4116 11.3 40.5C11.2976 48.5884 14.1421 55.4784 19.8337 61.1699C25.5253 66.8615 32.414 69.7048 40.5 69.7Z" fill="black"/>
</svg>
