<svg width="120" height="36" viewBox="0 0 120 36" fill="none" xmlns="http://www.w3.org/2000/svg">
<path d="M8.257 15.3819V9.06451L5.41815 12.5114L2.5793 9.06451V15.3819H0V4.67603H1.66545L5.41815 9.25854L9.17085 4.67603H10.8363V15.3819H8.257Z" fill="currentColor"/>
<path d="M24.0673 10.0291C24.0673 13.0708 21.7314 15.5133 18.8547 15.5133C15.978 15.5133 13.6582 13.0708 13.6582 10.0291C13.6582 6.98743 15.9725 4.52783 18.8547 4.52783C21.7368 4.52783 24.0673 6.99314 24.0673 10.0291ZM16.2321 10.0291C16.2321 11.7868 17.492 12.8768 18.8492 12.8768C20.2065 12.8768 21.4664 11.7868 21.4664 10.0291C21.4664 8.27145 20.1903 7.15863 18.8492 7.15863C17.5082 7.15863 16.2321 8.27145 16.2321 10.0291Z" fill="currentColor"/>
<path d="M35.4073 6.51522L33.8662 8.27289C33.0335 7.45683 32.3035 7.1829 31.4113 7.1829C30.0541 7.1829 28.7941 8.27288 28.7941 10.0306C28.7941 11.7882 30.0541 12.8782 31.4113 12.8782C32.3035 12.8782 33.0335 12.5986 33.8662 11.7882L35.4073 13.5459C34.4556 14.7443 33.0119 15.5148 31.4113 15.5148C28.5292 15.5148 26.2148 13.0723 26.2148 10.0306C26.2148 6.98887 28.5292 4.54639 31.4113 4.54639C33.0119 4.54639 34.4556 5.3168 35.4073 6.51522Z" fill="currentColor"/>
<path d="M40.6301 15.3819H38.0508V4.67603H40.6301V8.59656H42.1495L44.8262 4.67603H47.6867L44.1557 9.90339L47.8705 15.3876H44.9884L42.1495 11.2331H40.6301V15.3876V15.3819Z" fill="currentColor"/>
<path d="M59.5615 10.0291C59.5615 13.0708 57.2255 15.5133 54.3488 15.5133C51.4721 15.5133 49.1523 13.0708 49.1523 10.0291C49.1523 6.98743 51.4667 4.52783 54.3488 4.52783C57.2309 4.52783 59.5615 6.99314 59.5615 10.0291ZM51.7316 10.0291C51.7316 11.7868 52.9916 12.8768 54.3488 12.8768C55.706 12.8768 56.9659 11.7868 56.9659 10.0291C56.9659 8.27145 55.6898 7.15863 54.3488 7.15863C53.0078 7.15863 51.7316 8.27145 51.7316 10.0291Z" fill="currentColor"/>
<path d="M67.688 4.67212C70.1051 4.67212 71.1758 5.76211 71.1758 7.58256C71.1758 8.58695 70.7918 9.42584 69.7969 9.79107C71.0351 10.0935 71.6408 10.9895 71.6408 12.1879C71.6408 14.4592 70.462 15.378 67.7042 15.378H62.3672V4.67212H67.6826H67.688ZM64.9519 8.89511H67.5474C68.2774 8.87228 68.6019 8.50705 68.6019 7.93067C68.6019 7.35428 68.2558 6.98906 67.5042 6.98906H64.9465V8.89511H64.9519ZM67.7691 13.0667C68.7424 13.0667 69.0669 12.576 69.0669 11.9539C69.0669 11.3319 68.7424 10.8811 67.807 10.8639H64.9465V13.0667H67.7691Z" fill="currentColor"/>
<path d="M82.9972 6.51522L81.4561 8.27289C80.6233 7.45683 79.8934 7.1829 79.0012 7.1829C77.6439 7.1829 76.384 8.27288 76.384 10.0306C76.384 11.7882 77.6439 12.8782 79.0012 12.8782C79.8934 12.8782 80.6233 12.5986 81.4561 11.7882L82.9972 13.5459C82.0455 14.7443 80.6017 15.5148 79.0012 15.5148C76.119 15.5148 73.8047 13.0723 73.8047 10.0306C73.8047 6.98887 76.119 4.54639 79.0012 4.54639C80.6017 4.54639 82.0455 5.3168 82.9972 6.51522Z" fill="currentColor"/>
<path d="M88.2141 15.3819H85.6348V4.67603H88.2141V8.59656H89.7335L92.4102 4.67603H95.2707L91.7397 9.90339L95.4545 15.3876H92.5724L89.7335 11.2331H88.2141V15.3876V15.3819Z" fill="currentColor"/>
<path d="M104.549 15.3819V9.06451L99.353 15.3819H97.6875V4.67603H100.267V10.9934L105.463 4.67603H107.129V15.3819H104.549Z" fill="currentColor"/>
<path d="M117.421 15.3832V9.06583L112.224 15.3832H110.559V4.67734H113.138V10.9947L118.334 4.67734H120V15.3832H117.421ZM112.121 0.5H113.906C113.906 1.27041 114.517 1.86962 115.306 1.86962C116.096 1.86962 116.728 1.27041 116.728 0.5H118.497C118.497 2.38323 117.074 3.75283 115.312 3.75283C113.549 3.75283 112.127 2.38323 112.127 0.5H112.121Z" fill="currentColor"/>
<path d="M7.00251 35.3682V27.2932H2.5793V35.3682H0V24.6624H9.5764V35.3682H6.99709H7.00251Z" fill="currentColor"/>
<path d="M26.6888 35.3682H23.9473L28.6354 24.6624H30.3009L34.9891 35.3682H32.2692L29.4682 28.6628L26.6888 35.3682Z" fill="currentColor"/>
<path d="M44.0689 35.3682V29.0508L38.8725 35.3682H37.207V24.6624H39.7863V30.9797L44.9828 24.6624H46.6482V35.3682H44.0689Z" fill="currentColor"/>
<path d="M54.8792 35.3676H52.3215V27.2925H49.1582V24.656H58.0479V27.2925H54.8846V35.3676H54.8792Z" fill="currentColor"/>
<path d="M69.1424 27.4015C69.5695 28.3888 69.5858 29.844 69.3046 30.7628H62.221C62.221 32.218 63.3565 33.0113 64.7354 33.0113C65.7898 33.0113 66.8875 32.7545 67.8013 32.2637L69.1586 33.8273C68.0609 34.6833 66.5414 35.4994 64.7354 35.4994C61.6532 35.4994 59.5605 33.1425 59.5605 30.0152C59.5605 26.8879 61.5072 24.5139 64.6759 24.5139C66.8496 24.5139 68.3691 25.6039 69.1424 27.4072V27.4015ZM62.3237 29.0508H66.9686C66.9686 28.794 66.8875 28.4516 66.7253 28.1948C66.3792 27.51 65.6492 26.9964 64.6759 26.9964C63.297 26.9964 62.3615 28.0236 62.3237 29.0508Z" fill="currentColor"/>
<path d="M73.9126 35.3676H70.9277L74.8859 29.7978L71.1494 24.656H74.1343L76.3892 27.6121L78.5791 24.656H81.5423L77.8113 29.9005L81.7857 35.3619H78.8008L76.3243 32.0634L73.9072 35.3619L73.9126 35.3676Z" fill="currentColor"/>
<path d="M20.6564 30.1462C20.6564 30.1462 20.678 30.1348 20.678 30.1233C20.678 30.1118 20.6672 30.1003 20.6564 30.1003C20.6456 30.1003 20.6348 30.1118 20.6348 30.1233C20.6348 30.1348 20.6456 30.1462 20.6564 30.1462Z" fill="currentColor"/>
<path d="M20.558 30.9902C20.5904 30.9902 20.6121 30.9615 20.6121 30.9328C20.6121 30.9042 20.585 30.8755 20.558 30.8755C20.5309 30.8755 20.5039 30.9042 20.5039 30.9328C20.5039 30.9615 20.5309 30.9902 20.558 30.9902Z" fill="currentColor"/>
<path d="M20.2721 31.7782C20.3207 31.7782 20.3586 31.7381 20.3586 31.6865C20.3586 31.6349 20.3207 31.5947 20.2721 31.5947C20.2234 31.5947 20.1855 31.6349 20.1855 31.6865C20.1855 31.7381 20.2234 31.7782 20.2721 31.7782Z" fill="currentColor"/>
<path d="M19.8186 32.4672C19.8781 32.4672 19.9322 32.4159 19.9322 32.3474C19.9322 32.2789 19.8835 32.2275 19.8186 32.2275C19.7537 32.2275 19.7051 32.2789 19.7051 32.3474C19.7051 32.4159 19.7537 32.4672 19.8186 32.4672Z" fill="currentColor"/>
<path d="M19.2231 33.0097C19.2988 33.0097 19.3583 32.9469 19.3583 32.867C19.3583 32.7871 19.2988 32.7244 19.2231 32.7244C19.1474 32.7244 19.0879 32.7871 19.0879 32.867C19.0879 32.9469 19.1474 33.0097 19.2231 33.0097Z" fill="currentColor"/>
<path d="M18.5195 33.3634C18.5952 33.3634 18.6601 33.3006 18.6601 33.215C18.6601 33.1294 18.6006 33.0667 18.5195 33.0667C18.4384 33.0667 18.3789 33.1294 18.3789 33.215C18.3789 33.3006 18.4384 33.3634 18.5195 33.3634Z" fill="currentColor"/>
<path d="M17.7632 33.523C17.8443 33.523 17.9092 33.4545 17.9092 33.3689C17.9092 33.2833 17.8443 33.2148 17.7632 33.2148C17.6821 33.2148 17.6172 33.2833 17.6172 33.3689C17.6172 33.4545 17.6821 33.523 17.7632 33.523Z" fill="currentColor"/>
<path d="M16.9898 33.4715C17.0704 33.4715 17.1357 33.4025 17.1357 33.3174C17.1357 33.2323 17.0704 33.1633 16.9898 33.1633C16.9091 33.1633 16.8438 33.2323 16.8438 33.3174C16.8438 33.4025 16.9091 33.4715 16.9898 33.4715Z" fill="currentColor"/>
<path d="M16.254 33.2379C16.3459 33.2379 16.4162 33.1637 16.4162 33.0667C16.4162 32.9697 16.3459 32.8955 16.254 32.8955C16.1621 32.8955 16.0918 32.9697 16.0918 33.0667C16.0918 33.1637 16.1621 33.2379 16.254 33.2379Z" fill="currentColor"/>
<path d="M15.6008 32.8093C15.6963 32.8093 15.7738 32.7276 15.7738 32.6267C15.7738 32.5259 15.6963 32.4441 15.6008 32.4441C15.5052 32.4441 15.4277 32.5259 15.4277 32.6267C15.4277 32.7276 15.5052 32.8093 15.6008 32.8093Z" fill="currentColor"/>
<path d="M15.0707 32.2511C15.1843 32.2511 15.2762 32.1541 15.2762 32.0342C15.2762 31.9144 15.1843 31.8174 15.0707 31.8174C14.9572 31.8174 14.8652 31.9144 14.8652 32.0342C14.8652 32.1541 14.9572 32.2511 15.0707 32.2511Z" fill="currentColor"/>
<path d="M14.6974 31.5662C14.8271 31.5662 14.9299 31.4578 14.9299 31.3208C14.9299 31.1839 14.8271 31.0754 14.6974 31.0754C14.5676 31.0754 14.4648 31.1839 14.4648 31.3208C14.4648 31.4578 14.5676 31.5662 14.6974 31.5662Z" fill="currentColor"/>
<path d="M14.5076 30.8069C14.6536 30.8069 14.7672 30.6813 14.7672 30.533C14.7672 30.3846 14.6482 30.259 14.5076 30.259C14.367 30.259 14.248 30.3846 14.248 30.533C14.248 30.6813 14.367 30.8069 14.5076 30.8069Z" fill="currentColor"/>
<path d="M14.5091 29.9919C14.6551 29.9919 14.7741 29.8663 14.7741 29.7123C14.7741 29.5582 14.6551 29.4326 14.5091 29.4326C14.3631 29.4326 14.2441 29.5582 14.2441 29.7123C14.2441 29.8663 14.3631 29.9919 14.5091 29.9919Z" fill="currentColor"/>
<path d="M14.6981 29.2035C14.8441 29.2035 14.9685 29.0779 14.9685 28.9181C14.9685 28.7584 14.8495 28.6328 14.6981 28.6328C14.5467 28.6328 14.4277 28.7584 14.4277 28.9181C14.4277 29.0779 14.5467 29.2035 14.6981 29.2035Z" fill="currentColor"/>
<path d="M15.0708 28.5184C15.2331 28.5184 15.3682 28.3757 15.3682 28.2045C15.3682 28.0333 15.2331 27.8906 15.0708 27.8906C14.9086 27.8906 14.7734 28.0333 14.7734 28.2045C14.7734 28.3757 14.9086 28.5184 15.0708 28.5184Z" fill="currentColor"/>
<path d="M15.6003 27.9478C15.7765 27.9478 15.9193 27.7971 15.9193 27.6111C15.9193 27.4252 15.7765 27.2744 15.6003 27.2744C15.4241 27.2744 15.2812 27.4252 15.2812 27.6111C15.2812 27.7971 15.4241 27.9478 15.6003 27.9478Z" fill="currentColor"/>
<path d="M16.2552 27.5265C16.439 27.5265 16.5904 27.3667 16.5904 27.1727C16.5904 26.9786 16.439 26.8188 16.2552 26.8188C16.0713 26.8188 15.9199 26.9786 15.9199 27.1727C15.9199 27.3667 16.0713 27.5265 16.2552 27.5265Z" fill="currentColor"/>
<path d="M16.9891 27.2803C17.1772 27.2803 17.3298 27.1194 17.3298 26.9208C17.3298 26.7222 17.1772 26.5613 16.9891 26.5613C16.801 26.5613 16.6484 26.7222 16.6484 26.9208C16.6484 27.1194 16.801 27.2803 16.9891 27.2803Z" fill="currentColor"/>
<path d="M17.764 27.2278C17.9533 27.2278 18.1101 27.068 18.1101 26.8625C18.1101 26.6571 17.9587 26.4973 17.764 26.4973C17.5694 26.4973 17.418 26.6571 17.418 26.8625C17.418 27.068 17.5694 27.2278 17.764 27.2278Z" fill="currentColor"/>
<path d="M18.5199 27.3884C18.7092 27.3884 18.866 27.2229 18.866 27.0232C18.866 26.8234 18.7092 26.658 18.5199 26.658C18.3306 26.658 18.1738 26.8234 18.1738 27.0232C18.1738 27.2229 18.3306 27.3884 18.5199 27.3884Z" fill="currentColor"/>
<path d="M19.2226 27.7421C19.4167 27.7421 19.574 27.576 19.574 27.3712C19.574 27.1663 19.4167 27.0002 19.2226 27.0002C19.0285 27.0002 18.8711 27.1663 18.8711 27.3712C18.8711 27.576 19.0285 27.7421 19.2226 27.7421Z" fill="currentColor"/>
<path d="M19.8178 28.2606C20.0125 28.2606 20.1747 28.0951 20.1747 27.884C20.1747 27.6728 20.0179 27.5073 19.8178 27.5073C19.6178 27.5073 19.4609 27.6728 19.4609 27.884C19.4609 28.0951 19.6178 28.2606 19.8178 28.2606Z" fill="currentColor"/>
<path d="M20.2709 28.9283C20.471 28.9283 20.6278 28.7571 20.6278 28.5517C20.6278 28.3463 20.4656 28.175 20.2709 28.175C20.0763 28.175 19.9141 28.3463 19.9141 28.5517C19.9141 28.7571 20.0763 28.9283 20.2709 28.9283Z" fill="currentColor"/>
<path d="M20.5577 29.7173C20.7698 29.7173 20.9417 29.5359 20.9417 29.3122C20.9417 29.0884 20.7698 28.907 20.5577 28.907C20.3457 28.907 20.1738 29.0884 20.1738 29.3122C20.1738 29.5359 20.3457 29.7173 20.5577 29.7173Z" fill="currentColor"/>
<path d="M21.2721 30.1389C21.281 30.1389 21.2883 30.1312 21.2883 30.1217C21.2883 30.1122 21.281 30.1045 21.2721 30.1045C21.2631 30.1045 21.2559 30.1122 21.2559 30.1217C21.2559 30.1312 21.2631 30.1389 21.2721 30.1389Z" fill="currentColor"/>
<path d="M21.1917 30.9775C21.1917 30.9775 21.235 30.9546 21.235 30.9316C21.235 30.9087 21.2133 30.8857 21.1917 30.8857C21.1701 30.8857 21.1484 30.9087 21.1484 30.9316C21.1484 30.9546 21.1701 30.9775 21.1917 30.9775Z" fill="currentColor"/>
<path d="M20.9531 31.7831C20.9919 31.7831 21.0234 31.7498 21.0234 31.7086C21.0234 31.6674 20.9919 31.634 20.9531 31.634C20.9143 31.634 20.8828 31.6674 20.8828 31.7086C20.8828 31.7498 20.9143 31.7831 20.9531 31.7831Z" fill="currentColor"/>
<path d="M20.5646 32.5194C20.6187 32.5194 20.6565 32.4736 20.6565 32.422C20.6565 32.3704 20.6133 32.3245 20.5646 32.3245C20.5159 32.3245 20.4727 32.3704 20.4727 32.422C20.4727 32.4736 20.5159 32.5194 20.5646 32.5194Z" fill="currentColor"/>
<path d="M20.0456 33.1401C20.1051 33.1401 20.1538 33.0888 20.1538 33.026C20.1538 32.9632 20.1051 32.9119 20.0456 32.9119C19.9862 32.9119 19.9375 32.9632 19.9375 33.026C19.9375 33.0888 19.9862 33.1401 20.0456 33.1401Z" fill="currentColor"/>
<path d="M19.4173 33.6383C19.4876 33.6383 19.5417 33.5812 19.5417 33.507C19.5417 33.4328 19.4876 33.3757 19.4173 33.3757C19.347 33.3757 19.293 33.4328 19.293 33.507C19.293 33.5812 19.347 33.6383 19.4173 33.6383Z" fill="currentColor"/>
<path d="M18.7153 33.9785C18.7899 33.9785 18.8504 33.9146 18.8504 33.8358C18.8504 33.757 18.7899 33.6931 18.7153 33.6931C18.6406 33.6931 18.5801 33.757 18.5801 33.8358C18.5801 33.9146 18.6406 33.9785 18.7153 33.9785Z" fill="currentColor"/>
<path d="M17.9585 34.158C18.0396 34.158 18.1045 34.0895 18.1045 34.0039C18.1045 33.9183 18.0396 33.8499 17.9585 33.8499C17.8774 33.8499 17.8125 33.9183 17.8125 34.0039C17.8125 34.0895 17.8774 34.158 17.9585 34.158Z" fill="currentColor"/>
<path d="M17.1792 34.1622C17.2598 34.1622 17.3252 34.0932 17.3252 34.0081C17.3252 33.923 17.2598 33.854 17.1792 33.854C17.0986 33.854 17.0332 33.923 17.0332 34.0081C17.0332 34.0932 17.0986 34.1622 17.1792 34.1622Z" fill="currentColor"/>
<path d="M16.422 34.0087C16.5116 34.0087 16.5842 33.932 16.5842 33.8375C16.5842 33.7429 16.5116 33.6663 16.422 33.6663C16.3324 33.6663 16.2598 33.7429 16.2598 33.8375C16.2598 33.932 16.3324 34.0087 16.422 34.0087Z" fill="currentColor"/>
<path d="M15.7141 33.6895C15.8096 33.6895 15.8871 33.6077 15.8871 33.5068C15.8871 33.406 15.8096 33.3242 15.7141 33.3242C15.6185 33.3242 15.541 33.406 15.541 33.5068C15.541 33.6077 15.6185 33.6895 15.7141 33.6895Z" fill="currentColor"/>
<path d="M15.0926 33.2333C15.2008 33.2333 15.2927 33.142 15.2927 33.0222C15.2927 32.9023 15.2062 32.811 15.0926 32.811C14.9791 32.811 14.8926 32.9023 14.8926 33.0222C14.8926 33.142 14.9791 33.2333 15.0926 33.2333Z" fill="currentColor"/>
<path d="M14.5733 32.6501C14.6922 32.6501 14.795 32.5474 14.795 32.4161C14.795 32.2849 14.6976 32.1821 14.5733 32.1821C14.4489 32.1821 14.3516 32.2849 14.3516 32.4161C14.3516 32.5474 14.4489 32.6501 14.5733 32.6501Z" fill="currentColor"/>
<path d="M14.1838 31.9766C14.3244 31.9766 14.438 31.8568 14.438 31.7084C14.438 31.56 14.3244 31.4402 14.1838 31.4402C14.0432 31.4402 13.9297 31.56 13.9297 31.7084C13.9297 31.8568 14.0432 31.9766 14.1838 31.9766Z" fill="currentColor"/>
<path d="M13.9456 31.2015C14.0861 31.2015 14.1997 31.0816 14.1997 30.9333C14.1997 30.7849 14.0861 30.665 13.9456 30.665C13.805 30.665 13.6914 30.7849 13.6914 30.9333C13.6914 31.0816 13.805 31.2015 13.9456 31.2015Z" fill="currentColor"/>
<path d="M13.8631 30.3967C14.0064 30.3967 14.1226 30.2741 14.1226 30.1228C14.1226 29.9715 14.0064 29.8489 13.8631 29.8489C13.7197 29.8489 13.6035 29.9715 13.6035 30.1228C13.6035 30.2741 13.7197 30.3967 13.8631 30.3967Z" fill="currentColor"/>
<path d="M13.9447 29.5856C14.0906 29.5856 14.2096 29.4601 14.2096 29.306C14.2096 29.1519 14.0906 29.0264 13.9447 29.0264C13.7987 29.0264 13.6797 29.1519 13.6797 29.306C13.6797 29.4601 13.7987 29.5856 13.9447 29.5856Z" fill="currentColor"/>
<path d="M14.1835 28.8264C14.3403 28.8264 14.4647 28.6952 14.4647 28.5297C14.4647 28.3642 14.3403 28.2329 14.1835 28.2329C14.0267 28.2329 13.9023 28.3642 13.9023 28.5297C13.9023 28.6952 14.0267 28.8264 14.1835 28.8264Z" fill="currentColor"/>
<path d="M14.5723 28.1423C14.7396 28.1423 14.8752 27.9992 14.8752 27.8228C14.8752 27.6463 14.7396 27.5032 14.5723 27.5032C14.4051 27.5032 14.2695 27.6463 14.2695 27.8228C14.2695 27.9992 14.4051 28.1423 14.5723 28.1423Z" fill="currentColor"/>
<path d="M15.091 27.5489C15.264 27.5489 15.4046 27.4006 15.4046 27.218C15.4046 27.0353 15.264 26.887 15.091 26.887C14.9179 26.887 14.7773 27.0353 14.7773 27.218C14.7773 27.4006 14.9179 27.5489 15.091 27.5489Z" fill="currentColor"/>
<path d="M15.7131 27.075C15.8923 27.075 16.0376 26.9216 16.0376 26.7325C16.0376 26.5434 15.8923 26.3901 15.7131 26.3901C15.5339 26.3901 15.3887 26.5434 15.3887 26.7325C15.3887 26.9216 15.5339 27.075 15.7131 27.075Z" fill="currentColor"/>
<path d="M16.4227 26.7608C16.612 26.7608 16.7634 26.601 16.7634 26.4013C16.7634 26.2015 16.612 26.0417 16.4227 26.0417C16.2334 26.0417 16.082 26.2015 16.082 26.4013C16.082 26.601 16.2334 26.7608 16.4227 26.7608Z" fill="currentColor"/>
<path d="M17.1785 26.5897C17.3667 26.5897 17.5192 26.4287 17.5192 26.2301C17.5192 26.0316 17.3667 25.8706 17.1785 25.8706C16.9904 25.8706 16.8379 26.0316 16.8379 26.2301C16.8379 26.4287 16.9904 26.5897 17.1785 26.5897Z" fill="currentColor"/>
<path d="M17.9574 26.595C18.1467 26.595 18.3035 26.4352 18.3035 26.2297C18.3035 26.0243 18.1521 25.8645 17.9574 25.8645C17.7627 25.8645 17.6113 26.0243 17.6113 26.2297C17.6113 26.4352 17.7627 26.595 17.9574 26.595Z" fill="currentColor"/>
<path d="M18.7152 26.7661C18.9045 26.7661 19.0613 26.6006 19.0613 26.4009C19.0613 26.2011 18.9045 26.0356 18.7152 26.0356C18.526 26.0356 18.3691 26.2011 18.3691 26.4009C18.3691 26.6006 18.526 26.7661 18.7152 26.7661Z" fill="currentColor"/>
<path d="M19.4179 27.1032C19.6125 27.1032 19.7694 26.9377 19.7694 26.7323C19.7694 26.5268 19.6125 26.3613 19.4179 26.3613C19.2232 26.3613 19.0664 26.5268 19.0664 26.7323C19.0664 26.9377 19.2232 27.1032 19.4179 27.1032Z" fill="currentColor"/>
<path d="M20.0444 27.5885C20.2391 27.5885 20.4013 27.423 20.4013 27.2119C20.4013 27.0007 20.2445 26.8352 20.0444 26.8352C19.8443 26.8352 19.6875 27.0007 19.6875 27.2119C19.6875 27.423 19.8443 27.5885 20.0444 27.5885Z" fill="currentColor"/>
<path d="M20.5635 28.2039C20.7636 28.2039 20.9258 28.0327 20.9258 27.8216C20.9258 27.6104 20.7636 27.4392 20.5635 27.4392C20.3634 27.4392 20.2012 27.6104 20.2012 27.8216C20.2012 28.0327 20.3634 28.2039 20.5635 28.2039Z" fill="currentColor"/>
<path d="M20.9521 28.9132C21.1522 28.9132 21.3144 28.7419 21.3144 28.5308C21.3144 28.3196 21.1522 28.1484 20.9521 28.1484C20.7521 28.1484 20.5898 28.3196 20.5898 28.5308C20.5898 28.7419 20.7521 28.9132 20.9521 28.9132Z" fill="currentColor"/>
<path d="M21.1906 29.711C21.4014 29.711 21.5745 29.5284 21.5745 29.3058C21.5745 29.0832 21.4014 28.9006 21.1906 28.9006C20.9797 28.9006 20.8066 29.0832 20.8066 29.3058C20.8066 29.5284 20.9797 29.711 21.1906 29.711Z" fill="currentColor"/>
<path d="M21.8893 30.1389C21.8982 30.1389 21.9055 30.1312 21.9055 30.1217C21.9055 30.1122 21.8982 30.1045 21.8893 30.1045C21.8803 30.1045 21.873 30.1122 21.873 30.1217C21.873 30.1312 21.8803 30.1389 21.8893 30.1389Z" fill="currentColor"/>
<path d="M21.8191 30.9743C21.8191 30.9743 21.857 30.9571 21.857 30.9342C21.857 30.9112 21.8407 30.894 21.8191 30.894C21.7975 30.894 21.7812 30.9112 21.7812 30.9342C21.7812 30.9571 21.7975 30.9743 21.8191 30.9743Z" fill="currentColor"/>
<path d="M21.6142 31.7829C21.647 31.7829 21.6736 31.7547 21.6736 31.7198C21.6736 31.685 21.647 31.6567 21.6142 31.6567C21.5813 31.6567 21.5547 31.685 21.5547 31.7198C21.5547 31.7547 21.5813 31.7829 21.6142 31.7829Z" fill="currentColor"/>
<path d="M21.2788 32.5427C21.3221 32.5427 21.3545 32.5083 21.3545 32.4624C21.3545 32.4165 21.3221 32.3821 21.2788 32.3821C21.2356 32.3821 21.2031 32.4165 21.2031 32.4624C21.2031 32.5083 21.2356 32.5427 21.2788 32.5427Z" fill="currentColor"/>
<path d="M20.8239 33.2277C20.878 33.2277 20.9212 33.1818 20.9212 33.1245C20.9212 33.0671 20.878 33.0212 20.8239 33.0212C20.7698 33.0212 20.7266 33.0671 20.7266 33.1245C20.7266 33.1818 20.7698 33.2277 20.8239 33.2277Z" fill="currentColor"/>
<path d="M20.2615 33.8143C20.3264 33.8143 20.3805 33.7573 20.3805 33.6888C20.3805 33.6203 20.3264 33.5632 20.2615 33.5632C20.1966 33.5632 20.1426 33.6203 20.1426 33.6888C20.1426 33.7573 20.1966 33.8143 20.2615 33.8143Z" fill="currentColor"/>
<path d="M19.6176 34.2773C19.6923 34.2773 19.7528 34.2134 19.7528 34.1346C19.7528 34.0558 19.6923 33.9919 19.6176 33.9919C19.5429 33.9919 19.4824 34.0558 19.4824 34.1346C19.4824 34.2134 19.5429 34.2773 19.6176 34.2773Z" fill="currentColor"/>
<path d="M18.9047 34.603C18.9794 34.603 19.0399 34.5391 19.0399 34.4603C19.0399 34.3815 18.9794 34.3176 18.9047 34.3176C18.8301 34.3176 18.7695 34.3815 18.7695 34.4603C18.7695 34.5391 18.8301 34.603 18.9047 34.603Z" fill="currentColor"/>
<path d="M18.1465 34.7897C18.2241 34.7897 18.287 34.7232 18.287 34.6413C18.287 34.5593 18.2241 34.4929 18.1465 34.4929C18.0688 34.4929 18.0059 34.5593 18.0059 34.6413C18.0059 34.7232 18.0688 34.7897 18.1465 34.7897Z" fill="currentColor"/>
<path d="M17.3745 34.8299C17.4551 34.8299 17.5205 34.7609 17.5205 34.6758C17.5205 34.5907 17.4551 34.5217 17.3745 34.5217C17.2939 34.5217 17.2285 34.5907 17.2285 34.6758C17.2285 34.7609 17.2939 34.8299 17.3745 34.8299Z" fill="currentColor"/>
<path d="M16.6065 34.7258C16.6901 34.7258 16.7579 34.6543 16.7579 34.566C16.7579 34.4778 16.6901 34.4062 16.6065 34.4062C16.5229 34.4062 16.4551 34.4778 16.4551 34.566C16.4551 34.6543 16.5229 34.7258 16.6065 34.7258Z" fill="currentColor"/>
<path d="M15.8708 34.4881C15.9627 34.4881 16.0384 34.4082 16.0384 34.3112C16.0384 34.2142 15.9627 34.1343 15.8708 34.1343C15.7788 34.1343 15.7031 34.2142 15.7031 34.3112C15.7031 34.4082 15.7788 34.4881 15.8708 34.4881Z" fill="currentColor"/>
<path d="M15.1887 34.112C15.2842 34.112 15.3617 34.0303 15.3617 33.9294C15.3617 33.8286 15.2842 33.7468 15.1887 33.7468C15.0931 33.7468 15.0156 33.8286 15.0156 33.9294C15.0156 34.0303 15.0931 34.112 15.1887 34.112Z" fill="currentColor"/>
<path d="M14.5833 33.6196C14.6908 33.6196 14.778 33.5276 14.778 33.4142C14.778 33.3007 14.6908 33.2087 14.5833 33.2087C14.4758 33.2087 14.3887 33.3007 14.3887 33.4142C14.3887 33.5276 14.4758 33.6196 14.5833 33.6196Z" fill="currentColor"/>
<path d="M14.0694 33.0336C14.1883 33.0336 14.2911 32.9309 14.2911 32.7997C14.2911 32.6684 14.1937 32.5657 14.0694 32.5657C13.945 32.5657 13.8477 32.6684 13.8477 32.7997C13.8477 32.9309 13.945 33.0336 14.0694 33.0336Z" fill="currentColor"/>
<path d="M13.6759 32.3475C13.8057 32.3475 13.9084 32.2391 13.9084 32.1021C13.9084 31.9651 13.8057 31.8567 13.6759 31.8567C13.5461 31.8567 13.4434 31.9651 13.4434 32.1021C13.4434 32.2391 13.5461 32.3475 13.6759 32.3475Z" fill="currentColor"/>
<path d="M13.4045 31.5994C13.5451 31.5994 13.6587 31.4796 13.6587 31.3312C13.6587 31.1828 13.5451 31.063 13.4045 31.063C13.2639 31.063 13.1504 31.1828 13.1504 31.3312C13.1504 31.4796 13.2639 31.5994 13.4045 31.5994Z" fill="currentColor"/>
<path d="M13.2635 30.8008C13.4068 30.8008 13.523 30.6781 13.523 30.5269C13.523 30.3756 13.4068 30.2529 13.2635 30.2529C13.1201 30.2529 13.0039 30.3756 13.0039 30.5269C13.0039 30.6781 13.1201 30.8008 13.2635 30.8008Z" fill="currentColor"/>
<path d="M13.265 29.9919C13.411 29.9919 13.5299 29.8663 13.5299 29.7123C13.5299 29.5582 13.411 29.4326 13.265 29.4326C13.119 29.4326 13 29.5582 13 29.7123C13 29.8663 13.119 29.9919 13.265 29.9919Z" fill="currentColor"/>
<path d="M13.4051 29.191C13.5511 29.191 13.6755 29.0655 13.6755 28.9057C13.6755 28.7459 13.5565 28.6204 13.4051 28.6204C13.2537 28.6204 13.1348 28.7459 13.1348 28.9057C13.1348 29.0655 13.2537 29.191 13.4051 29.191Z" fill="currentColor"/>
<path d="M13.6757 28.4387C13.8325 28.4387 13.9569 28.3075 13.9569 28.142C13.9569 27.9765 13.8325 27.8452 13.6757 27.8452C13.5189 27.8452 13.3945 27.9765 13.3945 28.142C13.3945 28.3075 13.5189 28.4387 13.6757 28.4387Z" fill="currentColor"/>
<path d="M14.0693 27.7484C14.2316 27.7484 14.3613 27.6115 14.3613 27.4402C14.3613 27.269 14.2316 27.1321 14.0693 27.1321C13.9071 27.1321 13.7773 27.269 13.7773 27.4402C13.7773 27.6115 13.9071 27.7484 14.0693 27.7484Z" fill="currentColor"/>
<path d="M14.5841 27.1426C14.7517 27.1426 14.8869 26.9999 14.8869 26.823C14.8869 26.6461 14.7517 26.5034 14.5841 26.5034C14.4164 26.5034 14.2812 26.6461 14.2812 26.823C14.2812 26.9999 14.4164 27.1426 14.5841 27.1426Z" fill="currentColor"/>
<path d="M15.1897 26.6584C15.3689 26.6584 15.5141 26.5051 15.5141 26.316C15.5141 26.1269 15.3689 25.9736 15.1897 25.9736C15.0105 25.9736 14.8652 26.1269 14.8652 26.316C14.8652 26.5051 15.0105 26.6584 15.1897 26.6584Z" fill="currentColor"/>
<path d="M15.8704 26.2753C16.0543 26.2753 16.2057 26.1155 16.2057 25.9214C16.2057 25.7274 16.0543 25.5676 15.8704 25.5676C15.6866 25.5676 15.5352 25.7274 15.5352 25.9214C15.5352 26.1155 15.6866 26.2753 15.8704 26.2753Z" fill="currentColor"/>
<path d="M16.6063 26.0311C16.7955 26.0311 16.947 25.8713 16.947 25.6715C16.947 25.4718 16.7955 25.312 16.6063 25.312C16.417 25.312 16.2656 25.4718 16.2656 25.6715C16.2656 25.8713 16.417 26.0311 16.6063 26.0311Z" fill="currentColor"/>
<path d="M17.3739 25.9219C17.562 25.9219 17.7145 25.761 17.7145 25.5624C17.7145 25.3638 17.562 25.2029 17.3739 25.2029C17.1857 25.2029 17.0332 25.3638 17.0332 25.5624C17.0332 25.761 17.1857 25.9219 17.3739 25.9219Z" fill="currentColor"/>
<path d="M18.1469 25.9683C18.338 25.9683 18.4929 25.8047 18.4929 25.603C18.4929 25.4013 18.338 25.2378 18.1469 25.2378C17.9557 25.2378 17.8008 25.4013 17.8008 25.603C17.8008 25.8047 17.9557 25.9683 18.1469 25.9683Z" fill="currentColor"/>
<path d="M18.9047 26.1435C19.0958 26.1435 19.2507 25.98 19.2507 25.7783C19.2507 25.5766 19.0958 25.4131 18.9047 25.4131C18.7135 25.4131 18.5586 25.5766 18.5586 25.7783C18.5586 25.98 18.7135 26.1435 18.9047 26.1435Z" fill="currentColor"/>
<path d="M19.6171 26.4743C19.8112 26.4743 19.9686 26.3082 19.9686 26.1034C19.9686 25.8985 19.8112 25.7324 19.6171 25.7324C19.423 25.7324 19.2656 25.8985 19.2656 26.1034C19.2656 26.3082 19.423 26.4743 19.6171 26.4743Z" fill="currentColor"/>
<path d="M20.2612 26.9269C20.4558 26.9269 20.6181 26.7614 20.6181 26.5502C20.6181 26.3391 20.4612 26.1736 20.2612 26.1736C20.0611 26.1736 19.9043 26.3391 19.9043 26.5502C19.9043 26.7614 20.0611 26.9269 20.2612 26.9269Z" fill="currentColor"/>
<path d="M20.8237 27.4957C21.0183 27.4957 21.1806 27.3302 21.1806 27.1191C21.1806 26.9079 21.0238 26.7424 20.8237 26.7424C20.6236 26.7424 20.4668 26.9079 20.4668 27.1191C20.4668 27.3302 20.6236 27.4957 20.8237 27.4957Z" fill="currentColor"/>
<path d="M21.2779 28.1699C21.4809 28.1699 21.6456 27.9962 21.6456 27.7819C21.6456 27.5675 21.4809 27.3938 21.2779 27.3938C21.0748 27.3938 20.9102 27.5675 20.9102 27.7819C20.9102 27.9962 21.0748 28.1699 21.2779 28.1699Z" fill="currentColor"/>
<path d="M21.6138 28.906C21.8193 28.906 21.9815 28.7291 21.9815 28.518C21.9815 28.3068 21.8139 28.1299 21.6138 28.1299C21.4137 28.1299 21.2461 28.3068 21.2461 28.518C21.2461 28.7291 21.4137 28.906 21.6138 28.906Z" fill="currentColor"/>
<path d="M21.8175 29.711C22.0284 29.711 22.2014 29.5284 22.2014 29.3058C22.2014 29.0832 22.0284 28.9006 21.8175 28.9006C21.6066 28.9006 21.4336 29.0832 21.4336 29.3058C21.4336 29.5284 21.6066 29.711 21.8175 29.711Z" fill="currentColor"/>
<path d="M22.4459 30.949C22.4549 30.949 22.4621 30.9413 22.4621 30.9318C22.4621 30.9223 22.4549 30.9146 22.4459 30.9146C22.4369 30.9146 22.4297 30.9223 22.4297 30.9318C22.4297 30.9413 22.4369 30.949 22.4459 30.949Z" fill="currentColor"/>
<path d="M22.2665 31.7951C22.299 31.7951 22.326 31.7664 22.326 31.732C22.326 31.6976 22.299 31.6689 22.2665 31.6689C22.2341 31.6689 22.207 31.6976 22.207 31.732C22.207 31.7664 22.2341 31.7951 22.2665 31.7951Z" fill="currentColor"/>
<path d="M21.9701 32.5422C21.9999 32.5422 22.0242 32.5165 22.0242 32.4848C22.0242 32.4532 21.9999 32.4275 21.9701 32.4275C21.9402 32.4275 21.916 32.4532 21.916 32.4848C21.916 32.5165 21.9402 32.5422 21.9701 32.5422Z" fill="currentColor"/>
<path d="M21.564 33.2663C21.6072 33.2663 21.6397 33.2319 21.6397 33.186C21.6397 33.1401 21.6072 33.1057 21.564 33.1057C21.5207 33.1057 21.4883 33.1401 21.4883 33.186C21.4883 33.2319 21.5207 33.2663 21.564 33.2663Z" fill="currentColor"/>
<path d="M21.0608 33.9226C21.1203 33.9226 21.1744 33.8712 21.1744 33.8027C21.1744 33.7342 21.1257 33.6829 21.0608 33.6829C20.9959 33.6829 20.9473 33.7342 20.9473 33.8027C20.9473 33.8712 20.9959 33.9226 21.0608 33.9226Z" fill="currentColor"/>
<path d="M20.4725 34.4637C20.5374 34.4637 20.5914 34.4067 20.5914 34.3382C20.5914 34.2697 20.5374 34.2126 20.4725 34.2126C20.4076 34.2126 20.3535 34.2697 20.3535 34.3382C20.3535 34.4067 20.4076 34.4637 20.4725 34.4637Z" fill="currentColor"/>
<path d="M19.8129 34.904C19.8876 34.904 19.9481 34.8401 19.9481 34.7613C19.9481 34.6825 19.8876 34.6187 19.8129 34.6187C19.7383 34.6187 19.6777 34.6825 19.6777 34.7613C19.6777 34.8401 19.7383 34.904 19.8129 34.904Z" fill="currentColor"/>
<path d="M19.0922 35.2194C19.1669 35.2194 19.2274 35.1555 19.2274 35.0768C19.2274 34.998 19.1669 34.9341 19.0922 34.9341C19.0176 34.9341 18.957 34.998 18.957 35.0768C18.957 35.1555 19.0176 35.2194 19.0922 35.2194Z" fill="currentColor"/>
<path d="M18.3413 35.4175C18.4224 35.4175 18.4873 35.3491 18.4873 35.2635C18.4873 35.1778 18.4224 35.1094 18.3413 35.1094C18.2602 35.1094 18.1953 35.1778 18.1953 35.2635C18.1953 35.3491 18.2602 35.4175 18.3413 35.4175Z" fill="currentColor"/>
<path d="M17.5679 35.4876C17.649 35.4876 17.7139 35.4191 17.7139 35.3335C17.7139 35.2479 17.649 35.1794 17.5679 35.1794C17.4868 35.1794 17.4219 35.2479 17.4219 35.3335C17.4219 35.4191 17.4868 35.4876 17.5679 35.4876Z" fill="currentColor"/>
<path d="M16.7944 35.4236C16.8751 35.4236 16.9404 35.3547 16.9404 35.2696C16.9404 35.1845 16.8751 35.1155 16.7944 35.1155C16.7138 35.1155 16.6484 35.1845 16.6484 35.2696C16.6484 35.3547 16.7138 35.4236 16.7944 35.4236Z" fill="currentColor"/>
<path d="M16.0435 35.2404C16.1301 35.2404 16.2003 35.1663 16.2003 35.0749C16.2003 34.9835 16.1301 34.9094 16.0435 34.9094C15.9569 34.9094 15.8867 34.9835 15.8867 35.0749C15.8867 35.1663 15.9569 35.2404 16.0435 35.2404Z" fill="currentColor"/>
<path d="M15.3254 34.9448C15.4173 34.9448 15.4984 34.8649 15.4984 34.7622C15.4984 34.6595 15.4227 34.5796 15.3254 34.5796C15.2281 34.5796 15.1523 34.6595 15.1523 34.7622C15.1523 34.8649 15.2281 34.9448 15.3254 34.9448Z" fill="currentColor"/>
<path d="M14.6643 34.5285C14.7659 34.5285 14.8482 34.4416 14.8482 34.3344C14.8482 34.2273 14.7659 34.1404 14.6643 34.1404C14.5628 34.1404 14.4805 34.2273 14.4805 34.3344C14.4805 34.4416 14.5628 34.5285 14.6643 34.5285Z" fill="currentColor"/>
<path d="M14.0746 34.0197C14.1881 34.0197 14.2801 33.9226 14.2801 33.8028C14.2801 33.683 14.1881 33.5859 14.0746 33.5859C13.9611 33.5859 13.8691 33.683 13.8691 33.8028C13.8691 33.9226 13.9611 34.0197 14.0746 34.0197Z" fill="currentColor"/>
<path d="M13.5724 33.4317C13.7021 33.4317 13.8049 33.3233 13.8049 33.1863C13.8049 33.0493 13.7021 32.9409 13.5724 32.9409C13.4426 32.9409 13.3398 33.0493 13.3398 33.1863C13.3398 33.3233 13.4426 33.4317 13.5724 33.4317Z" fill="currentColor"/>
<path d="M13.1661 32.7308C13.2945 32.7308 13.3986 32.6209 13.3986 32.4854C13.3986 32.3499 13.2945 32.24 13.1661 32.24C13.0377 32.24 12.9336 32.3499 12.9336 32.4854C12.9336 32.6209 13.0377 32.7308 13.1661 32.7308Z" fill="currentColor"/>
<path d="M12.8694 31.9993C13.01 31.9993 13.1235 31.8795 13.1235 31.7311C13.1235 31.5827 13.01 31.4629 12.8694 31.4629C12.7288 31.4629 12.6152 31.5827 12.6152 31.7311C12.6152 31.8795 12.7288 31.9993 12.8694 31.9993Z" fill="currentColor"/>
<path d="M12.6897 31.2056C12.8303 31.2056 12.9438 31.0858 12.9438 30.9374C12.9438 30.789 12.8303 30.6692 12.6897 30.6692C12.5491 30.6692 12.4355 30.789 12.4355 30.9374C12.4355 31.0858 12.5491 31.2056 12.6897 31.2056Z" fill="currentColor"/>
<path d="M12.6306 30.3967C12.774 30.3967 12.8902 30.2741 12.8902 30.1228C12.8902 29.9715 12.774 29.8489 12.6306 29.8489C12.4873 29.8489 12.3711 29.9715 12.3711 30.1228C12.3711 30.2741 12.4873 30.3967 12.6306 30.3967Z" fill="currentColor"/>
<path d="M12.6907 29.5795C12.8367 29.5795 12.9557 29.454 12.9557 29.2999C12.9557 29.1458 12.8367 29.0203 12.6907 29.0203C12.5447 29.0203 12.4258 29.1458 12.4258 29.2999C12.4258 29.454 12.5447 29.5795 12.6907 29.5795Z" fill="currentColor"/>
<path d="M12.87 28.7911C13.0214 28.7911 13.1403 28.6656 13.1403 28.5058C13.1403 28.346 13.0214 28.2205 12.87 28.2205C12.7186 28.2205 12.5996 28.346 12.5996 28.5058C12.5996 28.6656 12.7186 28.7911 12.87 28.7911Z" fill="currentColor"/>
<path d="M13.1659 28.0493C13.3212 28.0493 13.4471 27.9165 13.4471 27.7526C13.4471 27.5887 13.3212 27.4558 13.1659 27.4558C13.0107 27.4558 12.8848 27.5887 12.8848 27.7526C12.8848 27.9165 13.0107 28.0493 13.1659 28.0493Z" fill="currentColor"/>
<path d="M13.5717 27.3598C13.73 27.3598 13.8583 27.2244 13.8583 27.0573C13.8583 26.8903 13.73 26.7549 13.5717 26.7549C13.4135 26.7549 13.2852 26.8903 13.2852 27.0573C13.2852 27.2244 13.4135 27.3598 13.5717 27.3598Z" fill="currentColor"/>
<path d="M14.0743 26.7551C14.2419 26.7551 14.3771 26.6125 14.3771 26.4355C14.3771 26.2586 14.2419 26.116 14.0743 26.116C13.9067 26.116 13.7715 26.2586 13.7715 26.4355C13.7715 26.6125 13.9067 26.7551 14.0743 26.7551Z" fill="currentColor"/>
<path d="M14.6647 26.241C14.8432 26.241 14.9838 26.0926 14.9838 25.9043C14.9838 25.716 14.8432 25.5676 14.6647 25.5676C14.4863 25.5676 14.3457 25.716 14.3457 25.9043C14.3457 26.0926 14.4863 26.241 14.6647 26.241Z" fill="currentColor"/>
<path d="M15.3244 25.8196C15.5029 25.8196 15.6489 25.6655 15.6489 25.4772C15.6489 25.2889 15.5029 25.1348 15.3244 25.1348C15.146 25.1348 15 25.2889 15 25.4772C15 25.6655 15.146 25.8196 15.3244 25.8196Z" fill="currentColor"/>
<path d="M16.0442 25.5167C16.2281 25.5167 16.3795 25.3569 16.3795 25.1629C16.3795 24.9689 16.2281 24.8091 16.0442 24.8091C15.8604 24.8091 15.709 24.9689 15.709 25.1629C15.709 25.3569 15.8604 25.5167 16.0442 25.5167Z" fill="currentColor"/>
<path d="M16.7957 25.3282C16.9839 25.3282 17.1364 25.1672 17.1364 24.9687C17.1364 24.7701 16.9839 24.6091 16.7957 24.6091C16.6076 24.6091 16.4551 24.7701 16.4551 24.9687C16.4551 25.1672 16.6076 25.3282 16.7957 25.3282Z" fill="currentColor"/>
<path d="M17.5687 25.2717C17.758 25.2717 17.9148 25.1119 17.9148 24.9065C17.9148 24.701 17.7634 24.5413 17.5687 24.5413C17.3741 24.5413 17.2227 24.701 17.2227 24.9065C17.2227 25.1119 17.3741 25.2717 17.5687 25.2717Z" fill="currentColor"/>
<path d="M18.3422 25.3335C18.5314 25.3335 18.6882 25.1737 18.6882 24.9683C18.6882 24.7628 18.5368 24.603 18.3422 24.603C18.1475 24.603 17.9961 24.7628 17.9961 24.9683C17.9961 25.1737 18.1475 25.3335 18.3422 25.3335Z" fill="currentColor"/>
<path d="M19.0922 25.5271C19.2833 25.5271 19.4382 25.3636 19.4382 25.1619C19.4382 24.9602 19.2833 24.7966 19.0922 24.7966C18.901 24.7966 18.7461 24.9602 18.7461 25.1619C18.7461 25.3636 18.901 25.5271 19.0922 25.5271Z" fill="currentColor"/>
<path d="M19.8129 25.8425C20.0075 25.8425 20.1589 25.677 20.1589 25.4773C20.1589 25.2775 20.0021 25.1121 19.8129 25.1121C19.6236 25.1121 19.4668 25.2775 19.4668 25.4773C19.4668 25.677 19.6236 25.8425 19.8129 25.8425Z" fill="currentColor"/>
<path d="M20.4726 26.2765C20.6672 26.2765 20.824 26.111 20.824 25.9056C20.824 25.7002 20.6672 25.5347 20.4726 25.5347C20.2779 25.5347 20.1211 25.7002 20.1211 25.9056C20.1211 26.111 20.2779 26.2765 20.4726 26.2765Z" fill="currentColor"/>
<path d="M21.062 26.8114C21.2591 26.8114 21.4188 26.6428 21.4188 26.4347C21.4188 26.2267 21.2591 26.0581 21.062 26.0581C20.8649 26.0581 20.7051 26.2267 20.7051 26.4347C20.7051 26.6428 20.8649 26.8114 21.062 26.8114Z" fill="currentColor"/>
<path d="M21.5639 27.4339C21.764 27.4339 21.9208 27.2628 21.9208 27.0573C21.9208 26.8519 21.7586 26.6807 21.5639 26.6807C21.3693 26.6807 21.207 26.8519 21.207 27.0573C21.207 27.2628 21.3693 27.4339 21.5639 27.4339Z" fill="currentColor"/>
<path d="M21.9693 28.1411C22.1747 28.1411 22.337 27.9642 22.337 27.7531C22.337 27.5419 22.1693 27.365 21.9693 27.365C21.7692 27.365 21.6016 27.5419 21.6016 27.7531C21.6016 27.9642 21.7692 28.1411 21.9693 28.1411Z" fill="currentColor"/>
<path d="M22.2672 28.9061C22.4781 28.9061 22.6457 28.7292 22.6457 28.5066C22.6457 28.2841 22.4781 28.1072 22.2672 28.1072C22.0563 28.1072 21.8887 28.2841 21.8887 28.5066C21.8887 28.7292 22.0563 28.9061 22.2672 28.9061Z" fill="currentColor"/>
<path d="M22.446 29.7182C22.6623 29.7182 22.8353 29.5356 22.8353 29.3074C22.8353 29.0791 22.6623 28.8965 22.446 28.8965C22.2297 28.8965 22.0566 29.0791 22.0566 29.3074C22.0566 29.5356 22.2297 29.7182 22.446 29.7182Z" fill="currentColor"/>
<path d="M22.8736 30.0945C22.8736 30.8592 22.2842 31.4813 21.5596 31.4813C20.835 31.4813 20.2402 30.8592 20.2402 30.0945C20.2402 29.3298 20.8296 28.7078 21.5596 28.7078C22.2896 28.7078 22.8736 29.3298 22.8736 30.0945Z" fill="currentColor"/>
</svg>
