<svg width="351" height="396" viewBox="0 0 351 396" fill="none" xmlns="http://www.w3.org/2000/svg">
<g clip-path="url(#clip0_4709_44145)">
<mask id="mask0_4709_44145" style="mask-type:luminance" maskUnits="userSpaceOnUse" x="0" y="0" width="400" height="400">
<path d="M400 0H0V400H400V0Z" fill="white"/>
</mask>
<g mask="url(#mask0_4709_44145)">
<path d="M278.432 61.2999C270.28 56.2039 259.572 57.6559 250.68 61.3039C232.956 68.5719 218.544 84.7959 215.868 103.764C215.42 106.944 215.288 110.18 214.536 113.304C213.756 116.548 212.316 119.624 211.724 122.908C210.696 128.636 212.48 134.804 216.408 139.1C220.336 143.396 226.312 145.728 232.112 145.224C233.856 145.072 235.716 144.696 237.288 145.476C238.2 145.928 238.888 146.716 239.62 147.424C243.74 151.408 249.944 153.104 255.516 151.772C258.364 151.092 261.16 149.668 264.064 150.048C266.248 150.332 268.152 151.6 270.16 152.504C274.508 154.46 279.6 154.712 284.12 153.192C285.312 152.792 286.48 152.268 287.732 152.148C288.936 152.032 290.14 152.296 291.332 152.496C301.256 154.16 311.86 151.184 319.472 144.6C322.056 142.364 324.448 139.332 324.188 135.924C324.06 134.276 323.312 132.708 323.3 131.056C323.284 129.256 324.136 127.58 324.796 125.908C328.36 116.884 326.64 106.696 324.172 97.3159C321.848 88.4759 318.668 79.4239 312.032 73.1399C304.6 66.0999 294.012 63.6279 283.876 62.1879L278.428 61.2999H278.432Z" fill="#08262F"/>
<path d="M235.832 90.7999C241.824 82.1599 250.224 74.9959 260.148 71.5159C270.072 68.0359 281.54 68.4999 290.652 73.7519C294.612 76.0359 298.052 79.1439 301.02 82.6199C307.892 90.6639 312.292 100.788 313.48 111.296C314 115.88 313.84 120.816 311.336 124.696C308.832 128.576 303.34 130.792 299.388 128.408C293.132 135.36 284.76 140.376 275.684 142.62C275.344 150.656 281.904 158.384 289.884 159.36C284.544 166.712 275.316 171.06 266.248 170.496C257.18 169.932 248.56 164.48 244.168 156.524C247.592 154.52 251.96 154.66 255.352 152.6C258.484 150.696 260.368 146.912 260 143.264C247.864 142.776 236.356 134.728 231.732 123.5C227.696 124.74 222.904 121.796 222.184 117.636C221.464 113.476 224.988 109.096 229.204 108.908C229.74 103.624 231.808 98.5039 235.092 94.3239L235.828 90.8079L235.832 90.7999Z" fill="#FFC4BE"/>
<path d="M228.624 99.5241C246.016 95.9681 262.28 87.0801 274.66 74.3601C275.672 87.1761 283.856 99.1921 295.412 104.828C296.1 105.164 296.816 105.488 297.348 106.04C297.832 106.536 298.128 107.18 298.452 107.796C301.552 113.656 308.044 117.56 314.676 117.544C315.348 117.544 316.052 117.496 316.628 117.148C317.66 116.528 317.952 115.176 318.052 113.976C318.864 104.276 313.668 95.1001 307.712 87.4001C303.912 82.4841 299.692 77.8361 294.68 74.1681C289.668 70.5001 283.808 67.8401 277.624 67.2161C274.616 66.9121 271.576 67.0921 268.58 67.5161C251.34 69.9561 235.54 81.0321 227.368 96.4081L228.616 99.5281L228.624 99.5241Z" fill="#08262F"/>
<path d="M222.576 285.144C231.216 282.384 240.384 281.824 249.44 281.284C269.168 280.108 288.896 278.932 308.628 277.756C318.456 320.76 330.564 363.208 342.668 405.628L284.484 408.712C279.644 386.78 273.604 345.6 269.684 345.572C264.784 345.536 269.452 345.368 269.348 345.484C266.36 348.896 265.996 351.356 265.54 356.008C263.72 374.592 262.392 393.224 261.552 411.88L215.876 410.192C217.02 370.116 218.444 330.044 220.152 289.988L222.576 285.14V285.144Z" fill="#5E6B71"/>
<path d="M92.2598 253.58C82.9439 257.664 73.0078 260.344 62.8998 261.5C60.0158 261.828 56.4878 262.52 55.6478 265.296C59.6838 267.064 64.0398 268.096 68.4358 268.32C61.1078 272.356 53.6638 276.476 47.8318 282.468C49.0958 283.352 50.6718 283.784 52.2078 283.664C50.7318 284.516 50.3158 286.768 51.3958 288.088C52.4758 289.408 54.7638 289.452 55.8918 288.172C54.5398 289.624 53.3158 292.268 55.0478 293.24C55.7198 293.616 56.5478 293.48 57.2958 293.312C59.7918 292.74 62.2158 291.868 64.5038 290.716C62.8998 291.632 61.9598 293.584 62.2398 295.408C65.5038 295.752 68.6758 294.356 71.6438 292.956C81.4518 288.32 91.0559 283.24 100.404 277.736C101.064 277.348 101.764 276.912 102.052 276.2C102.336 275.504 102.152 274.716 101.952 273.992C100.392 268.256 98.1918 262.692 95.4118 257.44L92.2518 253.58H92.2598Z" fill="#FFC4BE"/>
<path d="M243.2 156C218.848 164.76 206.14 175.044 187.5 193C180.24 199.996 164.716 212.324 157.648 219.516C138.5 235 113.176 241.612 89.9998 254.408C90.0998 263.684 92.9998 272.912 98.2238 280.576C136.912 263.132 173.364 246.728 204.584 217.98C211.088 211.988 217.692 205.936 225.496 201.78C225.248 229.544 220.944 257.268 212.768 283.8C212.212 285.608 211.628 287.48 211.836 289.36C212.036 291.152 212.936 292.788 213.972 294.264C220.56 303.64 232.436 307.704 243.764 309.436C268.78 313.252 295.052 308.212 316.88 295.408C314.896 273.144 312.908 250.88 310.924 228.616C309.576 213.492 308.312 197.724 313.868 183.592C315.16 180.308 316.836 176.776 315.792 173.404C314.94 170.652 312.464 168.756 310.052 167.184C304.072 163.288 296.788 160.996 290 158.8C284.524 165.856 276.488 169.38 267.556 169.4C258.624 169.42 250.708 165.828 245.2 158.8L243.2 156Z" fill="#C1E0FE"/>
<path d="M225.197 200.275C217.402 203.654 210.413 208.586 203.906 213.999C197.301 219.496 191.14 225.498 184.694 231.176C177.838 237.214 170.546 242.703 162.868 247.657C155.063 252.693 146.935 257.219 138.672 261.459C130.381 265.712 121.95 269.682 113.507 273.618C112.452 274.108 111.4 274.599 110.345 275.089C109.705 275.386 110.185 276.378 110.826 276.077C119.272 272.149 127.718 268.216 136.041 264.028C144.344 259.854 152.526 255.424 160.414 250.508C168.214 245.649 175.715 240.314 182.711 234.354C189.256 228.782 195.411 222.772 201.908 217.146C208.331 211.587 215.135 206.372 222.782 202.608C223.736 202.139 224.704 201.69 225.681 201.268C226.33 200.986 225.846 199.997 225.2 200.279L225.197 200.275Z" fill="black"/>
<path d="M304.8 238.6C302.072 256.088 300.508 273.756 300.116 291.452C287.22 291.9 274.304 291.672 261.432 290.764C261.04 290.736 260.632 290.7 260.308 290.484C259.78 290.128 259.648 289.42 259.572 288.788C258.208 277.004 261.516 265.252 262.964 253.48C263.828 246.472 264.032 239.384 263.576 232.336C275.484 232.884 287.336 234.668 298.876 237.648L304.796 238.596L304.8 238.6Z" fill="#3391FD"/>
<path d="M278.072 239.964C280.12 258.988 281.78 278.052 283.048 297.144C277.96 299.16 272.38 299.504 266.912 299.708C255.528 300.136 244.12 300.076 232.74 299.524C231.592 296.308 231.568 292.816 231.472 289.4C231.048 274.076 228.944 258.852 226.844 243.664C241.372 241.164 256.452 243.3 270.884 240.304L278.072 239.964Z" fill="#9DC3EC"/>
<path d="M277.232 297.484C281.228 299.24 284.328 302.912 285.388 307.148C285.768 308.672 285.884 310.332 285.268 311.776C283.944 314.88 280.016 315.736 276.66 316.068C261.732 317.54 246.476 316.832 232.04 312.752C230.868 312.42 229.564 311.952 229.072 310.84C228.58 309.728 229.82 308.1 230.844 308.764C229.852 307.728 228.396 307.32 227.072 306.772C225.748 306.224 224.372 305.352 224.036 303.956C223.7 302.56 225.192 300.872 226.456 301.552C225.732 299.984 223.24 299.592 222.98 297.884C222.824 296.88 223.632 295.928 224.58 295.56C225.528 295.192 226.584 295.272 227.596 295.356C226.708 294.292 225.816 293.228 224.928 292.164C226.092 290.98 227.972 290.948 229.624 291.116C236.444 291.808 243.2 294.516 249.956 293.356C247.552 289.58 242.312 287.816 241.08 283.512C244.036 283.104 246.956 284.276 249.716 285.408C257.568 288.628 265.468 291.728 273.416 294.696L277.236 297.484H277.232Z" fill="#FFC4BE"/>
<path d="M303.78 195.44C294.856 187.34 296.476 173.896 298.4 162C328.076 173.028 347.392 198.564 354.328 229.452C355.512 234.716 356.164 240.152 355.616 245.52C355.004 251.52 352.916 257.268 350.52 262.804C342.712 280.84 330.732 297.984 313.256 306.972C303.112 312.188 291.712 314.368 280.468 316.284C278.864 308.236 275.856 300.464 271.624 293.432C284.612 295.272 298.084 290.932 308.476 282.92C318.868 274.912 326.308 263.476 330.832 251.16C333.012 245.224 334.568 238.94 334.212 232.628C333.348 217.312 321.528 204.756 308.624 196.46L303.784 195.44H303.78Z" fill="#C1E0FE"/>
<path d="M279.825 106.404C279.677 108.096 279.929 109.824 280.561 111.404C280.653 111.628 280.805 111.804 281.061 111.832C281.277 111.856 281.561 111.764 281.657 111.544C282.509 109.644 282.181 107.384 280.781 105.828C280.485 105.5 279.877 105.664 279.777 106.092C279.537 107.136 279.409 108.212 279.409 109.284C279.409 109.8 279.433 110.316 279.497 110.828C279.561 111.34 279.761 111.84 280.281 112C280.801 112.16 281.261 111.856 281.485 111.416C281.709 110.976 281.733 110.448 281.753 109.968C281.801 108.932 281.657 107.884 281.341 106.9C281.105 106.168 279.949 106.48 280.185 107.22C280.421 107.96 280.553 108.716 280.561 109.496C280.565 109.86 280.561 110.24 280.497 110.604C280.485 110.672 280.473 110.736 280.449 110.8C280.449 110.804 280.373 110.904 280.381 110.932C280.365 110.868 280.609 110.848 280.561 110.848C280.605 110.848 280.705 110.924 280.733 110.92C280.741 110.952 280.741 110.948 280.729 110.908C280.717 110.876 280.709 110.84 280.701 110.808C280.653 110.624 280.701 110.916 280.677 110.668C280.657 110.472 280.641 110.276 280.629 110.08C280.605 109.652 280.601 109.224 280.617 108.8C280.645 107.996 280.753 107.204 280.933 106.42L279.929 106.684C280.945 107.816 281.237 109.564 280.617 110.944C280.981 110.992 281.349 111.04 281.713 111.088C281.117 109.596 280.881 108.012 281.021 106.408C281.049 106.084 280.725 105.808 280.421 105.808C280.073 105.808 279.849 106.084 279.821 106.408L279.825 106.404Z" fill="black"/>
<path d="M245.416 103.876C244.568 105.664 244.712 107.868 245.896 109.48C246.168 109.852 246.664 109.876 246.932 109.48C247.948 107.976 248.304 106.08 247.944 104.304C247.856 103.884 247.636 103.488 247.276 103.24C246.88 102.968 246.36 103.012 246.048 103.388C245.768 103.724 245.768 104.248 245.708 104.664C245.64 105.156 245.58 105.648 245.556 106.144C245.504 107.216 245.648 108.276 246.108 109.252C246.348 109.756 247.048 109.552 247.204 109.108C247.732 107.612 247.796 105.98 247.412 104.444C247.296 103.968 246.54 103.828 246.316 104.3C245.768 105.464 245.648 106.78 246.04 108.012C246.276 108.744 247.432 108.432 247.196 107.692C246.904 106.776 246.936 105.78 247.348 104.904C246.984 104.856 246.616 104.808 246.252 104.76C246.584 106.1 246.5 107.484 246.044 108.784L247.14 108.64C246.76 107.832 246.708 106.92 246.756 106.044C246.78 105.624 246.828 105.204 246.888 104.788C246.896 104.728 247.016 104.096 247 104.088C246.976 104.124 246.944 104.148 246.904 104.168C246.84 104.244 246.756 104.268 246.652 104.244C246.576 104.264 246.604 104.184 246.636 104.252C246.72 104.432 246.748 104.452 246.788 104.66C246.828 104.868 246.856 105.08 246.868 105.292C246.892 105.68 246.884 106.076 246.828 106.464C246.704 107.328 246.376 108.144 245.892 108.868H246.928C246.008 107.616 245.772 105.9 246.448 104.476C246.588 104.184 246.528 103.828 246.232 103.656C245.972 103.504 245.552 103.576 245.412 103.872L245.416 103.876Z" fill="black"/>
<path d="M267.2 106.196C267.14 111.212 270.008 116.176 274.624 118.284C279.24 120.392 284.716 119.652 288.364 116.108C290.312 114.216 291.568 111.728 291.92 109.04L291.32 109.64C293.896 109.632 296.468 109.6 299.044 109.548C299.816 109.532 299.816 108.332 299.044 108.348C296.468 108.4 293.896 108.428 291.32 108.44C290.964 108.44 290.764 108.716 290.72 109.04C290.156 113.34 286.748 117.004 282.552 117.988C278.024 119.052 273.152 117.132 270.544 113.296C269.124 111.208 268.368 108.728 268.396 106.2C268.404 105.428 267.204 105.428 267.196 106.2L267.2 106.196Z" fill="black"/>
<path d="M257.556 105.2C257.516 109.316 254.86 113.284 250.952 114.692C246.832 116.172 242.088 114.92 239.392 111.432C237.976 109.596 237.188 107.316 237.208 104.996C237.208 104.564 236.824 104.364 236.448 104.416C234.228 104.728 232.012 105.04 229.792 105.352C229.032 105.46 229.356 106.616 230.112 106.508C232.332 106.196 234.548 105.884 236.768 105.572C236.516 105.38 236.26 105.188 236.008 104.992C235.968 109.7 238.952 114.152 243.376 115.8C247.892 117.484 253.2 116.092 256.2 112.3C257.8 110.276 258.728 107.784 258.756 105.196C258.764 104.424 257.564 104.424 257.556 105.196V105.2Z" fill="black"/>
<path d="M258.988 109.14C259.776 107.704 261.276 106.688 262.932 106.62C263.784 106.588 264.64 106.776 265.392 107.18C266.26 107.644 266.768 108.392 267.492 109.02C268.072 109.524 268.924 108.68 268.34 108.172C267.888 107.78 267.54 107.292 267.088 106.9C266.716 106.58 266.308 106.296 265.868 106.076C264.92 105.604 263.848 105.356 262.788 105.428C260.768 105.568 258.928 106.764 257.956 108.532C257.584 109.208 258.62 109.816 258.992 109.136L258.988 109.14Z" fill="black"/>
<path d="M262.465 101.056C260.645 106.596 260.741 112.708 262.753 118.184C262.861 118.476 263.161 118.712 263.493 118.604C263.853 118.484 264.137 118.28 264.297 117.932C264.621 117.236 263.585 116.624 263.261 117.328C263.261 117.404 263.233 117.444 263.173 117.448C263.421 117.588 263.665 117.728 263.913 117.868C261.969 112.572 261.865 106.736 263.625 101.376C263.865 100.64 262.709 100.324 262.469 101.056H262.465Z" fill="black"/>
<path d="M255.213 126.3C261.981 127.972 269.149 127.792 275.821 125.768C276.557 125.544 276.245 124.388 275.501 124.612C269.029 126.572 262.097 126.764 255.533 125.144C254.785 124.96 254.465 126.116 255.213 126.3Z" fill="black"/>
<path d="M299.357 128.388C302.029 129.576 305.113 129.636 307.825 128.516C310.497 127.408 312.517 125.216 313.549 122.532C314.125 121.028 314.349 119.384 314.185 117.784C314.109 117.024 312.905 117.016 312.985 117.784C313.313 120.988 311.961 124.304 309.377 126.272C306.737 128.28 302.993 128.7 299.965 127.356C299.265 127.044 298.653 128.08 299.361 128.392L299.357 128.388Z" fill="black"/>
<path d="M229.585 99.3081C236.761 97.8921 243.741 95.56 250.345 92.412C256.949 89.268 263.149 85.3 268.785 80.644C271.957 78.02 274.941 75.168 277.709 72.12C278.229 71.548 277.381 70.7 276.861 71.272C271.997 76.632 266.461 81.3681 260.417 85.3521C254.377 89.3361 247.849 92.58 241.017 94.96C237.181 96.3 233.249 97.364 229.265 98.148C228.509 98.296 228.829 99.456 229.585 99.304V99.3081Z" fill="black"/>
<path d="M274.796 74.1882C275.5 81.0762 277.748 87.8322 281.616 93.6002C285.356 99.1802 290.6 103.724 296.76 106.436C300.204 107.956 303.868 108.892 307.628 109.144C308.4 109.196 308.396 107.996 307.628 107.944C301.232 107.512 295.048 104.956 290.032 100.988C284.852 96.8882 280.964 91.3282 278.608 85.1762C277.256 81.6482 276.38 77.9402 275.996 74.1802C275.92 73.4202 274.716 73.4122 274.796 74.1802V74.1882Z" fill="black"/>
<path d="M298.008 106.448C300.692 112.46 306.224 116.932 312.676 118.272C314.62 118.676 316.608 118.804 318.588 118.648C319.352 118.588 319.36 117.388 318.588 117.448C312.124 117.96 305.772 115.256 301.696 110.208C300.624 108.88 299.74 107.4 299.044 105.844C298.728 105.14 297.696 105.748 298.008 106.448Z" fill="black"/>
<path d="M232.429 97.8641C228.873 103.94 228.049 111.352 229.649 118.16C231.221 124.844 235.037 130.936 240.005 135.628C242.621 138.1 245.617 139.988 249.009 141.192C252.309 142.364 255.801 142.912 259.277 143.228C263.025 143.568 266.833 143.764 270.597 143.648C274.313 143.536 277.977 142.948 281.453 141.604C287.853 139.132 293.281 134.72 298.145 129.972C298.757 129.376 299.357 128.772 299.957 128.164C300.497 127.612 299.649 126.764 299.109 127.316C294.497 132.008 289.489 136.504 283.525 139.404C280.429 140.912 277.109 141.888 273.681 142.248C269.921 142.644 266.109 142.464 262.345 142.248C255.601 141.86 248.565 140.872 243.045 136.656C240.345 134.596 237.985 131.992 236.029 129.224C234.129 126.532 232.585 123.58 231.549 120.448C229.437 114.068 229.497 106.88 232.301 100.708C232.649 99.9401 233.041 99.1921 233.469 98.4641C233.861 97.7961 232.825 97.1921 232.433 97.8601L232.429 97.8641Z" fill="black"/>
<path d="M229.797 108.568C227.873 107.808 225.721 108.7 224.209 109.932C222.881 111.016 221.913 112.544 221.421 114.184C220.929 115.824 220.925 117.664 221.565 119.276C222.337 121.216 223.893 122.928 225.825 123.748C227.945 124.648 230.433 124.476 232.413 123.304C233.077 122.912 232.473 121.872 231.809 122.268C230.305 123.156 228.481 123.364 226.813 122.84C225.065 122.292 223.645 120.876 222.857 119.248C221.585 116.62 222.465 113.336 224.465 111.324C225.725 110.056 227.697 109.02 229.481 109.724C230.201 110.008 230.509 108.848 229.801 108.568H229.797Z" fill="black"/>
<path d="M302.724 119.868C305.108 119.152 307.632 119.144 310.016 119.852C310.756 120.072 311.076 118.916 310.336 118.696C307.756 117.928 304.984 117.936 302.404 118.712C301.668 118.936 301.98 120.092 302.724 119.868Z" fill="black"/>
<path d="M275.489 142.2C275.413 148.476 278.597 154.436 283.861 157.852C285.277 158.772 286.829 159.484 288.441 159.984C289.181 160.212 289.497 159.056 288.761 158.828C283.269 157.124 278.925 152.708 277.349 147.172C276.889 145.552 276.673 143.884 276.693 142.2C276.701 141.428 275.501 141.428 275.493 142.2H275.489Z" fill="black"/>
<path d="M243.268 154.82C243.076 158.724 246.532 161.944 249.348 164.16C252.348 166.516 255.784 168.288 259.448 169.356C266.72 171.476 274.552 170.604 281.224 167.032C284.92 165.052 288.16 162.296 290.704 158.964C291.172 158.352 290.132 157.752 289.668 158.36C285.4 163.948 278.948 167.764 272.032 168.952C264.932 170.172 257.476 168.372 251.56 164.312C249.888 163.164 248.332 161.828 246.964 160.328C245.596 158.828 244.368 156.956 244.472 154.828C244.508 154.056 243.308 154.06 243.272 154.828L243.268 154.82Z" fill="black"/>
<path d="M307.857 198.308C312.041 201.116 316.193 204.012 319.861 207.488C323.321 210.768 326.201 214.556 328.325 218.824C332.537 227.28 333.597 236.996 331.401 246.168C330.185 251.248 328.153 256.088 325.841 260.756C323.637 265.2 321.157 269.544 318.001 273.388C312.625 279.944 305.621 285.08 297.853 288.448C290.117 291.8 281.581 293.356 273.165 292.78C272.117 292.708 271.073 292.6 270.033 292.464C269.709 292.42 269.437 292.772 269.433 293.064C269.433 293.424 269.713 293.62 270.033 293.664C278.661 294.8 287.537 293.656 295.673 290.612C303.765 287.584 311.193 282.712 317.037 276.332C320.317 272.752 323.001 268.7 325.297 264.432C327.805 259.768 330.053 254.904 331.633 249.844C333.137 245.032 333.941 240.012 333.713 234.964C333.501 230.272 332.489 225.616 330.729 221.26C328.957 216.88 326.465 212.82 323.309 209.3C319.873 205.468 315.765 202.304 311.553 199.376C310.529 198.664 309.501 197.968 308.465 197.272C307.821 196.84 307.221 197.88 307.861 198.308H307.857Z" fill="black"/>
<path d="M270.088 293.7C274.404 299.636 277.741 306.26 279.913 313.272C280.533 315.272 281.056 317.3 281.488 319.348C281.648 320.104 282.805 319.784 282.645 319.028C281.109 311.752 278.373 304.732 274.577 298.336C273.509 296.536 272.353 294.788 271.121 293.096C270.673 292.476 269.629 293.076 270.085 293.7H270.088Z" fill="black"/>
<path d="M279.66 294.168C283.628 299.484 286.768 305.404 288.908 311.68C289.52 313.476 290.052 315.296 290.5 317.14C290.684 317.888 291.84 317.572 291.656 316.82C290.06 310.312 287.448 304.048 283.936 298.34C282.928 296.7 281.844 295.108 280.692 293.564C280.236 292.952 279.192 293.548 279.656 294.168H279.66Z" fill="black"/>
<path d="M299.637 287.764C301.125 275.496 302.613 263.228 304.101 250.96C304.469 247.928 304.837 244.892 305.205 241.86C305.353 240.648 305.869 238.932 304.753 238.016C304.337 237.676 303.809 237.532 303.293 237.424C302.529 237.26 301.757 237.108 300.989 236.956C295.037 235.772 289.049 234.76 283.037 233.924C276.325 232.992 269.585 232.272 262.829 231.768C262.505 231.744 262.229 232.064 262.229 232.368C262.225 235.112 262.033 237.856 261.645 240.572C261.561 241.152 262.169 241.584 262.649 241.156C262.841 240.98 263.037 240.808 263.229 240.632C263.805 240.116 262.953 239.268 262.381 239.784C262.189 239.96 261.993 240.132 261.801 240.308L262.805 240.892C263.213 238.068 263.429 235.224 263.433 232.368L262.833 232.968C274.625 233.844 286.365 235.384 297.981 237.588C299.457 237.868 300.929 238.16 302.397 238.46C302.885 238.56 303.625 238.6 304.009 238.952C304.461 239.36 304.197 240.252 304.137 240.772L303.045 249.776C302.325 255.712 301.605 261.648 300.885 267.584C300.069 274.312 299.253 281.04 298.437 287.768C298.345 288.532 299.545 288.528 299.637 287.768V287.764Z" fill="black"/>
<path d="M225.965 244.132C232.749 243.576 239.533 243.036 246.321 242.516C253.109 241.996 259.893 241.492 266.685 241.004C270.525 240.728 274.369 240.46 278.209 240.196L277.609 239.596C278.233 246.412 278.857 253.228 279.477 260.04C280.097 266.852 280.725 273.672 281.345 280.484C281.697 284.32 282.045 288.16 282.397 291.996C282.465 292.76 283.669 292.768 283.597 291.996C282.973 285.18 282.349 278.364 281.729 271.552C281.109 264.74 280.481 257.92 279.861 251.108C279.509 247.272 279.161 243.432 278.809 239.596C278.781 239.292 278.557 238.972 278.209 238.996C271.417 239.464 264.629 239.948 257.841 240.448C251.053 240.948 244.265 241.468 237.481 242.004C233.641 242.308 229.801 242.616 225.965 242.932C225.201 242.996 225.193 244.196 225.965 244.132Z" fill="black"/>
<path d="M226.84 250.992C227.228 261.348 227.968 271.688 229.064 281.988C229.372 284.876 229.708 287.76 230.068 290.64C230.164 291.396 231.364 291.404 231.268 290.64C229.976 280.36 229.036 270.036 228.448 259.692C228.284 256.792 228.148 253.892 228.04 250.992C228.012 250.224 226.812 250.22 226.84 250.992Z" fill="black"/>
<path d="M242.012 282.648C241.292 283.584 241.208 284.864 241.552 285.964C241.932 287.176 242.804 288.128 243.78 288.9C244.912 289.792 246.14 290.564 247.332 291.376C248.628 292.26 249.928 293.144 251.224 294.028C251.864 294.464 252.464 293.424 251.828 292.992C249.604 291.476 247.352 289.996 245.156 288.44C243.616 287.348 241.532 285.212 243.04 283.252C243.24 282.992 243.076 282.584 242.824 282.432C242.516 282.248 242.2 282.392 242.004 282.648H242.012Z" fill="black"/>
<path d="M226.724 291.128C225.372 290.908 224.144 292.044 224.224 293.42C224.312 294.936 225.572 295.94 226.9 296.428C228.504 297.016 230.272 297.292 231.936 297.66C233.652 298.036 235.368 298.392 237.092 298.728C239.072 299.112 241.056 299.468 243.044 299.8C243.8 299.924 244.124 298.768 243.364 298.644C239.644 298.028 235.94 297.316 232.256 296.504C231.368 296.308 230.48 296.108 229.592 295.9C228.704 295.692 227.784 295.54 226.96 295.172C226.3 294.876 225.636 294.376 225.456 293.636C225.32 293.076 225.684 292.172 226.404 292.288C227.16 292.412 227.484 291.252 226.724 291.132V291.128Z" fill="black"/>
<path d="M225.24 295.612C223.804 295.976 222.728 297.324 222.848 298.828C222.976 300.448 224.172 301.412 225.628 301.892C227.388 302.476 229.236 302.864 231.044 303.264C232.896 303.676 234.761 304.032 236.633 304.34C238.749 304.684 240.877 304.964 243.009 305.18C243.777 305.256 243.773 304.056 243.009 303.98C239.765 303.652 236.54 303.172 233.344 302.528C231.736 302.204 230.136 301.844 228.544 301.444C227.796 301.256 227.049 301.068 226.309 300.852C225.713 300.676 225.084 300.468 224.628 300.032C223.496 298.952 224.109 297.14 225.557 296.772C226.305 296.584 225.989 295.424 225.237 295.616L225.24 295.612Z" fill="black"/>
<path d="M224.74 301.536C223.384 302.352 223.344 304.14 224.12 305.372C224.984 306.744 226.524 307.76 227.932 308.5C231.236 310.232 234.992 310.668 238.668 310.828C240.912 310.924 243.16 310.968 245.404 311.036C246.176 311.06 246.176 309.86 245.404 309.836C241.948 309.736 238.452 309.776 235.016 309.344C231.972 308.96 228.82 308.064 226.416 306.08C225.824 305.592 225.184 305.024 224.904 304.288C224.68 303.696 224.752 302.924 225.34 302.572C226 302.176 225.4 301.136 224.736 301.536H224.74Z" fill="black"/>
<path d="M229.812 309.04C229.196 309.144 228.76 309.676 228.632 310.268C228.484 310.948 228.728 311.604 229.208 312.092C229.752 312.648 230.516 312.952 231.212 313.264C232.06 313.64 232.92 313.992 233.792 314.312C237.204 315.568 240.764 316.38 244.356 316.924C251.96 318.076 259.752 318.312 267.432 318.096C271.916 317.968 276.392 317.644 280.844 317.124C281.604 317.036 281.612 315.836 280.844 315.924C273.508 316.776 266.112 317.104 258.728 316.896C251.788 316.7 244.728 316.212 238 314.388C236.192 313.9 234.412 313.308 232.68 312.596C231.884 312.268 230.956 311.956 230.264 311.428C229.952 311.188 229.428 310.316 230.132 310.196C230.892 310.068 230.568 308.912 229.812 309.04Z" fill="black"/>
<path d="M224.109 192.332C225.177 196.136 225.133 200.184 225.197 204.104C225.261 208.024 225.221 211.984 225.081 215.924C224.793 223.812 224.093 231.692 222.973 239.504C221.857 247.304 220.329 255.048 218.405 262.688C216.481 270.328 214.149 277.868 211.429 285.264C211.109 286.136 210.705 287.012 210.597 287.944C210.489 288.876 210.821 289.712 211.293 290.512C212.165 291.988 213.157 293.392 214.225 294.728C216.373 297.412 218.897 299.78 221.697 301.772C222.385 302.264 223.093 302.728 223.813 303.168C224.473 303.572 225.077 302.536 224.417 302.132C221.497 300.34 218.845 298.144 216.541 295.604C215.397 294.344 214.345 293.004 213.393 291.592C212.901 290.864 212.381 290.116 212.005 289.324C211.561 288.384 211.881 287.472 212.221 286.556C214.925 279.26 217.277 271.848 219.225 264.312C221.181 256.748 222.741 249.084 223.901 241.36C225.053 233.684 225.821 225.952 226.181 218.2C226.361 214.3 226.441 210.392 226.421 206.488C226.401 202.584 226.441 198.672 225.865 194.84C225.721 193.884 225.525 192.94 225.265 192.012C225.057 191.268 223.897 191.584 224.109 192.332Z" fill="black"/>
<path d="M93.0081 251.736C85.1001 256.108 76.2081 258.136 67.3881 259.724C65.1681 260.124 62.9401 260.496 60.7161 260.872C58.8001 261.196 56.3881 261.432 55.4601 263.436C55.0721 264.276 55.1001 265.24 55.6441 266.004C56.1881 266.768 57.0161 267.164 57.8521 267.456C60.0201 268.212 62.3681 268.38 64.6441 268.468C67.2681 268.572 69.9041 268.564 72.4801 269.128C74.9641 269.672 77.3241 270.636 79.4921 271.964C80.1521 272.368 80.7561 271.332 80.0961 270.928C78.2521 269.792 76.2521 268.908 74.1681 268.312C72.0841 267.72 69.9441 267.472 67.7841 267.372C65.5441 267.272 63.2801 267.304 61.0561 266.972C59.9961 266.812 58.9041 266.596 57.9041 266.196C57.2041 265.916 56.3521 265.404 56.3841 264.544C56.4521 262.428 59.6241 262.26 61.1201 262.004C63.2561 261.64 65.3961 261.284 67.5321 260.9C71.7961 260.136 76.0441 259.28 80.2161 258.108C84.8561 256.804 89.3921 255.096 93.6161 252.764C94.2921 252.392 93.6881 251.352 93.0121 251.728L93.0081 251.736Z" fill="black"/>
<path d="M69.6681 268.356C62.7202 270.84 55.8041 273.784 49.8921 278.288C48.4481 279.388 46.5961 280.608 46.1481 282.484C45.9681 283.236 47.1241 283.556 47.3041 282.804C47.6681 281.272 49.3161 280.224 50.4961 279.328C51.9081 278.252 53.3841 277.264 54.9001 276.348C57.9321 274.52 61.1362 272.988 64.4081 271.644C66.2481 270.888 68.1122 270.188 69.9841 269.516C70.7041 269.256 70.3961 268.096 69.6641 268.36L69.6681 268.356Z" fill="black"/>
<path d="M72.3043 271.344C65.4363 275.144 58.7323 279.232 52.2083 283.6C51.5683 284.028 52.1683 285.068 52.8123 284.636C59.3323 280.268 66.0403 276.176 72.9083 272.38C73.5843 272.008 72.9803 270.968 72.3043 271.344Z" fill="black"/>
<path d="M72.1562 277.644C68.7362 279.316 65.4322 281.224 62.2762 283.36C60.7322 284.404 59.2282 285.504 57.7562 286.652C56.2842 287.8 54.7642 288.912 53.8082 290.508C53.4122 291.172 54.4482 291.776 54.8442 291.112C55.7682 289.568 57.3522 288.468 58.7482 287.388C60.1442 286.308 61.6682 285.208 63.1842 284.192C66.2482 282.14 69.4482 280.3 72.7642 278.68C73.4562 278.34 72.8521 277.304 72.1602 277.644H72.1562Z" fill="black"/>
<path d="M77.112 281.956C71.868 285.304 67.136 289.428 63.116 294.176C62.62 294.764 63.464 295.616 63.964 295.024C67.92 290.352 72.556 286.288 77.716 282.992C78.364 282.576 77.764 281.54 77.112 281.956Z" fill="black"/>
<path d="M88.7363 249.044C88.2083 258.908 91.8483 268.392 96.6763 276.82C98.0723 279.256 99.5763 281.628 101.148 283.956C101.576 284.592 102.616 283.992 102.184 283.352C96.8203 275.4 91.9923 266.696 90.3923 257.12C89.9483 254.452 89.7923 251.744 89.9363 249.044C89.9763 248.272 88.7763 248.276 88.7363 249.044Z" fill="black"/>
<path d="M93.3559 250.82C94.5639 259.728 98.6319 268.184 104.728 274.776C106.452 276.64 108.344 278.34 110.368 279.876C110.984 280.344 111.58 279.3 110.972 278.84C104.004 273.552 98.7719 266.024 96.1279 257.696C95.3839 255.348 94.8439 252.944 94.5119 250.504C94.4679 250.18 94.0559 250.012 93.7719 250.084C93.4239 250.176 93.3079 250.504 93.3519 250.824L93.3559 250.82Z" fill="black"/>
<path d="M315.024 305.948C316.588 313.304 318.152 320.664 319.716 328.02C321.28 335.376 322.74 342.636 324.596 349.864C326.424 356.992 328.784 363.956 331.16 370.916C333.556 377.932 335.836 384.98 337.98 392.076C340.132 399.192 342.18 406.34 344.216 413.492C344.476 414.4 344.732 415.304 344.992 416.212C345.204 416.952 346.36 416.64 346.148 415.892C344.112 408.74 342.08 401.588 339.952 394.464C337.82 387.316 335.58 380.2 333.184 373.136C330.824 366.18 328.376 359.248 326.444 352.156C324.496 345.008 323.008 337.744 321.468 330.5C319.904 323.144 318.34 315.784 316.776 308.428L316.18 305.628C316.02 304.872 314.864 305.192 315.024 305.948Z" fill="black"/>
<path d="M219.124 300.208C218.232 315.7 217.34 331.192 216.448 346.684C215.56 362.096 214.672 377.508 213.788 392.924C213.288 401.62 212.788 410.312 212.288 419.008C212.244 419.78 213.444 419.776 213.488 419.008C214.38 403.516 215.272 388.024 216.164 372.532C217.052 357.12 217.94 341.708 218.824 326.292C219.324 317.596 219.824 308.904 220.324 300.208C220.368 299.436 219.168 299.44 219.124 300.208Z" fill="black"/>
<path d="M217.029 337.596C220.205 336.42 222.109 333.44 223.609 330.564C225.353 327.228 226.649 323.652 227.437 319.968C227.889 317.864 228.173 315.728 228.301 313.58C228.349 312.808 227.145 312.812 227.101 313.58C226.889 317.12 226.217 320.616 225.101 323.98C224.037 327.2 222.609 330.472 220.601 333.228C219.601 334.596 218.325 335.836 216.709 336.436C215.993 336.704 216.301 337.864 217.029 337.592V337.596Z" fill="black"/>
<path d="M305.081 311.808C305.237 315.872 307.253 319.516 309.845 322.548C312.653 325.836 316.061 328.624 319.253 331.524C321.185 333.28 323.117 335.036 325.049 336.792C325.621 337.312 326.469 336.464 325.897 335.944C322.597 332.944 319.297 329.948 315.997 326.948C313.045 324.264 310.021 321.512 308.085 317.968C307.049 316.068 306.361 313.976 306.277 311.804C306.249 311.036 305.049 311.032 305.077 311.804L305.081 311.808Z" fill="black"/>
<path d="M267.868 347.052C267.868 346.36 268.516 346 269.136 345.904C269.892 345.788 270.56 346.056 271.06 346.624C271.72 347.38 271.976 348.424 272.152 349.388C272.368 350.568 272.504 351.764 272.676 352.952C273.428 358.04 274.304 363.112 275.308 368.156C277.328 378.308 279.852 388.36 282.872 398.26C284.576 403.848 286.44 409.388 288.46 414.868C288.724 415.588 289.884 415.276 289.616 414.548C285.844 404.296 282.612 393.848 279.94 383.256C277.276 372.696 275.168 361.996 273.628 351.216C273.324 349.092 273.124 346.004 270.852 344.968C269.224 344.228 266.672 344.976 266.668 347.048C266.668 347.82 267.864 347.82 267.868 347.048V347.052Z" fill="black"/>
<path d="M277.617 60.2121C267.361 57.6001 256.329 58.5041 246.661 62.8121C237.805 66.7561 230.433 73.4121 225.365 81.6481C223.917 84.0001 222.621 86.4401 221.353 88.8921C220.085 91.3441 218.937 93.6681 217.873 96.1281C216.809 98.5881 215.881 101.052 215.173 103.612C214.465 106.172 214.073 108.748 213.825 111.384C213.701 112.72 213.349 113.828 212.521 114.896C211.777 115.856 210.981 116.764 210.313 117.784C209.005 119.78 208.025 122.012 207.433 124.328C206.273 128.884 206.681 133.728 208.777 137.952C210.725 141.88 214.041 145.128 218.121 146.788C222.325 148.496 227.213 148.384 231.349 146.544C232.381 146.084 233.353 145.508 234.257 144.828L233.529 144.736C237.865 149.82 244.025 154.004 251.001 153.348C252.925 153.168 254.785 152.624 256.473 151.676C257.145 151.296 256.541 150.26 255.869 150.64C253.069 152.212 249.729 152.544 246.605 151.912C243.497 151.284 240.649 149.724 238.221 147.712C236.825 146.556 235.557 145.26 234.381 143.884C234.225 143.704 233.853 143.64 233.653 143.792C230.101 146.464 225.425 147.388 221.093 146.452C216.889 145.544 213.269 142.872 210.925 139.292C208.581 135.712 207.517 131.048 208.185 126.644C208.533 124.352 209.265 122.128 210.349 120.08C210.897 119.044 211.529 118.052 212.245 117.124C212.977 116.176 213.861 115.304 214.373 114.204C214.885 113.104 214.977 111.892 215.081 110.692C215.193 109.396 215.377 108.108 215.633 106.832C216.137 104.316 216.893 101.856 217.801 99.4601C219.649 94.5761 222.081 89.8761 224.613 85.3161C227.013 80.9961 229.789 76.9481 233.293 73.4481C236.517 70.2241 240.213 67.4881 244.229 65.3361C253.137 60.5681 263.605 58.8881 273.565 60.5801C274.817 60.7921 276.061 61.0601 277.293 61.3721C278.041 61.5641 278.361 60.4041 277.613 60.2161L277.617 60.2121Z" fill="black"/>
<path d="M282.22 154.58C287.888 153.856 293.24 151.592 297.7 148.02H296.852C301.328 152.76 308.756 153.348 314.62 151.164C320.712 148.896 325.72 143.684 326.3 137.02C326.616 133.412 325.584 129.724 323.22 126.952C322.72 126.364 321.872 127.216 322.372 127.8C326.356 132.472 325.824 139.592 322.208 144.292C318.572 149.012 312.368 151.604 306.464 151.128C303.184 150.864 299.98 149.588 297.7 147.172C297.46 146.916 297.1 146.976 296.852 147.172C292.668 150.524 287.54 152.704 282.22 153.38C281.464 153.476 281.456 154.676 282.22 154.58Z" fill="black"/>
<mask id="mask1_4709_44145" style="mask-type:luminance" maskUnits="userSpaceOnUse" x="41" y="40" width="136" height="129">
<path d="M43.1802 167.396C87.1162 166.5 131.328 170.852 174.908 166.972C175.308 149.032 175.704 131.088 176.104 113.148C176.232 107.404 176.36 101.664 176.488 95.92C176.888 77.904 177.284 59.852 175.1 41.896C161.688 41.988 148.276 42.076 134.86 42.168C103.804 42.376 72.7002 42.584 41.7282 40.988C41.7282 40.988 39.3882 159.624 43.1802 167.396Z" fill="white"/>
</mask>
<g mask="url(#mask1_4709_44145)">
<path d="M43.1802 167.396C87.1162 166.5 131.328 170.852 174.908 166.972C175.308 149.032 175.704 131.088 176.104 113.148C176.232 107.404 176.36 101.664 176.488 95.92C176.888 77.904 177.284 59.852 175.1 41.896C161.688 41.988 148.276 42.076 134.86 42.168C103.804 42.376 72.7002 42.584 41.7282 40.988C41.7282 40.988 39.3882 159.624 43.1802 167.396Z" fill="#BCDDFD"/>
<path d="M74.5365 50.1321C65.5965 57.8801 57.4645 66.5001 49.3485 75.1081C48.4245 76.0881 47.4805 77.0961 46.9765 78.3441C46.4725 79.5921 46.4925 81.1481 47.3845 82.1561C53.3885 82.4881 59.3645 83.3281 65.2285 84.6601C66.2685 90.0721 67.3125 95.4841 68.3525 100.896C75.3765 104.304 83.6285 105.108 91.1765 103.128C98.7285 101.148 105.52 96.3961 109.972 89.9841C110.272 89.5521 110.565 89.1001 110.665 88.5881C110.781 87.9921 110.62 87.3801 110.46 86.7961C109.112 81.9241 107.48 77.1281 105.576 72.4441C107.865 69.2561 110.708 66.4681 113.949 64.2481C114.28 64.0201 114.633 63.7801 114.805 63.4161C114.965 63.0801 114.94 62.6881 114.912 62.3161C114.797 60.6961 114.681 59.0801 114.564 57.4601C106.541 55.7401 98.5165 54.0241 90.4965 52.3041C85.9405 51.3281 81.3485 50.3481 76.6885 50.2801L74.5405 50.1321H74.5365Z" fill="#4A92D3"/>
<path d="M61.4046 102.796C60.4966 102.204 59.1086 102.588 58.6326 103.564C58.1566 104.54 58.7166 105.868 59.7446 106.216C59.0646 107.648 58.7446 109.22 58.4326 110.772C58.0446 112.704 57.6526 114.64 57.2646 116.572C57.1886 116.956 57.1206 117.396 57.3646 117.704C57.5206 117.904 57.7726 117.996 58.0126 118.076C59.8526 118.676 61.8446 118.816 63.7486 118.472C62.6166 115.04 61.9646 111.452 61.8166 107.844C61.8046 107.576 61.7966 107.312 61.7886 107.044C61.7686 106.388 61.7486 105.728 61.7286 105.072" fill="#4A92D3"/>
<path d="M114.356 56.8361C106.6 64.2001 98.8483 71.5641 91.0923 78.9281C88.8763 81.0321 86.6603 83.1361 84.4443 85.2401C84.0243 85.6401 84.6603 86.2761 85.0803 85.8761C92.8363 78.5121 100.588 71.1481 108.344 63.7841C110.56 61.6801 112.776 59.5761 114.992 57.4721C115.412 57.0721 114.776 56.4361 114.356 56.8361Z" fill="black"/>
<path d="M46.5965 78.908C56.1965 81.28 65.8565 83.4 75.5645 85.264C78.3285 85.796 81.1005 86.304 83.8725 86.796C84.4405 86.896 84.6805 86.028 84.1125 85.928C74.3765 84.208 64.6845 82.236 55.0525 80.008C52.3085 79.372 49.5725 78.72 46.8365 78.044C46.2725 77.904 46.0325 78.772 46.5965 78.912V78.908Z" fill="black"/>
<path d="M83.6885 86.508C84.0485 87.908 84.3245 89.328 84.5085 90.764C84.5405 91.004 84.6925 91.212 84.9565 91.212C85.1765 91.212 85.4365 91.004 85.4045 90.764C85.2125 89.248 84.9325 87.748 84.5525 86.272C84.4085 85.712 83.5405 85.948 83.6845 86.512L83.6885 86.508Z" fill="black"/>
<path d="M85.6605 90.6761C92.2765 83.6801 99.4965 77.3041 106.836 71.0841C108.9 69.3361 110.976 67.5961 113.048 65.8601C113.492 65.4881 112.852 64.8521 112.412 65.2241C105.036 71.4041 97.6525 77.5881 90.7285 84.2801C88.7845 86.1601 86.8805 88.0761 85.0245 90.0401C84.6285 90.4601 85.2605 91.1001 85.6605 90.6761Z" fill="black"/>
<path d="M65.0725 86.3722C68.0365 87.6202 71.1525 88.4482 74.3405 88.8522C75.9565 89.0562 77.5805 89.1282 79.1765 89.4682C80.7725 89.8082 82.3285 90.3282 83.8085 91.0162C84.3285 91.2602 84.7885 90.4842 84.2645 90.2402C82.7965 89.5562 81.2645 89.0162 79.6845 88.6602C78.1005 88.3042 76.4965 88.1962 74.8925 88.0202C71.5965 87.6562 68.3685 86.7922 65.3125 85.5082C64.7805 85.2842 64.5485 86.1562 65.0725 86.3762V86.3722Z" fill="black"/>
<path d="M104.88 72.9642C106.188 78.4882 109.176 83.4562 110.316 89.0282C110.432 89.5962 111.3 89.3562 111.184 88.7882C110.048 83.2162 107.056 78.2482 105.748 72.7242C105.616 72.1602 104.748 72.4002 104.88 72.9642Z" fill="black"/>
<path d="M80.0285 63.6921C79.8365 63.3121 79.3245 63.3081 79.0125 63.5281C78.7605 63.7081 78.5885 63.9881 78.5005 64.2841C78.3405 64.8161 78.4685 65.4721 78.8965 65.8481C79.3245 66.2241 79.9445 66.2801 80.4685 66.0481C80.9925 65.8161 81.3085 65.2081 81.1645 64.6361C80.9965 63.9761 80.2845 63.4681 79.6085 63.6681C79.3845 63.7361 79.2165 63.9881 79.2925 64.2201C79.3685 64.4521 79.6045 64.6041 79.8445 64.5361C79.8645 64.5321 79.8845 64.5241 79.9045 64.5201C79.9725 64.5001 79.7965 64.5241 79.8685 64.5241C79.8885 64.5241 79.9085 64.5241 79.9285 64.5241C79.9485 64.5241 80.0365 64.5361 79.9485 64.5241C79.8605 64.5121 79.9485 64.5241 79.9685 64.5321C79.9885 64.5361 80.0085 64.5441 80.0285 64.5481C80.0965 64.5681 79.9325 64.5001 79.9965 64.5321C80.0165 64.5441 80.0405 64.5521 80.0605 64.5641C80.0805 64.5761 80.0965 64.5881 80.1125 64.5961C80.1165 64.5961 80.1365 64.6081 80.1365 64.6121C80.1365 64.6201 80.0525 64.5441 80.0885 64.5721C80.1245 64.6001 80.1565 64.6321 80.1885 64.6641C80.2005 64.6761 80.2245 64.6961 80.2285 64.7121C80.2285 64.7121 80.1605 64.6121 80.1965 64.6721C80.2005 64.6801 80.2085 64.6881 80.2125 64.7001C80.2365 64.7401 80.2565 64.7801 80.2805 64.8201C80.3125 64.8841 80.2445 64.7201 80.2685 64.7921C80.2765 64.8121 80.2805 64.8321 80.2885 64.8521C80.2965 64.8721 80.2965 64.8921 80.3045 64.9121C80.3205 64.9761 80.2965 64.7921 80.3045 64.8841C80.3045 64.9241 80.3045 64.9681 80.3045 65.0081C80.3045 65.0481 80.3045 64.9361 80.3125 64.9401C80.3125 64.9401 80.3045 64.9761 80.3045 64.9801C80.3005 65.0041 80.2925 65.0281 80.2845 65.0521L80.2725 65.0801C80.2725 65.0801 80.3165 64.9841 80.3005 65.0161C80.2925 65.0321 80.2845 65.0481 80.2725 65.0681C80.2605 65.0881 80.2525 65.1001 80.2445 65.1161C80.2005 65.1881 80.3085 65.0441 80.2645 65.0921C80.2405 65.1201 80.2165 65.1481 80.1885 65.1721C80.1845 65.1761 80.1445 65.2041 80.1445 65.2081C80.1445 65.2081 80.2285 65.1481 80.1965 65.1641C80.1845 65.1721 80.1725 65.1841 80.1565 65.1921C80.1245 65.2121 80.0925 65.2321 80.0565 65.2481C80.0485 65.2521 80.0405 65.2561 80.0325 65.2601C80.0005 65.2761 80.0965 65.2321 80.0965 65.2321C80.0965 65.2321 80.0405 65.2521 80.0325 65.2561C79.9965 65.2681 79.9605 65.2801 79.9205 65.2881C79.9005 65.2921 79.8845 65.2961 79.8645 65.3001C79.8285 65.3081 79.9365 65.2921 79.9365 65.2921C79.9325 65.2921 79.9045 65.2921 79.8965 65.2921C79.8565 65.2921 79.8125 65.2961 79.7725 65.2921C79.7525 65.2921 79.7325 65.2921 79.7165 65.2921C79.6765 65.2921 79.7925 65.3041 79.7885 65.3041C79.7805 65.3001 79.7605 65.3001 79.7525 65.2961C79.7165 65.2881 79.6765 65.2801 79.6405 65.2681C79.6365 65.2681 79.5885 65.2481 79.5885 65.2481C79.5885 65.2481 79.6845 65.2921 79.6525 65.2761C79.6405 65.2721 79.6285 65.2641 79.6165 65.2601C79.5805 65.2401 79.5445 65.2201 79.5085 65.1961C79.4525 65.1601 79.5925 65.2681 79.5365 65.2161C79.5205 65.2001 79.5005 65.1841 79.4845 65.1641C79.4685 65.1481 79.4565 65.1321 79.4405 65.1161C79.4365 65.1121 79.4245 65.1001 79.4205 65.0921C79.4205 65.0801 79.4845 65.1841 79.4605 65.1401C79.4405 65.1001 79.4125 65.0641 79.3925 65.0241C79.3845 65.0121 79.3645 64.9801 79.3645 64.9681C79.3645 64.9561 79.4045 65.0721 79.3885 65.0281C79.3885 65.0201 79.3805 65.0081 79.3765 65.0001C79.3605 64.9561 79.3485 64.9081 79.3365 64.8601C79.3365 64.8481 79.3205 64.8081 79.3245 64.8001C79.3285 64.7921 79.3365 64.9121 79.3325 64.8681C79.3325 64.8561 79.3325 64.8481 79.3325 64.8361C79.3325 64.7921 79.3285 64.7441 79.3325 64.7001C79.3325 64.6761 79.3325 64.6521 79.3365 64.6281C79.3365 64.5601 79.3165 64.7441 79.3365 64.6521C79.3485 64.6001 79.3565 64.5481 79.3725 64.5001C79.3805 64.4761 79.3885 64.4521 79.3965 64.4321C79.4085 64.3881 79.3725 64.5001 79.3725 64.4921C79.3725 64.4841 79.3845 64.4641 79.3885 64.4521C79.4085 64.4081 79.4365 64.3641 79.4605 64.3241C79.4645 64.3161 79.4725 64.3081 79.4805 64.3001C79.5045 64.2561 79.4125 64.3761 79.4485 64.3401C79.4645 64.3241 79.4805 64.3041 79.4965 64.2841C79.5125 64.2681 79.5765 64.2161 79.5085 64.2681C79.4405 64.3201 79.5245 64.2681 79.5405 64.2561C79.5725 64.2321 79.4805 64.2881 79.4805 64.2801L79.5165 64.2681C79.5325 64.2601 79.5765 64.2601 79.4925 64.2681C79.4085 64.2761 79.4605 64.2681 79.4765 64.2681C79.5245 64.2721 79.3845 64.2521 79.4005 64.2561C79.4565 64.2681 79.3405 64.2281 79.3405 64.2281C79.3565 64.2361 79.3845 64.2601 79.3205 64.2121C79.2965 64.2001 79.2765 64.1801 79.2605 64.1561C79.2325 64.1161 79.2285 64.1121 79.2445 64.1401C79.3525 64.3521 79.6645 64.4281 79.8605 64.3001C80.0765 64.1601 80.1365 63.9081 80.0205 63.6841L80.0285 63.6921Z" fill="black"/>
<path d="M79.0885 64.4922C74.1605 67.8962 69.4205 71.5722 64.9005 75.5042C63.7325 76.5202 62.5765 77.5562 61.4405 78.6082C60.9405 79.0722 60.4405 79.5362 59.9485 80.0042C59.7365 80.2042 59.3885 80.4282 59.2925 80.7162C59.1765 81.0762 59.3085 81.6522 59.3205 82.0322C59.4405 85.2202 59.5605 88.4082 59.6805 91.5962C59.8165 95.2482 59.9565 98.9002 60.0925 102.552C60.1125 103.128 61.0125 103.132 60.9925 102.552C60.7205 95.3122 60.4485 88.0762 60.1725 80.8362L60.0405 81.1562C64.7645 76.6402 69.7565 72.4122 75.0005 68.5162C76.4925 67.4082 78.0045 66.3242 79.5365 65.2682C80.0085 64.9402 79.5605 64.1602 79.0805 64.4922H79.0885Z" fill="black"/>
<path d="M60.6483 103.268C60.6763 103.268 60.7083 103.268 60.7363 103.272C60.6883 103.268 60.6923 103.272 60.7443 103.28C60.7843 103.296 60.8243 103.3 60.8643 103.32C60.7843 103.284 60.9283 103.364 60.9443 103.372C61.0203 103.416 60.9203 103.34 60.9883 103.408C61.0203 103.44 61.0523 103.468 61.0803 103.5C61.1003 103.52 61.1203 103.544 61.1403 103.568C61.1163 103.536 61.1203 103.54 61.1523 103.584C61.2123 103.676 61.2643 103.768 61.3123 103.864C61.3603 103.96 61.4283 104.208 61.4643 104.38C61.4723 104.436 61.4723 104.44 61.4643 104.396C61.4643 104.432 61.4723 104.464 61.4763 104.5C61.4803 104.552 61.4843 104.604 61.4843 104.66C61.4883 104.784 61.4843 104.908 61.4763 105.032C61.4643 105.176 61.3923 105.448 61.3243 105.584C61.2763 105.676 61.2243 105.756 61.1763 105.812C61.1363 105.856 61.0923 105.9 61.0443 105.936C61.1003 105.892 60.9883 105.968 60.9883 105.968C60.8443 106.052 60.6883 106.096 60.5283 106.092C60.3803 106.092 60.2843 106.048 60.1843 105.948C59.7763 105.536 59.1403 106.172 59.5483 106.584C60.3123 107.352 61.5923 106.952 62.0803 106.08C62.5683 105.208 62.4923 104.024 61.9843 103.2C61.6883 102.72 61.2283 102.388 60.6523 102.364C60.4083 102.356 60.2043 102.576 60.2043 102.812C60.2043 103.064 60.4123 103.252 60.6523 103.26L60.6483 103.268Z" fill="black"/>
<path d="M61.1845 106.756L62.7125 115.072L63.0845 117.104C63.1125 117.264 63.1445 117.428 63.1725 117.588C63.2125 117.812 63.2605 117.84 63.1325 117.964C62.9845 118.108 62.5005 118.156 62.3005 118.196C61.0085 118.468 59.6325 118.324 58.4205 117.804C57.8925 117.576 57.4365 118.352 57.9645 118.58C59.3085 119.156 60.7485 119.36 62.1965 119.128C62.7485 119.04 63.6605 118.928 63.9885 118.404C64.3165 117.88 63.9725 117.02 63.8765 116.484C63.2645 113.164 62.6565 109.844 62.0445 106.524C61.9405 105.956 61.0725 106.196 61.1765 106.764L61.1845 106.756Z" fill="black"/>
<path d="M142.092 130.172C134.364 133.468 126.632 136.764 118.904 140.06C122.452 140.34 126.012 140.416 129.568 140.288C128.04 143.092 126.844 146.08 126.016 149.164C132.32 145.2 138.628 141.236 144.932 137.268C146.548 143.284 148.16 149.3 149.776 155.316C150.904 153.24 151.8 151.036 152.436 148.764C155.196 151.708 158.372 154.26 161.844 156.316C159.604 148.124 157.028 140.024 154.132 132.04C154.02 131.732 153.9 131.408 153.656 131.188C153.392 130.948 153.032 130.864 152.684 130.788C150.94 130.408 149.196 130.024 147.452 129.644L142.092 130.168V130.172Z" fill="#3391FD"/>
<path d="M136.176 138.112C137.188 140.208 138.984 141.808 140.996 142.916C145.224 145.244 150.736 145.432 155.06 142.872C159.388 140.312 162.148 134.88 161.104 130.044C160.224 125.976 156.924 122.88 153.136 121.4C149.808 120.104 145.836 119.948 142.628 121.816C140.008 123.34 138.196 126.004 136.8 128.728C135.624 131.02 136.176 138.112 136.176 138.112Z" fill="#4A92D3"/>
<path d="M156.04 122.196C154.424 120.58 149.852 119.008 147.584 119.164C142.824 119.496 138.152 122.168 135.944 126.4C133.736 130.632 134.372 136.324 137.844 139.6C140.764 142.356 145.172 143.108 149.108 142.332C152.568 141.652 155.944 139.74 157.596 136.624C158.948 134.084 159.016 131.056 158.704 128.192C158.444 125.784 157.652 123.808 156.036 122.196H156.04Z" fill="#73B2E5"/>
<path d="M149.58 122.848C148.412 124.128 147.244 125.408 146.076 126.684C145.868 126.908 145.652 127.144 145.36 127.244C145.096 127.332 144.812 127.296 144.536 127.26C142.896 127.04 141.256 126.82 139.612 126.604C140.564 128.016 141.512 129.428 142.464 130.844C140.86 132.412 139.408 134.14 138.136 135.988C140.212 135.732 142.288 135.48 144.368 135.224C144.9 135.16 145.448 135.096 145.96 135.256C146.48 135.42 146.896 135.8 147.296 136.168C148.396 137.184 149.496 138.2 150.596 139.216C150.66 137.252 150.596 135.284 150.4 133.328C152.604 132.34 154.808 131.352 157.016 130.36C155.344 129.52 153.668 128.676 151.996 127.836C151.648 127.66 151.284 127.476 151.04 127.168C150.816 126.888 150.712 126.532 150.612 126.184C150.404 125.452 150.196 124.724 149.988 123.992L149.58 122.844V122.848Z" fill="#C1E0FE"/>
<path d="M118.856 140.588C122.204 140.552 125.552 140.52 128.9 140.484L128.512 139.808C127.24 142.812 126.192 145.896 125.38 149.052C125.288 149.416 125.7 149.784 126.04 149.56C130.204 146.832 134.368 144.104 138.536 141.376C139.02 141.06 138.568 140.28 138.08 140.6C133.916 143.328 129.752 146.056 125.584 148.784C125.804 148.952 126.024 149.124 126.244 149.292C127.036 146.212 128.048 143.192 129.288 140.264C129.416 139.964 129.276 139.584 128.9 139.588C125.552 139.624 122.204 139.656 118.856 139.692C118.276 139.696 118.276 140.596 118.856 140.592V140.588Z" fill="black"/>
<path d="M150.312 155.504C151.156 153.512 151.996 151.516 152.84 149.524L152.132 149.616C155.272 152.12 158.412 154.628 161.556 157.132C161.888 157.396 162.436 157.164 162.308 156.696C160.936 151.608 159.436 146.556 157.816 141.54C157.64 140.992 156.768 141.224 156.948 141.78C158.572 146.792 160.068 151.848 161.44 156.936L162.192 156.5C159.052 153.996 155.912 151.488 152.768 148.984C152.572 148.828 152.184 148.78 152.06 149.076C151.216 151.068 150.376 153.064 149.532 155.056C149.308 155.584 150.084 156.044 150.308 155.512L150.312 155.504Z" fill="black"/>
<path d="M154.133 121.424C158.309 124.836 159.985 131.056 157.465 135.944C156.277 138.248 154.325 140.12 151.981 141.224C149.169 142.548 146.025 142.38 143.069 141.648C139.813 140.844 136.489 138.892 135.757 135.364C135.641 134.796 134.773 135.036 134.889 135.604C135.557 138.812 138.293 140.988 141.249 142.044C144.333 143.144 147.997 143.596 151.145 142.524C153.801 141.62 156.105 139.788 157.633 137.444C159.221 135.008 159.825 132.076 159.433 129.204C158.989 125.948 157.321 122.872 154.769 120.788C154.325 120.424 153.685 121.056 154.133 121.424Z" fill="black"/>
<path d="M156.5 123.448C160.26 127.732 161.672 134.076 158.672 139.164C157.228 141.608 154.98 143.324 152.248 144.088C149.232 144.932 145.856 144.964 142.9 143.876C140.016 142.812 137.552 140.5 136.712 137.496C136.556 136.94 135.688 137.176 135.844 137.736C136.624 140.524 138.692 142.816 141.244 144.128C144.252 145.672 147.784 145.884 151.072 145.28C154.192 144.708 156.916 143.184 158.8 140.608C160.516 138.264 161.36 135.32 161.212 132.424C161.028 128.856 159.48 125.476 157.14 122.812C156.756 122.376 156.124 123.016 156.504 123.448H156.5Z" fill="black"/>
<path d="M149.04 122.784C148.476 123.516 147.916 124.248 147.352 124.984C147.072 125.352 146.788 125.716 146.508 126.084C146.252 126.42 146 126.88 145.572 127.008C145.184 127.124 144.676 127.052 144.28 127.048C143.828 127.04 143.372 127.024 142.92 126.996C141.988 126.94 141.064 126.844 140.14 126.704C139.688 126.636 139.404 127.092 139.704 127.456C140.608 128.56 141.58 129.604 142.616 130.58V129.944C141.016 131.812 139.42 133.68 137.82 135.544C137.596 135.804 137.716 136.36 138.14 136.312C139.304 136.18 140.468 136.048 141.636 135.916L143.384 135.72C143.676 135.688 143.968 135.656 144.256 135.62C144.504 135.592 144.888 135.476 145.128 135.52C145.352 135.564 145.564 135.792 145.74 135.932C145.96 136.104 146.176 136.276 146.392 136.452C146.824 136.804 147.248 137.164 147.668 137.528C148.528 138.284 149.356 139.072 150.156 139.888C150.5 140.236 150.972 139.864 150.908 139.452C150.612 137.504 150.488 135.536 150.524 133.568L150.3 133.956C152.492 132.868 154.68 131.78 156.872 130.692C157.156 130.552 157.176 130.052 156.872 129.916C155.316 129.22 153.74 128.56 152.204 127.832C151.516 127.504 151.372 126.516 151.128 125.848C150.832 125.04 150.536 124.232 150.24 123.428C150.044 122.888 149.172 123.12 149.372 123.668C149.7 124.564 150.028 125.46 150.36 126.36C150.604 127.02 150.776 127.948 151.368 128.392C151.708 128.648 152.14 128.788 152.528 128.96C152.94 129.144 153.352 129.328 153.768 129.512L156.42 130.696V129.92C154.228 131.008 152.04 132.096 149.848 133.184C149.708 133.256 149.628 133.42 149.624 133.572C149.588 135.624 149.732 137.668 150.04 139.696L150.792 139.26C149.968 138.42 149.116 137.612 148.232 136.84C147.768 136.432 147.292 136.036 146.808 135.648C146.6 135.48 146.392 135.316 146.18 135.152C145.98 135 145.724 134.732 145.492 134.644C145.26 134.556 144.976 134.644 144.736 134.672L143.764 134.78C143.148 134.848 142.536 134.92 141.92 134.988C140.66 135.132 139.396 135.272 138.136 135.416L138.456 136.184C140.056 134.316 141.652 132.448 143.252 130.584C143.408 130.404 143.44 130.124 143.252 129.948C142.212 128.968 141.244 127.928 140.34 126.824L139.904 127.576C140.936 127.732 141.976 127.848 143.02 127.904C143.536 127.932 144.056 127.948 144.572 127.952C145.028 127.952 145.524 127.984 145.96 127.832C146.76 127.552 147.276 126.548 147.764 125.912L149.812 123.244C150.164 122.784 149.384 122.336 149.036 122.788L149.04 122.784Z" fill="black"/>
<path d="M159.021 24.644C154.809 29.784 151.605 35.624 149.505 41.932C147.469 48.056 146.521 54.608 146.761 61.06C147.005 67.516 148.457 73.792 150.981 79.732C153.353 85.312 156.717 90.448 160.785 94.936C164.857 99.428 169.733 103.276 175.085 106.128C175.725 106.468 176.373 106.796 177.029 107.108C178.161 107.648 179.673 107.456 180.313 106.248C180.877 105.176 180.661 103.544 179.453 102.964C176.837 101.712 174.329 100.232 171.969 98.544C171.705 98.356 171.441 98.164 171.181 97.968C171.041 97.864 170.901 97.76 170.761 97.652C170.681 97.592 170.601 97.528 170.521 97.468C170.613 97.536 170.901 97.764 170.653 97.568C170.085 97.12 169.521 96.66 168.969 96.192C167.865 95.248 166.801 94.26 165.781 93.232C164.777 92.22 163.813 91.164 162.897 90.072C162.673 89.804 162.449 89.532 162.229 89.26C162.117 89.124 162.009 88.988 161.901 88.848C161.837 88.768 161.777 88.692 161.717 88.612C161.673 88.552 161.449 88.272 161.673 88.56C161.917 88.872 161.553 88.4 161.497 88.324C161.393 88.184 161.285 88.044 161.181 87.904C160.957 87.6 160.737 87.296 160.521 86.992C158.861 84.64 157.397 82.156 156.145 79.564C155.829 78.912 155.529 78.252 155.241 77.584C155.201 77.492 155.165 77.4 155.125 77.308C155.121 77.296 155.321 77.784 155.221 77.536C155.157 77.372 155.089 77.212 155.021 77.052C154.881 76.704 154.745 76.356 154.613 76.004C154.101 74.648 153.649 73.268 153.257 71.872C152.865 70.476 152.529 69.032 152.265 67.592C152.197 67.224 152.133 66.856 152.073 66.484C152.045 66.3 152.013 66.116 151.985 65.928C151.969 65.824 151.953 65.716 151.937 65.612C151.925 65.536 151.873 65.16 151.925 65.532C151.981 65.936 151.897 65.312 151.885 65.216C151.861 65.032 151.841 64.844 151.821 64.66C151.777 64.26 151.737 63.864 151.705 63.464C151.441 60.4 151.461 57.312 151.753 54.252C151.789 53.88 151.829 53.508 151.869 53.136C151.889 52.948 151.913 52.764 151.937 52.58C151.953 52.44 152.009 52.116 151.913 52.74C151.929 52.636 151.941 52.528 151.957 52.424C152.065 51.656 152.193 50.892 152.337 50.128C152.625 48.604 152.977 47.092 153.397 45.596C153.817 44.1 154.285 42.676 154.825 41.252C154.957 40.9 155.093 40.552 155.233 40.204C155.301 40.032 155.373 39.856 155.445 39.684C155.477 39.608 155.509 39.536 155.537 39.46C155.305 40.044 155.461 39.644 155.517 39.516C155.825 38.804 156.149 38.1 156.489 37.404C157.833 34.64 159.429 31.996 161.257 29.524C161.369 29.372 161.481 29.224 161.593 29.076C161.657 28.992 161.725 28.908 161.789 28.82C161.789 28.82 161.493 29.196 161.661 28.988C161.909 28.672 162.161 28.36 162.413 28.048C162.829 27.54 163.117 27.032 163.117 26.352C163.117 25.764 162.857 25.06 162.413 24.656C161.533 23.848 159.869 23.62 159.017 24.656L159.021 24.644Z" fill="white"/>
<path d="M33.7084 156.812C35.6364 152.732 37.9804 148.848 40.7164 145.26L40.8084 145.14C40.9644 144.936 40.9324 144.98 40.7124 145.264C40.7924 145.224 40.8884 145.036 40.9484 144.964C41.1204 144.744 41.2964 144.528 41.4724 144.308C41.8244 143.876 42.1804 143.444 42.5444 143.02C43.3004 142.136 44.0844 141.272 44.8924 140.432C46.4324 138.832 48.0604 137.32 49.7764 135.916C49.9724 135.756 50.1684 135.6 50.3644 135.44C50.4804 135.348 50.6004 135.252 50.7204 135.16C51.1444 134.824 50.2804 135.492 50.7124 135.168C51.1524 134.836 51.5964 134.504 52.0444 134.184C52.9404 133.544 53.8564 132.928 54.7924 132.348C56.7044 131.16 58.7004 130.096 60.7604 129.188C60.8524 129.148 60.9444 129.108 61.0364 129.068C61.2044 128.996 61.6404 128.908 61.0164 129.076C61.2524 129.012 61.4844 128.884 61.7124 128.792C62.2724 128.568 62.8364 128.356 63.4044 128.156C64.4284 127.796 65.4684 127.468 66.5164 127.188C67.5324 126.916 68.5564 126.684 69.5884 126.492C70.1044 126.396 70.6244 126.312 71.1444 126.236C71.3084 126.212 71.8204 126.172 71.0764 126.244C71.1724 126.236 71.2684 126.22 71.3604 126.208C71.6684 126.168 71.9804 126.136 72.2884 126.104C74.4124 125.888 76.5484 125.836 78.6804 125.944C79.7324 125.996 80.7804 126.096 81.8284 126.224C82.3524 126.288 81.2364 126.14 81.7604 126.216C81.8564 126.228 81.9484 126.244 82.0444 126.256C82.3284 126.296 82.6124 126.344 82.8964 126.392C83.4164 126.48 83.9324 126.576 84.4444 126.684C86.5404 127.12 88.6044 127.716 90.6044 128.48C90.8244 128.564 91.0444 128.652 91.2644 128.74C91.3964 128.792 91.5284 128.848 91.6604 128.9C92.0324 129.052 91.5124 128.84 91.4804 128.824C91.9724 129.092 92.5244 129.284 93.0284 129.528C93.9604 129.98 94.8764 130.468 95.7684 130.996C96.6604 131.524 97.5244 132.088 98.3644 132.692C98.5924 132.856 98.8204 133.024 99.0444 133.192C99.1604 133.28 99.3684 133.48 98.8924 133.072C99.0004 133.164 99.1164 133.244 99.2244 133.332C99.6484 133.668 100.06 134.016 100.468 134.372C101.264 135.072 102.024 135.812 102.748 136.588C103.072 136.932 103.384 137.288 103.692 137.648C103.876 137.864 104.06 138.084 104.236 138.304C104.296 138.38 104.356 138.452 104.412 138.528C104.568 138.728 104.532 138.676 104.3 138.38C104.36 138.456 104.416 138.532 104.472 138.608C105.956 140.576 107.212 142.712 108.248 144.948C108.388 145.252 108.524 145.56 108.66 145.868C108.716 145.996 108.876 146.236 108.616 145.76C108.696 145.904 108.744 146.076 108.808 146.228C109.036 146.8 109.252 147.38 109.456 147.96C109.88 149.18 110.244 150.424 110.556 151.68C110.868 152.936 111.104 154.1 111.304 155.328C111.348 155.608 111.392 155.884 111.432 156.164C111.452 156.304 111.576 156.868 111.44 156.196C111.468 156.332 111.476 156.476 111.492 156.616C111.572 157.26 111.636 157.908 111.692 158.552C111.912 161.204 111.924 163.872 111.768 166.532C111.684 168 111.548 169.464 111.368 170.924C111.352 171.052 111.336 171.176 111.32 171.304C111.308 171.408 111.232 172.056 111.304 171.428C111.268 171.744 111.216 172.064 111.168 172.38C111.056 173.14 110.932 173.9 110.796 174.656C110.304 177.436 109.68 180.192 108.976 182.928C108.624 184.296 108.252 185.656 107.864 187.012C107.52 188.22 108.284 189.68 109.54 189.964C110.816 190.256 112.124 189.58 112.492 188.288C115.672 177.132 117.832 165.46 115.896 153.88C115.032 148.712 113.292 143.616 110.588 139.112C108.1 134.968 104.8 131.456 100.896 128.624C93.6444 123.364 84.4164 120.884 75.5084 121.096C66.1844 121.32 57.1684 124.628 49.6084 130.04C41.8644 135.588 35.5524 143.024 31.0604 151.408C30.5364 152.388 30.0364 153.384 29.5604 154.388C29.0244 155.52 29.2084 157.032 30.4204 157.672C31.4884 158.236 33.1324 158.024 33.7044 156.812H33.7084Z" fill="white"/>
<path d="M39.0924 156.444C39.2604 155.72 39.4724 155.008 39.7404 154.312C39.7684 154.244 39.7964 154.176 39.8204 154.108C39.9124 153.856 39.6964 154.376 39.8084 154.132C39.8804 153.976 39.9484 153.82 40.0204 153.664C40.1764 153.332 40.3484 153.008 40.5284 152.688C40.8884 152.048 41.2924 151.432 41.7284 150.84C41.7724 150.78 41.8164 150.724 41.8604 150.664C41.6484 150.952 41.8044 150.736 41.8524 150.676C41.9604 150.54 42.0684 150.408 42.1804 150.272C42.4204 149.988 42.6644 149.708 42.9204 149.436C43.4324 148.884 43.9724 148.36 44.5324 147.86C44.7964 147.624 45.0644 147.396 45.3404 147.168C45.4764 147.056 45.6164 146.944 45.7564 146.832C45.8164 146.784 45.8764 146.736 45.9364 146.692C45.6524 146.916 45.9364 146.692 45.9964 146.648C47.2004 145.744 48.4724 144.924 49.7844 144.184C51.1724 143.4 52.6084 142.7 54.0684 142.06C54.2644 141.972 54.4604 141.888 54.6564 141.804C54.4204 141.904 54.7004 141.784 54.7364 141.772C54.8484 141.724 54.9644 141.68 55.0764 141.632C55.5004 141.46 55.9284 141.292 56.3604 141.128C57.1924 140.816 58.0324 140.524 58.8764 140.252C60.5964 139.704 62.3444 139.248 64.1164 138.904C64.5644 138.816 65.0164 138.736 65.4684 138.664C65.6804 138.632 65.8884 138.596 66.1004 138.568C66.1924 138.556 66.2804 138.54 66.3724 138.528C66.1164 138.564 66.4284 138.524 66.5284 138.508C67.4044 138.4 68.2844 138.324 69.1684 138.276C70.9084 138.184 72.6564 138.208 74.3924 138.372C74.7924 138.408 75.1964 138.456 75.5924 138.508C75.2444 138.46 75.7204 138.528 75.8324 138.548C76.0444 138.58 76.2564 138.616 76.4684 138.652C77.2364 138.788 78.0004 138.948 78.7604 139.14C79.5444 139.336 80.3204 139.56 81.0844 139.816C81.4404 139.936 81.7964 140.06 82.1484 140.192C82.3244 140.26 82.5004 140.324 82.6724 140.396C82.7724 140.436 82.8724 140.476 82.9724 140.516C83.0364 140.544 83.3764 140.692 83.0604 140.552C84.4804 141.184 85.8564 141.888 87.1684 142.728C87.5044 142.944 87.8364 143.168 88.1644 143.4C88.3164 143.508 88.4684 143.616 88.6164 143.728C88.6804 143.776 88.7444 143.824 88.8084 143.872C88.9724 143.992 88.6284 143.724 88.8884 143.932C89.5164 144.432 90.1204 144.952 90.7004 145.504C91.2804 146.056 91.8124 146.616 92.3204 147.212C92.4484 147.36 92.5724 147.508 92.6964 147.66C92.7684 147.748 92.8364 147.832 92.9044 147.92C92.8844 147.892 92.7604 147.72 92.8764 147.888C93.1164 148.232 93.3644 148.564 93.5924 148.916C93.8204 149.268 94.0284 149.624 94.2244 149.992C94.3164 150.164 94.4044 150.336 94.4884 150.512C94.5324 150.6 94.7684 151.148 94.6404 150.84C94.9524 151.616 95.1764 152.416 95.3244 153.236C95.3244 153.252 95.3724 153.536 95.3444 153.336C95.3124 153.12 95.3564 153.472 95.3644 153.52C95.3844 153.716 95.3964 153.916 95.4084 154.116C95.4284 154.54 95.4244 154.964 95.3964 155.388C95.3844 155.588 95.3644 155.784 95.3484 155.98C95.3444 156.044 95.3004 156.332 95.3484 156.008C95.3364 156.092 95.3244 156.176 95.3084 156.26C95.2404 156.684 95.1484 157.1 95.0444 157.516C94.8324 158.356 94.5524 159.18 94.2164 159.98C94.3364 159.7 94.1164 160.2 94.0804 160.272C93.9964 160.46 93.9084 160.644 93.8164 160.828C93.6084 161.248 93.3884 161.664 93.1604 162.072C92.7444 162.808 92.2964 163.524 91.8244 164.224C91.6004 164.556 91.3684 164.884 91.1364 165.208C91.0204 165.372 90.9004 165.532 90.7804 165.692C90.7124 165.784 90.6444 165.876 90.5764 165.968C90.3884 166.22 90.6084 165.932 90.4924 166.08C88.4164 168.736 86.0364 171.144 83.3924 173.236C83.3244 173.288 83.2564 173.344 83.1924 173.396C83.2524 173.348 83.4324 173.216 83.1484 173.428C82.9884 173.548 82.8284 173.668 82.6684 173.788C82.5084 173.908 82.3444 174 82.2004 174.124C82.0764 174.232 81.9764 174.156 82.2204 174.148C82.6004 174.136 82.9124 174.044 83.2684 174.472L83.7324 175.268C84.1684 176.436 82.5844 177.612 81.5524 176.844C81.3364 176.628 81.1204 176.412 80.9084 176.2L80.9324 176.252L80.6884 175.344L80.6964 175.42C80.7844 176.356 81.4604 177.268 82.4964 177.22C83.3964 177.18 84.3924 176.424 84.2964 175.42C84.2124 174.548 83.7924 173.788 82.9044 173.528C82.2404 173.332 81.5644 173.544 81.0364 173.952C79.6684 175.012 80.0604 177.068 81.6884 177.624C82.9084 178.04 83.9844 177.292 84.9044 176.592C85.7324 175.964 86.5444 175.32 87.3324 174.64C90.2364 172.132 92.7884 169.224 94.9404 166.048C97.1684 162.76 98.9484 158.924 99.0284 154.888C99.1084 150.852 97.1604 147.18 94.4964 144.232C89.4964 138.704 82.2764 135.648 74.9644 134.832C66.8644 133.928 58.6684 135.988 51.3404 139.364C45.0844 142.248 38.9684 146.612 36.3324 153.216C36.0404 153.952 35.8084 154.712 35.6284 155.484C35.4204 156.4 35.9084 157.476 36.8844 157.7C37.8004 157.908 38.8724 157.424 39.1004 156.444H39.0924Z" fill="white"/>
<path d="M176.365 33.068C169.937 40.168 166.585 49.612 166.353 59.132C166.121 68.652 169.217 78.14 174.409 86.12C177.333 90.616 180.889 94.704 184.917 98.244C185.625 98.864 186.777 98.992 187.461 98.244C188.085 97.564 188.217 96.364 187.461 95.7C185.725 94.176 184.077 92.556 182.533 90.836C181.777 89.996 181.049 89.136 180.345 88.252C180.245 88.124 180.145 88 180.045 87.872C180.009 87.824 179.837 87.604 180.029 87.856C179.865 87.644 179.701 87.428 179.541 87.212C179.189 86.74 178.841 86.26 178.505 85.776C177.185 83.884 175.985 81.912 174.925 79.864C174.409 78.868 173.925 77.852 173.477 76.824C173.413 76.676 173.349 76.528 173.289 76.384C173.317 76.452 173.417 76.692 173.285 76.372C173.185 76.124 173.085 75.876 172.985 75.628C172.769 75.08 172.565 74.532 172.369 73.976C171.609 71.808 171.005 69.584 170.585 67.324C170.489 66.804 170.401 66.28 170.321 65.756C170.321 65.76 170.249 65.248 170.285 65.524C170.321 65.8 170.253 65.288 170.257 65.292C170.217 64.98 170.181 64.664 170.149 64.348C170.037 63.244 169.969 62.14 169.945 61.032C169.921 59.924 169.945 58.76 170.013 57.628C170.045 57.076 170.089 56.52 170.145 55.972C170.173 55.708 170.201 55.448 170.233 55.184C170.245 55.08 170.261 54.976 170.273 54.868C170.301 54.656 170.301 54.66 170.273 54.876C170.289 54.772 170.301 54.668 170.317 54.564C170.637 52.376 171.133 50.212 171.809 48.108C172.001 47.508 172.209 46.912 172.429 46.324C172.541 46.028 172.653 45.736 172.769 45.444C172.829 45.3 172.889 45.152 172.949 45.008C172.825 45.3 172.969 44.964 173.013 44.86C173.517 43.708 174.077 42.584 174.693 41.488C175.309 40.392 175.985 39.332 176.717 38.312C176.901 38.056 177.089 37.804 177.277 37.552C177.317 37.5 177.485 37.284 177.285 37.544C177.413 37.38 177.545 37.216 177.677 37.052C178.073 36.564 178.485 36.084 178.909 35.616C179.541 34.92 179.649 33.752 178.909 33.072C178.221 32.44 177.037 32.328 176.365 33.072V33.068Z" fill="white"/>
<path d="M55.0927 45.4641C51.5567 46.0921 49.4607 50.4481 50.9327 53.6561C51.8047 55.5561 54.0367 56.9161 56.0847 56.0361C58.0967 55.1721 59.3567 52.7161 59.5727 50.6321C59.8207 48.2601 58.2407 45.7321 55.7007 45.6401C54.9287 45.6121 54.9287 46.8121 55.7007 46.8401C57.4207 46.9041 58.4407 48.6521 58.4007 50.2241C58.3567 51.9041 57.3607 53.9641 55.8567 54.8161C54.3167 55.6841 52.5967 54.4961 51.9687 53.0481C51.4607 51.8761 51.5847 50.4801 52.1047 49.3321C52.7327 47.9561 53.9007 46.8881 55.4127 46.6161C56.1727 46.4801 55.8487 45.3241 55.0927 45.4601V45.4641Z" fill="white"/>
<path d="M169.629 141.108C167.785 140.8 165.957 141.688 164.921 143.224C163.917 144.72 164.009 146.628 165.173 148C166.189 149.2 167.929 149.844 169.469 149.468C171.033 149.084 171.973 147.672 172.081 146.12C172.193 144.456 171.305 142.74 169.673 142.196C168.937 141.952 168.625 143.108 169.353 143.352C171.301 144 171.457 147.344 169.537 148.184C168.513 148.632 167.241 148.272 166.425 147.556C165.489 146.736 165.137 145.504 165.669 144.348C166.277 143.016 167.829 142.016 169.313 142.268C169.633 142.32 169.961 142.184 170.053 141.848C170.133 141.56 169.957 141.164 169.633 141.108H169.629Z" fill="white"/>
<path d="M142.284 152.188C140.028 151.74 137.752 152.944 136.596 154.892C135.456 156.808 135.724 159.156 137.268 160.764C138.648 162.204 140.888 162.94 142.824 162.332C144.784 161.716 145.992 159.872 146.232 157.892C146.364 156.796 146.176 155.66 145.66 154.68C145.404 154.196 145.052 153.752 144.64 153.388C144.116 152.928 143.48 152.556 143.1 151.956C142.688 151.304 141.652 151.904 142.064 152.56C142.616 153.436 143.548 153.876 144.2 154.648C144.68 155.216 144.96 155.952 145.044 156.688C145.216 158.184 144.652 159.88 143.368 160.752C140.52 162.68 136.176 159.668 137.252 156.324C137.86 154.432 139.956 152.948 141.964 153.348C142.72 153.496 143.04 152.34 142.284 152.192V152.188Z" fill="white"/>
<path d="M166.076 106.408C166.192 106.432 166.308 106.464 166.42 106.5C166.444 106.508 166.472 106.52 166.496 106.528C166.472 106.52 166.4 106.48 166.5 106.528C166.556 106.556 166.612 106.584 166.668 106.616C166.724 106.648 166.776 106.68 166.828 106.716C166.856 106.736 166.956 106.812 166.88 106.752C166.98 106.832 167.072 106.916 167.156 107.008C167.2 107.056 167.24 107.104 167.28 107.152C167.324 107.204 167.28 107.148 167.272 107.136C167.288 107.156 167.304 107.18 167.32 107.204C167.392 107.308 167.46 107.416 167.524 107.532C167.556 107.588 167.58 107.648 167.612 107.704C167.664 107.804 167.6 107.66 167.64 107.764C167.684 107.884 167.724 108.008 167.756 108.132C167.772 108.196 167.784 108.256 167.796 108.32C167.8 108.352 167.824 108.528 167.812 108.404C167.824 108.532 167.832 108.656 167.832 108.784C167.832 108.84 167.832 108.892 167.824 108.948C167.824 108.976 167.82 109 167.816 109.028C167.808 109.124 167.832 108.936 167.816 109.028C167.792 109.152 167.768 109.276 167.728 109.396C167.72 109.42 167.672 109.552 167.692 109.5C167.716 109.44 167.684 109.52 167.68 109.528C167.664 109.56 167.648 109.592 167.632 109.624C167.608 109.672 167.58 109.72 167.552 109.768C167.536 109.796 167.42 109.956 167.488 109.872C167.416 109.964 167.332 110.048 167.248 110.128C167.228 110.144 167.124 110.232 167.164 110.2C167.216 110.16 167.144 110.212 167.14 110.216C167.104 110.24 167.068 110.268 167.028 110.288C166.928 110.348 166.828 110.404 166.724 110.452C166.816 110.408 166.704 110.46 166.668 110.472C166.6 110.496 166.532 110.52 166.464 110.536C166.352 110.568 166.236 110.592 166.12 110.608C166.048 110.62 166.136 110.608 166.144 110.608C166.116 110.608 166.088 110.612 166.064 110.616C165.992 110.62 165.92 110.624 165.848 110.628C165.728 110.628 165.612 110.62 165.492 110.616C165.388 110.612 165.552 110.632 165.408 110.604C165.344 110.592 165.284 110.58 165.22 110.568C165.104 110.54 164.992 110.508 164.88 110.468C164.848 110.456 164.696 110.392 164.796 110.44C164.74 110.412 164.684 110.388 164.628 110.356C164.524 110.3 164.428 110.236 164.332 110.176C164.316 110.164 164.24 110.108 164.324 110.176C164.304 110.16 164.284 110.144 164.264 110.124C164.216 110.084 164.172 110.04 164.124 110C164.076 109.96 164.036 109.912 163.996 109.864C163.98 109.844 163.96 109.824 163.944 109.804C163.952 109.812 163.996 109.876 163.956 109.82C163.884 109.716 163.816 109.608 163.76 109.496C163.752 109.484 163.704 109.376 163.732 109.436C163.756 109.492 163.72 109.4 163.72 109.4C163.704 109.344 163.684 109.292 163.668 109.236C163.652 109.172 163.636 109.104 163.624 109.04C163.62 109.012 163.612 108.984 163.608 108.956C163.616 109.02 163.608 108.992 163.608 108.944C163.608 108.808 163.6 108.676 163.608 108.544C163.608 108.512 163.632 108.376 163.616 108.476C163.628 108.4 163.644 108.324 163.664 108.248C163.744 107.928 163.788 107.82 163.96 107.532C164 107.464 164.044 107.4 164.088 107.336C164.104 107.312 164.12 107.288 164.14 107.264C164.2 107.184 164.092 107.32 164.156 107.248C164.252 107.136 164.348 107.028 164.456 106.932C164.484 106.908 164.628 106.788 164.556 106.84C164.616 106.792 164.68 106.748 164.744 106.708C164.8 106.672 164.86 106.64 164.916 106.608C164.94 106.596 164.968 106.58 164.992 106.568C165.004 106.564 165.14 106.504 165.076 106.528C165.048 106.54 165.184 106.492 165.22 106.48C165.292 106.456 165.368 106.44 165.444 106.424C165.472 106.42 165.5 106.412 165.528 106.408C165.624 106.392 165.444 106.412 165.54 106.408C165.628 106.404 165.716 106.396 165.804 106.4C166.576 106.408 166.576 105.208 165.804 105.2C164.368 105.184 163.172 106.208 162.648 107.492C162.124 108.776 162.464 110.264 163.576 111.116C164.592 111.896 166.036 112.056 167.208 111.56C168.448 111.036 169.164 109.752 169.02 108.416C168.864 106.972 167.888 105.552 166.396 105.264C166.08 105.2 165.748 105.352 165.656 105.684C165.576 105.98 165.756 106.36 166.076 106.424V106.408Z" fill="white"/>
<path d="M82.7362 113.184C88.5002 112.984 94.2242 111.84 99.6162 109.792C102.28 108.78 104.864 107.56 107.332 106.132C108.512 105.448 109.768 104.76 110.796 103.856C111.708 103.052 112.328 101.86 111.876 100.644C111.464 99.52 110.368 98.768 109.212 98.592C107.776 98.376 106.36 98.892 105.068 99.464C102.76 100.48 100.668 102.028 98.9962 103.916C97.3242 105.804 95.5842 108.316 95.6842 110.92C95.7282 112.112 96.2402 113.232 97.1802 113.976C98.0922 114.7 99.2322 115.004 100.376 115.116C101.78 115.256 103.224 115.072 104.608 114.82C106.052 114.556 107.468 114.148 108.828 113.6C111.656 112.468 114.236 110.792 116.396 108.648L115.548 107.8C114.412 109.232 113.48 110.98 113.388 112.84C113.296 114.7 114.472 116.42 116.38 116.804C118.396 117.212 120.72 116.548 122.584 115.796C124.516 115.02 126.368 113.792 127.372 111.912C128.376 110.032 128.564 107.552 127.264 105.732C127.04 105.416 126.62 105.324 126.32 105.612C125.42 106.472 125.872 107.924 126.852 108.504C127.436 108.848 128.128 108.928 128.792 108.964C129.608 109.008 130.424 109.016 131.24 109.012C134.468 109 137.696 108.68 140.868 108.076C142.676 107.728 144.468 107.284 146.228 106.748L145.644 105.744C143.5 108.476 141.672 111.428 140.212 114.58C139.94 115.164 140.652 115.832 141.156 115.308C141.58 114.864 142.008 114.42 142.432 113.976C142.964 113.416 142.12 112.568 141.584 113.128C141.16 113.572 140.732 114.016 140.308 114.46L141.252 115.188C142.664 112.136 144.42 109.244 146.496 106.596C146.836 106.164 146.544 105.4 145.912 105.592C142.528 106.62 139.048 107.312 135.524 107.62C133.784 107.772 132.036 107.836 130.288 107.812C129.492 107.8 128.596 107.868 127.828 107.628C127.412 107.496 126.688 106.924 127.172 106.46C126.856 106.42 126.544 106.38 126.228 106.34C127.18 107.668 127.176 109.376 126.556 110.848C125.876 112.464 124.472 113.592 122.928 114.344C120.836 115.36 114.86 117.304 114.588 113.344C114.472 111.66 115.376 109.932 116.396 108.648C116.864 108.06 116.112 107.24 115.548 107.8C112.132 111.188 107.552 113.4 102.756 113.88C100.948 114.06 98.3562 114.104 97.2842 112.312C96.0402 110.232 97.7402 107.516 98.9682 105.844C100.312 104.016 102.056 102.476 104.02 101.34C105.656 100.392 109.004 98.6 110.516 100.62C111.248 101.596 110.524 102.572 109.716 103.2C108.748 103.956 107.636 104.572 106.576 105.18C104.348 106.46 102.024 107.576 99.6242 108.504C94.2322 110.592 88.5122 111.78 82.7362 111.976C81.9642 112.004 81.9642 113.204 82.7362 113.176V113.184Z" fill="white"/>
<path d="M75.7802 117.352C84.6282 117.724 93.4802 118.06 102.328 118.36C111.18 118.66 120.032 118.924 128.884 119.152C133.876 119.28 138.868 119.396 143.864 119.504C144.636 119.52 144.636 118.32 143.864 118.304C135.008 118.116 126.156 117.896 117.304 117.636C108.452 117.376 99.6002 117.084 90.7522 116.752C85.7602 116.564 80.7722 116.368 75.7802 116.16C75.0082 116.128 75.0082 117.328 75.7802 117.36V117.352Z" fill="white"/>
<path d="M122.064 70.4519C120.304 71.4919 119.496 73.7039 119.952 75.6679C120.424 77.7159 122.34 78.9959 124.388 78.9919C125.364 78.9919 126.376 78.7079 127.164 78.1199C128.136 77.3959 128.748 76.2919 129.02 75.1199C129.508 73.0079 128.896 70.4719 126.972 69.2639C125.1 68.0879 122.268 68.8079 121.492 70.9519C121.228 71.6799 122.388 71.9919 122.648 71.2719C123.116 69.9839 124.868 69.6239 126.02 70.1159C127.588 70.7799 128.14 72.7719 127.952 74.3239C127.744 76.0279 126.672 77.5279 124.9 77.7679C123.428 77.9679 121.804 77.2799 121.252 75.8319C120.664 74.2919 121.228 72.3439 122.672 71.4919C123.336 71.0999 122.732 70.0599 122.068 70.4559L122.064 70.4519Z" fill="white"/>
<path d="M134.244 65.22C132.124 67.02 132.98 71.152 135.832 71.644C137.284 71.892 138.776 71.2439 139.664 70.0799C140.56 68.904 140.58 67.296 139.716 66.096C138.76 64.768 136.964 63.964 135.364 64.564C135.06 64.676 134.852 64.9679 134.944 65.3039C135.024 65.5959 135.376 65.836 135.684 65.724C136.668 65.356 137.732 65.696 138.472 66.468C139.196 67.22 139.38 68.2639 138.864 69.1359C138.364 69.9839 137.368 70.528 136.404 70.508C135.44 70.488 134.7 69.812 134.412 68.944C134.072 67.916 134.248 66.7879 135.092 66.0719C135.34 65.8639 135.308 65.44 135.092 65.224C134.848 64.98 134.492 65.012 134.244 65.224V65.22Z" fill="white"/>
</g>
<path d="M109.6 168.688C118.076 168.776 126.552 168.808 135.024 168.776C143.5 168.748 151.976 168.66 160.448 168.516C165.232 168.432 170.02 168.332 174.804 168.212C175.576 168.192 175.576 166.992 174.804 167.012C166.332 167.224 157.856 167.376 149.384 167.472C140.908 167.568 132.432 167.604 123.96 167.58C119.176 167.568 114.388 167.536 109.604 167.488C108.832 167.48 108.832 168.68 109.604 168.688H109.6Z" fill="black"/>
<path d="M174.888 133.404C174.656 142.184 174.424 150.964 174.192 159.744C174.128 162.228 174.06 164.712 173.996 167.2C173.976 167.972 175.176 167.972 175.196 167.2C175.428 158.42 175.66 149.64 175.892 140.86C175.956 138.376 176.024 135.892 176.088 133.404C176.108 132.632 174.908 132.632 174.888 133.404Z" fill="black"/>
<path d="M42.4004 42.2279C56.8724 42.6679 71.3444 42.9719 85.8204 43.1359C100.224 43.2999 114.628 43.3279 129.028 43.2199C137.152 43.1599 145.276 43.0519 153.4 42.9039C154.172 42.8879 154.172 41.6879 153.4 41.7039C138.924 41.9679 124.448 42.0959 109.972 42.0839C95.5684 42.0719 81.1644 41.9239 66.7644 41.6399C58.6404 41.4799 50.5204 41.2759 42.3964 41.0279C41.6244 41.0039 41.6244 42.2039 42.3964 42.2279H42.4004Z" fill="black"/>
<path d="M41.5402 42.204C42.0282 50.532 41.9082 58.888 41.1722 67.2C41.1042 67.968 42.3042 67.964 42.3722 67.2C43.1082 58.892 43.2282 50.532 42.7402 42.204C42.6962 41.436 41.4962 41.432 41.5402 42.204Z" fill="black"/>
</g>
</g>
<defs>
<clipPath id="clip0_4709_44145">
<rect width="400" height="400" fill="white"/>
</clipPath>
</defs>
</svg>
