<svg width="152" height="67" viewBox="0 0 152 67" fill="none" xmlns="http://www.w3.org/2000/svg">
<path d="M24.257 31.382V25.0646L21.4181 28.5115L18.5793 25.0646V31.382H16V20.6761H17.6655L21.4181 25.2587L25.1708 20.6761H26.8363V31.382H24.257Z" fill="#19191B"/>
<path d="M40.0673 26.029C40.0673 29.0707 37.7314 31.5132 34.8547 31.5132C31.978 31.5132 29.6582 29.0707 29.6582 26.029C29.6582 22.9873 31.9725 20.5277 34.8547 20.5277C37.7368 20.5277 40.0673 22.993 40.0673 26.029ZM32.2321 26.029C32.2321 27.7867 33.492 28.8767 34.8492 28.8767C36.2065 28.8767 37.4664 27.7867 37.4664 26.029C37.4664 24.2713 36.1903 23.1585 34.8492 23.1585C33.5082 23.1585 32.2321 24.2713 32.2321 26.029Z" fill="#19191B"/>
<path d="M51.4073 22.5151L49.8662 24.2728C49.0335 23.4567 48.3035 23.1828 47.4113 23.1828C46.0541 23.1828 44.7941 24.2728 44.7941 26.0304C44.7941 27.7881 46.0541 28.8781 47.4113 28.8781C48.3035 28.8781 49.0335 28.5985 49.8662 27.7881L51.4073 29.5458C50.4556 30.7442 49.0119 31.5146 47.4113 31.5146C44.5292 31.5146 42.2148 29.0721 42.2148 26.0304C42.2148 22.9887 44.5292 20.5463 47.4113 20.5463C49.0119 20.5463 50.4556 21.3167 51.4073 22.5151Z" fill="#19191B"/>
<path d="M56.6301 31.382H54.0508V20.6761H56.6301V24.5967H58.1495L60.8262 20.6761H63.6867L60.1557 25.9035L63.8705 31.3877H60.9884L58.1495 27.2332H56.6301V31.3877V31.382Z" fill="#19191B"/>
<path d="M75.5615 26.029C75.5615 29.0707 73.2255 31.5132 70.3488 31.5132C67.4721 31.5132 65.1523 29.0707 65.1523 26.029C65.1523 22.9873 67.4667 20.5277 70.3488 20.5277C73.2309 20.5277 75.5615 22.993 75.5615 26.029ZM67.7316 26.029C67.7316 27.7867 68.9916 28.8767 70.3488 28.8767C71.706 28.8767 72.9659 27.7867 72.9659 26.029C72.9659 24.2713 71.6898 23.1585 70.3488 23.1585C69.0078 23.1585 67.7316 24.2713 67.7316 26.029Z" fill="#19191B"/>
<path d="M83.688 20.672C86.1051 20.672 87.1758 21.762 87.1758 23.5824C87.1758 24.5868 86.7918 25.4257 85.7969 25.7909C87.0351 26.0934 87.6408 26.9894 87.6408 28.1878C87.6408 30.4591 86.462 31.3779 83.7042 31.3779H78.3672V20.672H83.6826H83.688ZM80.9519 24.895H83.5474C84.2774 24.8722 84.6019 24.5069 84.6019 23.9305C84.6019 23.3542 84.2558 22.9889 83.5042 22.9889H80.9465V24.895H80.9519ZM83.7691 29.0666C84.7424 29.0666 85.0669 28.5758 85.0669 27.9538C85.0669 27.3318 84.7424 26.8809 83.807 26.8638H80.9465V29.0666H83.7691Z" fill="#19191B"/>
<path d="M98.9972 22.5151L97.4561 24.2728C96.6233 23.4567 95.8934 23.1828 95.0012 23.1828C93.6439 23.1828 92.384 24.2728 92.384 26.0304C92.384 27.7881 93.6439 28.8781 95.0012 28.8781C95.8934 28.8781 96.6233 28.5985 97.4561 27.7881L98.9972 29.5458C98.0455 30.7442 96.6017 31.5146 95.0012 31.5146C92.119 31.5146 89.8047 29.0721 89.8047 26.0304C89.8047 22.9887 92.119 20.5463 95.0012 20.5463C96.6017 20.5463 98.0455 21.3167 98.9972 22.5151Z" fill="#19191B"/>
<path d="M104.214 31.382H101.635V20.6761H104.214V24.5967H105.734L108.41 20.6761H111.271L107.74 25.9035L111.454 31.3877H108.572L105.734 27.2332H104.214V31.3877V31.382Z" fill="#19191B"/>
<path d="M120.549 31.382V25.0646L115.353 31.382H113.688V20.6761H116.267V26.9935L121.463 20.6761H123.129V31.382H120.549Z" fill="#19191B"/>
<path d="M133.421 31.3832V25.0658L128.224 31.3832H126.559V20.6773H129.138V26.9947L134.334 20.6773H136V31.3832H133.421ZM128.121 16.5H129.906C129.906 17.2704 130.517 17.8696 131.306 17.8696C132.096 17.8696 132.728 17.2704 132.728 16.5H134.497C134.497 18.3832 133.074 19.7528 131.312 19.7528C129.549 19.7528 128.127 18.3832 128.127 16.5H128.121Z" fill="#19191B"/>
<path d="M23.0025 51.3681V43.293H18.5793V51.3681H16V40.6622H25.5764V51.3681H22.9971H23.0025Z" fill="#19191B"/>
<path d="M42.6888 51.3681H39.9473L44.6354 40.6622H46.3009L50.9891 51.3681H48.2692L45.4682 44.6627L42.6888 51.3681Z" fill="#19191B"/>
<path d="M60.0689 51.3681V45.0507L54.8725 51.3681H53.207V40.6622H55.7863V46.9796L60.9828 40.6622H62.6482V51.3681H60.0689Z" fill="#19191B"/>
<path d="M70.8792 51.3676H68.3215V43.2925H65.1582V40.656H74.0479V43.2925H70.8846V51.3676H70.8792Z" fill="#19191B"/>
<path d="M85.1424 43.4014C85.5695 44.3887 85.5858 45.8439 85.3046 46.7627H78.221C78.221 48.2179 79.3565 49.0111 80.7354 49.0111C81.7898 49.0111 82.8875 48.7543 83.8013 48.2636L85.1586 49.8272C84.0609 50.6832 82.5414 51.4993 80.7354 51.4993C77.6532 51.4993 75.5605 49.1424 75.5605 46.0151C75.5605 42.8878 77.5072 40.5138 80.6759 40.5138C82.8496 40.5138 84.3691 41.6038 85.1424 43.4071V43.4014ZM78.3237 45.0507H82.9686C82.9686 44.7939 82.8875 44.4515 82.7253 44.1947C82.3792 43.5098 81.6492 42.9962 80.6759 42.9962C79.297 42.9962 78.3615 44.0234 78.3237 45.0507Z" fill="#19191B"/>
<path d="M89.9126 51.3676H86.9277L90.8859 45.7978L87.1494 40.656H90.1343L92.3892 43.6121L94.5791 40.656H97.5423L93.8113 45.9005L97.7857 51.3619H94.8008L92.3243 48.0634L89.9072 51.3619L89.9126 51.3676Z" fill="#19191B"/>
<path d="M36.6564 46.1462C36.6564 46.1462 36.678 46.1348 36.678 46.1233C36.678 46.1118 36.6672 46.1003 36.6564 46.1003C36.6456 46.1003 36.6348 46.1118 36.6348 46.1233C36.6348 46.1348 36.6456 46.1462 36.6564 46.1462Z" fill="#19191B"/>
<path d="M36.558 46.9901C36.5904 46.9901 36.6121 46.9614 36.6121 46.9327C36.6121 46.904 36.585 46.8754 36.558 46.8754C36.5309 46.8754 36.5039 46.904 36.5039 46.9327C36.5039 46.9614 36.5309 46.9901 36.558 46.9901Z" fill="#19191B"/>
<path d="M36.2721 47.7784C36.3207 47.7784 36.3586 47.7382 36.3586 47.6866C36.3586 47.635 36.3207 47.5948 36.2721 47.5948C36.2234 47.5948 36.1855 47.635 36.1855 47.6866C36.1855 47.7382 36.2234 47.7784 36.2721 47.7784Z" fill="#19191B"/>
<path d="M35.8186 48.4672C35.8781 48.4672 35.9322 48.4159 35.9322 48.3474C35.9322 48.2789 35.8835 48.2275 35.8186 48.2275C35.7537 48.2275 35.7051 48.2789 35.7051 48.3474C35.7051 48.4159 35.7537 48.4672 35.8186 48.4672Z" fill="#19191B"/>
<path d="M35.2231 49.0097C35.2988 49.0097 35.3583 48.9469 35.3583 48.867C35.3583 48.7871 35.2988 48.7244 35.2231 48.7244C35.1474 48.7244 35.0879 48.7871 35.0879 48.867C35.0879 48.9469 35.1474 49.0097 35.2231 49.0097Z" fill="#19191B"/>
<path d="M34.5195 49.3633C34.5952 49.3633 34.6601 49.3005 34.6601 49.2149C34.6601 49.1293 34.6006 49.0665 34.5195 49.0665C34.4384 49.0665 34.3789 49.1293 34.3789 49.2149C34.3789 49.3005 34.4384 49.3633 34.5195 49.3633Z" fill="#19191B"/>
<path d="M33.7632 49.5231C33.8443 49.5231 33.9092 49.4547 33.9092 49.3691C33.9092 49.2835 33.8443 49.215 33.7632 49.215C33.6821 49.215 33.6172 49.2835 33.6172 49.3691C33.6172 49.4547 33.6821 49.5231 33.7632 49.5231Z" fill="#19191B"/>
<path d="M32.9898 49.4716C33.0704 49.4716 33.1357 49.4026 33.1357 49.3175C33.1357 49.2324 33.0704 49.1635 32.9898 49.1635C32.9091 49.1635 32.8438 49.2324 32.8438 49.3175C32.8438 49.4026 32.9091 49.4716 32.9898 49.4716Z" fill="#19191B"/>
<path d="M32.254 49.2379C32.3459 49.2379 32.4162 49.1637 32.4162 49.0667C32.4162 48.9697 32.3459 48.8955 32.254 48.8955C32.1621 48.8955 32.0918 48.9697 32.0918 49.0667C32.0918 49.1637 32.1621 49.2379 32.254 49.2379Z" fill="#19191B"/>
<path d="M31.6008 48.8093C31.6963 48.8093 31.7738 48.7276 31.7738 48.6267C31.7738 48.5259 31.6963 48.4441 31.6008 48.4441C31.5052 48.4441 31.4277 48.5259 31.4277 48.6267C31.4277 48.7276 31.5052 48.8093 31.6008 48.8093Z" fill="#19191B"/>
<path d="M31.0707 48.2511C31.1843 48.2511 31.2762 48.1541 31.2762 48.0342C31.2762 47.9144 31.1843 47.8174 31.0707 47.8174C30.9572 47.8174 30.8652 47.9144 30.8652 48.0342C30.8652 48.1541 30.9572 48.2511 31.0707 48.2511Z" fill="#19191B"/>
<path d="M30.6974 47.5661C30.8271 47.5661 30.9299 47.4577 30.9299 47.3207C30.9299 47.1838 30.8271 47.0753 30.6974 47.0753C30.5676 47.0753 30.4648 47.1838 30.4648 47.3207C30.4648 47.4577 30.5676 47.5661 30.6974 47.5661Z" fill="#19191B"/>
<path d="M30.5076 46.8069C30.6536 46.8069 30.7672 46.6813 30.7672 46.533C30.7672 46.3846 30.6482 46.259 30.5076 46.259C30.367 46.259 30.248 46.3846 30.248 46.533C30.248 46.6813 30.367 46.8069 30.5076 46.8069Z" fill="#19191B"/>
<path d="M30.5091 45.9918C30.6551 45.9918 30.7741 45.8662 30.7741 45.7121C30.7741 45.5581 30.6551 45.4325 30.5091 45.4325C30.3631 45.4325 30.2441 45.5581 30.2441 45.7121C30.2441 45.8662 30.3631 45.9918 30.5091 45.9918Z" fill="#19191B"/>
<path d="M30.6981 45.2034C30.8441 45.2034 30.9685 45.0778 30.9685 44.918C30.9685 44.7582 30.8495 44.6327 30.6981 44.6327C30.5467 44.6327 30.4277 44.7582 30.4277 44.918C30.4277 45.0778 30.5467 45.2034 30.6981 45.2034Z" fill="#19191B"/>
<path d="M31.0708 44.5184C31.2331 44.5184 31.3682 44.3757 31.3682 44.2045C31.3682 44.0333 31.2331 43.8906 31.0708 43.8906C30.9086 43.8906 30.7734 44.0333 30.7734 44.2045C30.7734 44.3757 30.9086 44.5184 31.0708 44.5184Z" fill="#19191B"/>
<path d="M31.6003 43.9478C31.7765 43.9478 31.9193 43.7971 31.9193 43.6111C31.9193 43.4252 31.7765 43.2744 31.6003 43.2744C31.4241 43.2744 31.2812 43.4252 31.2812 43.6111C31.2812 43.7971 31.4241 43.9478 31.6003 43.9478Z" fill="#19191B"/>
<path d="M32.2552 43.5265C32.439 43.5265 32.5904 43.3667 32.5904 43.1727C32.5904 42.9786 32.439 42.8188 32.2552 42.8188C32.0713 42.8188 31.9199 42.9786 31.9199 43.1727C31.9199 43.3667 32.0713 43.5265 32.2552 43.5265Z" fill="#19191B"/>
<path d="M32.9891 43.2802C33.1772 43.2802 33.3298 43.1192 33.3298 42.9207C33.3298 42.7221 33.1772 42.5612 32.9891 42.5612C32.801 42.5612 32.6484 42.7221 32.6484 42.9207C32.6484 43.1192 32.801 43.2802 32.9891 43.2802Z" fill="#19191B"/>
<path d="M33.764 43.2278C33.9533 43.2278 34.1101 43.068 34.1101 42.8625C34.1101 42.6571 33.9587 42.4973 33.764 42.4973C33.5694 42.4973 33.418 42.6571 33.418 42.8625C33.418 43.068 33.5694 43.2278 33.764 43.2278Z" fill="#19191B"/>
<path d="M34.5199 43.3885C34.7092 43.3885 34.866 43.223 34.866 43.0233C34.866 42.8236 34.7092 42.6581 34.5199 42.6581C34.3306 42.6581 34.1738 42.8236 34.1738 43.0233C34.1738 43.223 34.3306 43.3885 34.5199 43.3885Z" fill="#19191B"/>
<path d="M35.2226 43.7421C35.4167 43.7421 35.574 43.576 35.574 43.3712C35.574 43.1663 35.4167 43.0002 35.2226 43.0002C35.0285 43.0002 34.8711 43.1663 34.8711 43.3712C34.8711 43.576 35.0285 43.7421 35.2226 43.7421Z" fill="#19191B"/>
<path d="M35.8178 44.2606C36.0125 44.2606 36.1747 44.0951 36.1747 43.884C36.1747 43.6728 36.0179 43.5073 35.8178 43.5073C35.6178 43.5073 35.4609 43.6728 35.4609 43.884C35.4609 44.0951 35.6178 44.2606 35.8178 44.2606Z" fill="#19191B"/>
<path d="M36.2709 44.9285C36.471 44.9285 36.6278 44.7573 36.6278 44.5518C36.6278 44.3464 36.4656 44.1752 36.2709 44.1752C36.0763 44.1752 35.9141 44.3464 35.9141 44.5518C35.9141 44.7573 36.0763 44.9285 36.2709 44.9285Z" fill="#19191B"/>
<path d="M36.5577 45.7172C36.7698 45.7172 36.9417 45.5358 36.9417 45.312C36.9417 45.0883 36.7698 44.9069 36.5577 44.9069C36.3457 44.9069 36.1738 45.0883 36.1738 45.312C36.1738 45.5358 36.3457 45.7172 36.5577 45.7172Z" fill="#19191B"/>
<path d="M37.2721 46.1389C37.281 46.1389 37.2883 46.1312 37.2883 46.1217C37.2883 46.1122 37.281 46.1045 37.2721 46.1045C37.2631 46.1045 37.2559 46.1122 37.2559 46.1217C37.2559 46.1312 37.2631 46.1389 37.2721 46.1389Z" fill="#19191B"/>
<path d="M37.1917 46.9775C37.1917 46.9775 37.235 46.9546 37.235 46.9316C37.235 46.9087 37.2133 46.8857 37.1917 46.8857C37.1701 46.8857 37.1484 46.9087 37.1484 46.9316C37.1484 46.9546 37.1701 46.9775 37.1917 46.9775Z" fill="#19191B"/>
<path d="M36.9531 47.783C36.9919 47.783 37.0234 47.7496 37.0234 47.7085C37.0234 47.6673 36.9919 47.6339 36.9531 47.6339C36.9143 47.6339 36.8828 47.6673 36.8828 47.7085C36.8828 47.7496 36.9143 47.783 36.9531 47.783Z" fill="#19191B"/>
<path d="M36.5646 48.5194C36.6187 48.5194 36.6565 48.4736 36.6565 48.422C36.6565 48.3704 36.6133 48.3245 36.5646 48.3245C36.5159 48.3245 36.4727 48.3704 36.4727 48.422C36.4727 48.4736 36.5159 48.5194 36.5646 48.5194Z" fill="#19191B"/>
<path d="M36.0456 49.1403C36.1051 49.1403 36.1538 49.0889 36.1538 49.0261C36.1538 48.9634 36.1051 48.912 36.0456 48.912C35.9862 48.912 35.9375 48.9634 35.9375 49.0261C35.9375 49.0889 35.9862 49.1403 36.0456 49.1403Z" fill="#19191B"/>
<path d="M35.4173 49.6383C35.4876 49.6383 35.5417 49.5812 35.5417 49.507C35.5417 49.4328 35.4876 49.3757 35.4173 49.3757C35.347 49.3757 35.293 49.4328 35.293 49.507C35.293 49.5812 35.347 49.6383 35.4173 49.6383Z" fill="#19191B"/>
<path d="M34.7153 49.9785C34.7899 49.9785 34.8504 49.9146 34.8504 49.8358C34.8504 49.757 34.7899 49.6931 34.7153 49.6931C34.6406 49.6931 34.5801 49.757 34.5801 49.8358C34.5801 49.9146 34.6406 49.9785 34.7153 49.9785Z" fill="#19191B"/>
<path d="M33.9585 50.158C34.0396 50.158 34.1045 50.0895 34.1045 50.0039C34.1045 49.9183 34.0396 49.8499 33.9585 49.8499C33.8774 49.8499 33.8125 49.9183 33.8125 50.0039C33.8125 50.0895 33.8774 50.158 33.9585 50.158Z" fill="#19191B"/>
<path d="M33.1792 50.1622C33.2598 50.1622 33.3252 50.0932 33.3252 50.0081C33.3252 49.923 33.2598 49.854 33.1792 49.854C33.0986 49.854 33.0332 49.923 33.0332 50.0081C33.0332 50.0932 33.0986 50.1622 33.1792 50.1622Z" fill="#19191B"/>
<path d="M32.422 50.0088C32.5116 50.0088 32.5842 49.9321 32.5842 49.8376C32.5842 49.743 32.5116 49.6664 32.422 49.6664C32.3324 49.6664 32.2598 49.743 32.2598 49.8376C32.2598 49.9321 32.3324 50.0088 32.422 50.0088Z" fill="#19191B"/>
<path d="M31.7141 49.6895C31.8096 49.6895 31.8871 49.6077 31.8871 49.5068C31.8871 49.406 31.8096 49.3242 31.7141 49.3242C31.6185 49.3242 31.541 49.406 31.541 49.5068C31.541 49.6077 31.6185 49.6895 31.7141 49.6895Z" fill="#19191B"/>
<path d="M31.0926 49.2332C31.2008 49.2332 31.2927 49.1419 31.2927 49.0221C31.2927 48.9022 31.2062 48.8109 31.0926 48.8109C30.9791 48.8109 30.8926 48.9022 30.8926 49.0221C30.8926 49.1419 30.9791 49.2332 31.0926 49.2332Z" fill="#19191B"/>
<path d="M30.5733 48.6502C30.6922 48.6502 30.795 48.5475 30.795 48.4162C30.795 48.285 30.6976 48.1823 30.5733 48.1823C30.4489 48.1823 30.3516 48.285 30.3516 48.4162C30.3516 48.5475 30.4489 48.6502 30.5733 48.6502Z" fill="#19191B"/>
<path d="M30.1838 47.9766C30.3244 47.9766 30.438 47.8568 30.438 47.7084C30.438 47.56 30.3244 47.4402 30.1838 47.4402C30.0432 47.4402 29.9297 47.56 29.9297 47.7084C29.9297 47.8568 30.0432 47.9766 30.1838 47.9766Z" fill="#19191B"/>
<path d="M29.9456 47.2016C30.0861 47.2016 30.1997 47.0818 30.1997 46.9334C30.1997 46.785 30.0861 46.6652 29.9456 46.6652C29.805 46.6652 29.6914 46.785 29.6914 46.9334C29.6914 47.0818 29.805 47.2016 29.9456 47.2016Z" fill="#19191B"/>
<path d="M29.8631 46.3967C30.0064 46.3967 30.1226 46.2741 30.1226 46.1228C30.1226 45.9715 30.0064 45.8489 29.8631 45.8489C29.7197 45.8489 29.6035 45.9715 29.6035 46.1228C29.6035 46.2741 29.7197 46.3967 29.8631 46.3967Z" fill="#19191B"/>
<path d="M29.9447 45.5858C30.0906 45.5858 30.2096 45.4602 30.2096 45.3061C30.2096 45.152 30.0906 45.0265 29.9447 45.0265C29.7987 45.0265 29.6797 45.152 29.6797 45.3061C29.6797 45.4602 29.7987 45.5858 29.9447 45.5858Z" fill="#19191B"/>
<path d="M30.1835 44.8264C30.3403 44.8264 30.4647 44.6952 30.4647 44.5297C30.4647 44.3642 30.3403 44.2329 30.1835 44.2329C30.0267 44.2329 29.9023 44.3642 29.9023 44.5297C29.9023 44.6952 30.0267 44.8264 30.1835 44.8264Z" fill="#19191B"/>
<path d="M30.5723 44.1423C30.7396 44.1423 30.8752 43.9992 30.8752 43.8228C30.8752 43.6463 30.7396 43.5032 30.5723 43.5032C30.4051 43.5032 30.2695 43.6463 30.2695 43.8228C30.2695 43.9992 30.4051 44.1423 30.5723 44.1423Z" fill="#19191B"/>
<path d="M31.091 43.5488C31.264 43.5488 31.4046 43.4005 31.4046 43.2178C31.4046 43.0352 31.264 42.8868 31.091 42.8868C30.9179 42.8868 30.7773 43.0352 30.7773 43.2178C30.7773 43.4005 30.9179 43.5488 31.091 43.5488Z" fill="#19191B"/>
<path d="M31.7131 43.0748C31.8923 43.0748 32.0376 42.9215 32.0376 42.7324C32.0376 42.5433 31.8923 42.39 31.7131 42.39C31.5339 42.39 31.3887 42.5433 31.3887 42.7324C31.3887 42.9215 31.5339 43.0748 31.7131 43.0748Z" fill="#19191B"/>
<path d="M32.4227 42.7608C32.612 42.7608 32.7634 42.601 32.7634 42.4013C32.7634 42.2015 32.612 42.0417 32.4227 42.0417C32.2334 42.0417 32.082 42.2015 32.082 42.4013C32.082 42.601 32.2334 42.7608 32.4227 42.7608Z" fill="#19191B"/>
<path d="M33.1785 42.5897C33.3667 42.5897 33.5192 42.4287 33.5192 42.2301C33.5192 42.0316 33.3667 41.8706 33.1785 41.8706C32.9904 41.8706 32.8379 42.0316 32.8379 42.2301C32.8379 42.4287 32.9904 42.5897 33.1785 42.5897Z" fill="#19191B"/>
<path d="M33.9574 42.595C34.1467 42.595 34.3035 42.4352 34.3035 42.2297C34.3035 42.0243 34.1521 41.8645 33.9574 41.8645C33.7627 41.8645 33.6113 42.0243 33.6113 42.2297C33.6113 42.4352 33.7627 42.595 33.9574 42.595Z" fill="#19191B"/>
<path d="M34.7152 42.766C34.9045 42.766 35.0613 42.6005 35.0613 42.4007C35.0613 42.201 34.9045 42.0355 34.7152 42.0355C34.526 42.0355 34.3691 42.201 34.3691 42.4007C34.3691 42.6005 34.526 42.766 34.7152 42.766Z" fill="#19191B"/>
<path d="M35.4179 43.1031C35.6125 43.1031 35.7694 42.9376 35.7694 42.7321C35.7694 42.5267 35.6125 42.3612 35.4179 42.3612C35.2232 42.3612 35.0664 42.5267 35.0664 42.7321C35.0664 42.9376 35.2232 43.1031 35.4179 43.1031Z" fill="#19191B"/>
<path d="M36.0444 43.5886C36.2391 43.5886 36.4013 43.4231 36.4013 43.212C36.4013 43.0008 36.2445 42.8353 36.0444 42.8353C35.8443 42.8353 35.6875 43.0008 35.6875 43.212C35.6875 43.4231 35.8443 43.5886 36.0444 43.5886Z" fill="#19191B"/>
<path d="M36.5635 44.2039C36.7636 44.2039 36.9258 44.0327 36.9258 43.8216C36.9258 43.6104 36.7636 43.4392 36.5635 43.4392C36.3634 43.4392 36.2012 43.6104 36.2012 43.8216C36.2012 44.0327 36.3634 44.2039 36.5635 44.2039Z" fill="#19191B"/>
<path d="M36.9521 44.913C37.1522 44.913 37.3144 44.7418 37.3144 44.5307C37.3144 44.3195 37.1522 44.1483 36.9521 44.1483C36.7521 44.1483 36.5898 44.3195 36.5898 44.5307C36.5898 44.7418 36.7521 44.913 36.9521 44.913Z" fill="#19191B"/>
<path d="M37.1906 45.7111C37.4014 45.7111 37.5745 45.5285 37.5745 45.3059C37.5745 45.0834 37.4014 44.9008 37.1906 44.9008C36.9797 44.9008 36.8066 45.0834 36.8066 45.3059C36.8066 45.5285 36.9797 45.7111 37.1906 45.7111Z" fill="#19191B"/>
<path d="M37.8893 46.1389C37.8982 46.1389 37.9055 46.1312 37.9055 46.1217C37.9055 46.1122 37.8982 46.1045 37.8893 46.1045C37.8803 46.1045 37.873 46.1122 37.873 46.1217C37.873 46.1312 37.8803 46.1389 37.8893 46.1389Z" fill="#19191B"/>
<path d="M37.8191 46.9742C37.8191 46.9742 37.857 46.957 37.857 46.9341C37.857 46.9111 37.8407 46.8939 37.8191 46.8939C37.7975 46.8939 37.7812 46.9111 37.7812 46.9341C37.7812 46.957 37.7975 46.9742 37.8191 46.9742Z" fill="#19191B"/>
<path d="M37.6142 47.7828C37.647 47.7828 37.6736 47.7545 37.6736 47.7197C37.6736 47.6849 37.647 47.6566 37.6142 47.6566C37.5813 47.6566 37.5547 47.6849 37.5547 47.7197C37.5547 47.7545 37.5813 47.7828 37.6142 47.7828Z" fill="#19191B"/>
<path d="M37.2788 48.5428C37.3221 48.5428 37.3545 48.5084 37.3545 48.4625C37.3545 48.4166 37.3221 48.3822 37.2788 48.3822C37.2356 48.3822 37.2031 48.4166 37.2031 48.4625C37.2031 48.5084 37.2356 48.5428 37.2788 48.5428Z" fill="#19191B"/>
<path d="M36.8239 49.2277C36.878 49.2277 36.9212 49.1818 36.9212 49.1245C36.9212 49.0671 36.878 49.0212 36.8239 49.0212C36.7698 49.0212 36.7266 49.0671 36.7266 49.1245C36.7266 49.1818 36.7698 49.2277 36.8239 49.2277Z" fill="#19191B"/>
<path d="M36.2615 49.8145C36.3264 49.8145 36.3805 49.7574 36.3805 49.6889C36.3805 49.6204 36.3264 49.5634 36.2615 49.5634C36.1966 49.5634 36.1426 49.6204 36.1426 49.6889C36.1426 49.7574 36.1966 49.8145 36.2615 49.8145Z" fill="#19191B"/>
<path d="M35.6176 50.2774C35.6923 50.2774 35.7528 50.2135 35.7528 50.1347C35.7528 50.0559 35.6923 49.9921 35.6176 49.9921C35.5429 49.9921 35.4824 50.0559 35.4824 50.1347C35.4824 50.2135 35.5429 50.2774 35.6176 50.2774Z" fill="#19191B"/>
<path d="M34.9047 50.6031C34.9794 50.6031 35.0399 50.5392 35.0399 50.4604C35.0399 50.3816 34.9794 50.3177 34.9047 50.3177C34.8301 50.3177 34.7695 50.3816 34.7695 50.4604C34.7695 50.5392 34.8301 50.6031 34.9047 50.6031Z" fill="#19191B"/>
<path d="M34.1465 50.7897C34.2241 50.7897 34.287 50.7232 34.287 50.6413C34.287 50.5593 34.2241 50.4929 34.1465 50.4929C34.0688 50.4929 34.0059 50.5593 34.0059 50.6413C34.0059 50.7232 34.0688 50.7897 34.1465 50.7897Z" fill="#19191B"/>
<path d="M33.3745 50.83C33.4551 50.83 33.5205 50.761 33.5205 50.6759C33.5205 50.5908 33.4551 50.5219 33.3745 50.5219C33.2939 50.5219 33.2285 50.5908 33.2285 50.6759C33.2285 50.761 33.2939 50.83 33.3745 50.83Z" fill="#19191B"/>
<path d="M32.6065 50.7259C32.6901 50.7259 32.7579 50.6544 32.7579 50.5662C32.7579 50.4779 32.6901 50.4064 32.6065 50.4064C32.5229 50.4064 32.4551 50.4779 32.4551 50.5662C32.4551 50.6544 32.5229 50.7259 32.6065 50.7259Z" fill="#19191B"/>
<path d="M31.8708 50.4881C31.9627 50.4881 32.0384 50.4082 32.0384 50.3112C32.0384 50.2142 31.9627 50.1343 31.8708 50.1343C31.7788 50.1343 31.7031 50.2142 31.7031 50.3112C31.7031 50.4082 31.7788 50.4881 31.8708 50.4881Z" fill="#19191B"/>
<path d="M31.1887 50.1119C31.2842 50.1119 31.3617 50.0302 31.3617 49.9293C31.3617 49.8285 31.2842 49.7467 31.1887 49.7467C31.0931 49.7467 31.0156 49.8285 31.0156 49.9293C31.0156 50.0302 31.0931 50.1119 31.1887 50.1119Z" fill="#19191B"/>
<path d="M30.5833 49.6196C30.6908 49.6196 30.778 49.5276 30.778 49.4142C30.778 49.3007 30.6908 49.2087 30.5833 49.2087C30.4758 49.2087 30.3887 49.3007 30.3887 49.4142C30.3887 49.5276 30.4758 49.6196 30.5833 49.6196Z" fill="#19191B"/>
<path d="M30.0694 49.0336C30.1883 49.0336 30.2911 48.9309 30.2911 48.7997C30.2911 48.6684 30.1937 48.5657 30.0694 48.5657C29.945 48.5657 29.8477 48.6684 29.8477 48.7997C29.8477 48.9309 29.945 49.0336 30.0694 49.0336Z" fill="#19191B"/>
<path d="M29.6759 48.3474C29.8057 48.3474 29.9084 48.2389 29.9084 48.102C29.9084 47.965 29.8057 47.8566 29.6759 47.8566C29.5461 47.8566 29.4434 47.965 29.4434 48.102C29.4434 48.2389 29.5461 48.3474 29.6759 48.3474Z" fill="#19191B"/>
<path d="M29.4045 47.5994C29.5451 47.5994 29.6587 47.4796 29.6587 47.3312C29.6587 47.1828 29.5451 47.063 29.4045 47.063C29.2639 47.063 29.1504 47.1828 29.1504 47.3312C29.1504 47.4796 29.2639 47.5994 29.4045 47.5994Z" fill="#19191B"/>
<path d="M29.2635 46.8008C29.4068 46.8008 29.523 46.6781 29.523 46.5269C29.523 46.3756 29.4068 46.2529 29.2635 46.2529C29.1201 46.2529 29.0039 46.3756 29.0039 46.5269C29.0039 46.6781 29.1201 46.8008 29.2635 46.8008Z" fill="#19191B"/>
<path d="M29.265 45.9918C29.411 45.9918 29.5299 45.8662 29.5299 45.7121C29.5299 45.5581 29.411 45.4325 29.265 45.4325C29.119 45.4325 29 45.5581 29 45.7121C29 45.8662 29.119 45.9918 29.265 45.9918Z" fill="#19191B"/>
<path d="M29.4051 45.191C29.5511 45.191 29.6755 45.0655 29.6755 44.9057C29.6755 44.7459 29.5565 44.6204 29.4051 44.6204C29.2537 44.6204 29.1348 44.7459 29.1348 44.9057C29.1348 45.0655 29.2537 45.191 29.4051 45.191Z" fill="#19191B"/>
<path d="M29.6757 44.4388C29.8325 44.4388 29.9569 44.3076 29.9569 44.1421C29.9569 43.9766 29.8325 43.8453 29.6757 43.8453C29.5189 43.8453 29.3945 43.9766 29.3945 44.1421C29.3945 44.3076 29.5189 44.4388 29.6757 44.4388Z" fill="#19191B"/>
<path d="M30.0693 43.7484C30.2316 43.7484 30.3613 43.6115 30.3613 43.4402C30.3613 43.269 30.2316 43.1321 30.0693 43.1321C29.9071 43.1321 29.7773 43.269 29.7773 43.4402C29.7773 43.6115 29.9071 43.7484 30.0693 43.7484Z" fill="#19191B"/>
<path d="M30.5841 43.1426C30.7517 43.1426 30.8869 42.9999 30.8869 42.823C30.8869 42.6461 30.7517 42.5034 30.5841 42.5034C30.4164 42.5034 30.2812 42.6461 30.2812 42.823C30.2812 42.9999 30.4164 43.1426 30.5841 43.1426Z" fill="#19191B"/>
<path d="M31.1897 42.6586C31.3689 42.6586 31.5141 42.5053 31.5141 42.3162C31.5141 42.1271 31.3689 41.9738 31.1897 41.9738C31.0105 41.9738 30.8652 42.1271 30.8652 42.3162C30.8652 42.5053 31.0105 42.6586 31.1897 42.6586Z" fill="#19191B"/>
<path d="M31.8704 42.2753C32.0543 42.2753 32.2057 42.1155 32.2057 41.9214C32.2057 41.7274 32.0543 41.5676 31.8704 41.5676C31.6866 41.5676 31.5352 41.7274 31.5352 41.9214C31.5352 42.1155 31.6866 42.2753 31.8704 42.2753Z" fill="#19191B"/>
<path d="M32.6063 42.0311C32.7955 42.0311 32.947 41.8713 32.947 41.6715C32.947 41.4718 32.7955 41.312 32.6063 41.312C32.417 41.312 32.2656 41.4718 32.2656 41.6715C32.2656 41.8713 32.417 42.0311 32.6063 42.0311Z" fill="#19191B"/>
<path d="M33.3739 41.9218C33.562 41.9218 33.7145 41.7608 33.7145 41.5623C33.7145 41.3637 33.562 41.2028 33.3739 41.2028C33.1857 41.2028 33.0332 41.3637 33.0332 41.5623C33.0332 41.7608 33.1857 41.9218 33.3739 41.9218Z" fill="#19191B"/>
<path d="M34.1469 41.9683C34.338 41.9683 34.4929 41.8047 34.4929 41.603C34.4929 41.4013 34.338 41.2378 34.1469 41.2378C33.9557 41.2378 33.8008 41.4013 33.8008 41.603C33.8008 41.8047 33.9557 41.9683 34.1469 41.9683Z" fill="#19191B"/>
<path d="M34.9047 42.1435C35.0958 42.1435 35.2507 41.98 35.2507 41.7783C35.2507 41.5766 35.0958 41.4131 34.9047 41.4131C34.7135 41.4131 34.5586 41.5766 34.5586 41.7783C34.5586 41.98 34.7135 42.1435 34.9047 42.1435Z" fill="#19191B"/>
<path d="M35.6171 42.4744C35.8112 42.4744 35.9686 42.3083 35.9686 42.1035C35.9686 41.8986 35.8112 41.7325 35.6171 41.7325C35.423 41.7325 35.2656 41.8986 35.2656 42.1035C35.2656 42.3083 35.423 42.4744 35.6171 42.4744Z" fill="#19191B"/>
<path d="M36.2612 42.9269C36.4558 42.9269 36.6181 42.7614 36.6181 42.5502C36.6181 42.3391 36.4612 42.1736 36.2612 42.1736C36.0611 42.1736 35.9043 42.3391 35.9043 42.5502C35.9043 42.7614 36.0611 42.9269 36.2612 42.9269Z" fill="#19191B"/>
<path d="M36.8237 43.4958C37.0183 43.4958 37.1806 43.3304 37.1806 43.1192C37.1806 42.9081 37.0238 42.7426 36.8237 42.7426C36.6236 42.7426 36.4668 42.9081 36.4668 43.1192C36.4668 43.3304 36.6236 43.4958 36.8237 43.4958Z" fill="#19191B"/>
<path d="M37.2779 44.17C37.4809 44.17 37.6456 43.9963 37.6456 43.782C37.6456 43.5677 37.4809 43.3939 37.2779 43.3939C37.0748 43.3939 36.9102 43.5677 36.9102 43.782C36.9102 43.9963 37.0748 44.17 37.2779 44.17Z" fill="#19191B"/>
<path d="M37.6138 44.9059C37.8193 44.9059 37.9815 44.729 37.9815 44.5178C37.9815 44.3067 37.8139 44.1298 37.6138 44.1298C37.4137 44.1298 37.2461 44.3067 37.2461 44.5178C37.2461 44.729 37.4137 44.9059 37.6138 44.9059Z" fill="#19191B"/>
<path d="M37.8175 45.7111C38.0284 45.7111 38.2014 45.5285 38.2014 45.3059C38.2014 45.0834 38.0284 44.9008 37.8175 44.9008C37.6066 44.9008 37.4336 45.0834 37.4336 45.3059C37.4336 45.5285 37.6066 45.7111 37.8175 45.7111Z" fill="#19191B"/>
<path d="M38.4459 46.949C38.4549 46.949 38.4621 46.9413 38.4621 46.9318C38.4621 46.9223 38.4549 46.9146 38.4459 46.9146C38.4369 46.9146 38.4297 46.9223 38.4297 46.9318C38.4297 46.9413 38.4369 46.949 38.4459 46.949Z" fill="#19191B"/>
<path d="M38.2665 47.7951C38.299 47.7951 38.326 47.7664 38.326 47.732C38.326 47.6976 38.299 47.6689 38.2665 47.6689C38.2341 47.6689 38.207 47.6976 38.207 47.732C38.207 47.7664 38.2341 47.7951 38.2665 47.7951Z" fill="#19191B"/>
<path d="M37.9701 48.5422C37.9999 48.5422 38.0242 48.5165 38.0242 48.4848C38.0242 48.4532 37.9999 48.4275 37.9701 48.4275C37.9402 48.4275 37.916 48.4532 37.916 48.4848C37.916 48.5165 37.9402 48.5422 37.9701 48.5422Z" fill="#19191B"/>
<path d="M37.564 49.2663C37.6072 49.2663 37.6397 49.2319 37.6397 49.186C37.6397 49.1401 37.6072 49.1057 37.564 49.1057C37.5207 49.1057 37.4883 49.1401 37.4883 49.186C37.4883 49.2319 37.5207 49.2663 37.564 49.2663Z" fill="#19191B"/>
<path d="M37.0608 49.9226C37.1203 49.9226 37.1744 49.8712 37.1744 49.8027C37.1744 49.7342 37.1257 49.6829 37.0608 49.6829C36.9959 49.6829 36.9473 49.7342 36.9473 49.8027C36.9473 49.8712 36.9959 49.9226 37.0608 49.9226Z" fill="#19191B"/>
<path d="M36.4725 50.4637C36.5374 50.4637 36.5914 50.4067 36.5914 50.3382C36.5914 50.2697 36.5374 50.2126 36.4725 50.2126C36.4076 50.2126 36.3535 50.2697 36.3535 50.3382C36.3535 50.4067 36.4076 50.4637 36.4725 50.4637Z" fill="#19191B"/>
<path d="M35.8129 50.904C35.8876 50.904 35.9481 50.8401 35.9481 50.7613C35.9481 50.6825 35.8876 50.6187 35.8129 50.6187C35.7383 50.6187 35.6777 50.6825 35.6777 50.7613C35.6777 50.8401 35.7383 50.904 35.8129 50.904Z" fill="#19191B"/>
<path d="M35.0922 51.2194C35.1669 51.2194 35.2274 51.1555 35.2274 51.0768C35.2274 50.998 35.1669 50.9341 35.0922 50.9341C35.0176 50.9341 34.957 50.998 34.957 51.0768C34.957 51.1555 35.0176 51.2194 35.0922 51.2194Z" fill="#19191B"/>
<path d="M34.3413 51.4174C34.4224 51.4174 34.4873 51.3489 34.4873 51.2633C34.4873 51.1777 34.4224 51.1093 34.3413 51.1093C34.2602 51.1093 34.1953 51.1777 34.1953 51.2633C34.1953 51.3489 34.2602 51.4174 34.3413 51.4174Z" fill="#19191B"/>
<path d="M33.5679 51.4875C33.649 51.4875 33.7139 51.419 33.7139 51.3334C33.7139 51.2478 33.649 51.1793 33.5679 51.1793C33.4868 51.1793 33.4219 51.2478 33.4219 51.3334C33.4219 51.419 33.4868 51.4875 33.5679 51.4875Z" fill="#19191B"/>
<path d="M32.7944 51.4236C32.8751 51.4236 32.9404 51.3547 32.9404 51.2696C32.9404 51.1845 32.8751 51.1155 32.7944 51.1155C32.7138 51.1155 32.6484 51.1845 32.6484 51.2696C32.6484 51.3547 32.7138 51.4236 32.7944 51.4236Z" fill="#19191B"/>
<path d="M32.0435 51.2403C32.1301 51.2403 32.2003 51.1662 32.2003 51.0748C32.2003 50.9834 32.1301 50.9093 32.0435 50.9093C31.9569 50.9093 31.8867 50.9834 31.8867 51.0748C31.8867 51.1662 31.9569 51.2403 32.0435 51.2403Z" fill="#19191B"/>
<path d="M31.3254 50.9447C31.4173 50.9447 31.4984 50.8648 31.4984 50.7621C31.4984 50.6594 31.4227 50.5795 31.3254 50.5795C31.2281 50.5795 31.1523 50.6594 31.1523 50.7621C31.1523 50.8648 31.2281 50.9447 31.3254 50.9447Z" fill="#19191B"/>
<path d="M30.6643 50.5286C30.7659 50.5286 30.8482 50.4417 30.8482 50.3345C30.8482 50.2274 30.7659 50.1405 30.6643 50.1405C30.5628 50.1405 30.4805 50.2274 30.4805 50.3345C30.4805 50.4417 30.5628 50.5286 30.6643 50.5286Z" fill="#19191B"/>
<path d="M30.0746 50.0197C30.1881 50.0197 30.2801 49.9226 30.2801 49.8028C30.2801 49.683 30.1881 49.5859 30.0746 49.5859C29.9611 49.5859 29.8691 49.683 29.8691 49.8028C29.8691 49.9226 29.9611 50.0197 30.0746 50.0197Z" fill="#19191B"/>
<path d="M29.5724 49.4316C29.7021 49.4316 29.8049 49.3231 29.8049 49.1862C29.8049 49.0492 29.7021 48.9408 29.5724 48.9408C29.4426 48.9408 29.3398 49.0492 29.3398 49.1862C29.3398 49.3231 29.4426 49.4316 29.5724 49.4316Z" fill="#19191B"/>
<path d="M29.1661 48.7308C29.2945 48.7308 29.3986 48.6209 29.3986 48.4854C29.3986 48.3499 29.2945 48.24 29.1661 48.24C29.0377 48.24 28.9336 48.3499 28.9336 48.4854C28.9336 48.6209 29.0377 48.7308 29.1661 48.7308Z" fill="#19191B"/>
<path d="M28.8694 47.9993C29.01 47.9993 29.1235 47.8795 29.1235 47.7311C29.1235 47.5827 29.01 47.4629 28.8694 47.4629C28.7288 47.4629 28.6152 47.5827 28.6152 47.7311C28.6152 47.8795 28.7288 47.9993 28.8694 47.9993Z" fill="#19191B"/>
<path d="M28.6897 47.2057C28.8303 47.2057 28.9438 47.0859 28.9438 46.9375C28.9438 46.7892 28.8303 46.6693 28.6897 46.6693C28.5491 46.6693 28.4355 46.7892 28.4355 46.9375C28.4355 47.0859 28.5491 47.2057 28.6897 47.2057Z" fill="#19191B"/>
<path d="M28.6306 46.3967C28.774 46.3967 28.8902 46.2741 28.8902 46.1228C28.8902 45.9715 28.774 45.8489 28.6306 45.8489C28.4873 45.8489 28.3711 45.9715 28.3711 46.1228C28.3711 46.2741 28.4873 46.3967 28.6306 46.3967Z" fill="#19191B"/>
<path d="M28.6907 45.5795C28.8367 45.5795 28.9557 45.454 28.9557 45.2999C28.9557 45.1458 28.8367 45.0203 28.6907 45.0203C28.5447 45.0203 28.4258 45.1458 28.4258 45.2999C28.4258 45.454 28.5447 45.5795 28.6907 45.5795Z" fill="#19191B"/>
<path d="M28.87 44.7911C29.0214 44.7911 29.1403 44.6656 29.1403 44.5058C29.1403 44.346 29.0214 44.2205 28.87 44.2205C28.7186 44.2205 28.5996 44.346 28.5996 44.5058C28.5996 44.6656 28.7186 44.7911 28.87 44.7911Z" fill="#19191B"/>
<path d="M29.1659 44.0493C29.3212 44.0493 29.4471 43.9165 29.4471 43.7526C29.4471 43.5887 29.3212 43.4558 29.1659 43.4558C29.0107 43.4558 28.8848 43.5887 28.8848 43.7526C28.8848 43.9165 29.0107 44.0493 29.1659 44.0493Z" fill="#19191B"/>
<path d="M29.5717 43.3598C29.73 43.3598 29.8583 43.2244 29.8583 43.0573C29.8583 42.8903 29.73 42.7549 29.5717 42.7549C29.4135 42.7549 29.2852 42.8903 29.2852 43.0573C29.2852 43.2244 29.4135 43.3598 29.5717 43.3598Z" fill="#19191B"/>
<path d="M30.0743 42.7551C30.2419 42.7551 30.3771 42.6125 30.3771 42.4355C30.3771 42.2586 30.2419 42.116 30.0743 42.116C29.9067 42.116 29.7715 42.2586 29.7715 42.4355C29.7715 42.6125 29.9067 42.7551 30.0743 42.7551Z" fill="#19191B"/>
<path d="M30.6647 42.241C30.8432 42.241 30.9838 42.0926 30.9838 41.9043C30.9838 41.716 30.8432 41.5676 30.6647 41.5676C30.4863 41.5676 30.3457 41.716 30.3457 41.9043C30.3457 42.0926 30.4863 42.241 30.6647 42.241Z" fill="#19191B"/>
<path d="M31.3244 41.8196C31.5029 41.8196 31.6489 41.6655 31.6489 41.4772C31.6489 41.2889 31.5029 41.1348 31.3244 41.1348C31.146 41.1348 31 41.2889 31 41.4772C31 41.6655 31.146 41.8196 31.3244 41.8196Z" fill="#19191B"/>
<path d="M32.0442 41.5167C32.2281 41.5167 32.3795 41.3569 32.3795 41.1629C32.3795 40.9689 32.2281 40.8091 32.0442 40.8091C31.8604 40.8091 31.709 40.9689 31.709 41.1629C31.709 41.3569 31.8604 41.5167 32.0442 41.5167Z" fill="#19191B"/>
<path d="M32.7957 41.3282C32.9839 41.3282 33.1364 41.1672 33.1364 40.9687C33.1364 40.7701 32.9839 40.6091 32.7957 40.6091C32.6076 40.6091 32.4551 40.7701 32.4551 40.9687C32.4551 41.1672 32.6076 41.3282 32.7957 41.3282Z" fill="#19191B"/>
<path d="M33.5687 41.2717C33.758 41.2717 33.9148 41.1119 33.9148 40.9065C33.9148 40.701 33.7634 40.5413 33.5687 40.5413C33.3741 40.5413 33.2227 40.701 33.2227 40.9065C33.2227 41.1119 33.3741 41.2717 33.5687 41.2717Z" fill="#19191B"/>
<path d="M34.3422 41.3334C34.5314 41.3334 34.6882 41.1736 34.6882 40.9681C34.6882 40.7627 34.5368 40.6029 34.3422 40.6029C34.1475 40.6029 33.9961 40.7627 33.9961 40.9681C33.9961 41.1736 34.1475 41.3334 34.3422 41.3334Z" fill="#19191B"/>
<path d="M35.0922 41.5272C35.2833 41.5272 35.4382 41.3637 35.4382 41.162C35.4382 40.9603 35.2833 40.7968 35.0922 40.7968C34.901 40.7968 34.7461 40.9603 34.7461 41.162C34.7461 41.3637 34.901 41.5272 35.0922 41.5272Z" fill="#19191B"/>
<path d="M35.8129 41.8425C36.0075 41.8425 36.1589 41.677 36.1589 41.4773C36.1589 41.2775 36.0021 41.1121 35.8129 41.1121C35.6236 41.1121 35.4668 41.2775 35.4668 41.4773C35.4668 41.677 35.6236 41.8425 35.8129 41.8425Z" fill="#19191B"/>
<path d="M36.4726 42.2765C36.6672 42.2765 36.824 42.111 36.824 41.9056C36.824 41.7002 36.6672 41.5347 36.4726 41.5347C36.2779 41.5347 36.1211 41.7002 36.1211 41.9056C36.1211 42.111 36.2779 42.2765 36.4726 42.2765Z" fill="#19191B"/>
<path d="M37.062 42.8115C37.2591 42.8115 37.4188 42.6429 37.4188 42.4349C37.4188 42.2268 37.2591 42.0582 37.062 42.0582C36.8649 42.0582 36.7051 42.2268 36.7051 42.4349C36.7051 42.6429 36.8649 42.8115 37.062 42.8115Z" fill="#19191B"/>
<path d="M37.5639 43.4339C37.764 43.4339 37.9208 43.2628 37.9208 43.0573C37.9208 42.8519 37.7586 42.6807 37.5639 42.6807C37.3693 42.6807 37.207 42.8519 37.207 43.0573C37.207 43.2628 37.3693 43.4339 37.5639 43.4339Z" fill="#19191B"/>
<path d="M37.9693 44.1412C38.1747 44.1412 38.337 43.9643 38.337 43.7532C38.337 43.542 38.1693 43.3651 37.9693 43.3651C37.7692 43.3651 37.6016 43.542 37.6016 43.7532C37.6016 43.9643 37.7692 44.1412 37.9693 44.1412Z" fill="#19191B"/>
<path d="M38.2672 44.906C38.4781 44.906 38.6457 44.7291 38.6457 44.5065C38.6457 44.284 38.4781 44.1071 38.2672 44.1071C38.0563 44.1071 37.8887 44.284 37.8887 44.5065C37.8887 44.7291 38.0563 44.906 38.2672 44.906Z" fill="#19191B"/>
<path d="M38.446 45.7184C38.6623 45.7184 38.8353 45.5357 38.8353 45.3075C38.8353 45.0792 38.6623 44.8966 38.446 44.8966C38.2297 44.8966 38.0566 45.0792 38.0566 45.3075C38.0566 45.5357 38.2297 45.7184 38.446 45.7184Z" fill="#19191B"/>
<path d="M38.8736 46.0945C38.8736 46.8592 38.2842 47.4813 37.5596 47.4813C36.835 47.4813 36.2402 46.8592 36.2402 46.0945C36.2402 45.3298 36.8296 44.7078 37.5596 44.7078C38.2896 44.7078 38.8736 45.3298 38.8736 46.0945Z" fill="#19191B"/>
</svg>
