<svg width="24" height="24" viewBox="0 0 19 24" fill="none" xmlns="http://www.w3.org/2000/svg">
<path fill-rule="evenodd" clip-rule="evenodd" d="M9.5 5.14291C7.11513 5.14291 5.18182 7.06171 5.18182 9.42867C5.18182 11.7956 7.11513 13.7144 9.5 13.7144C11.8849 13.7144 13.8182 11.7956 13.8182 9.42867C13.8182 7.06171 11.8849 5.14291 9.5 5.14291ZM9.5 12.0001C8.06908 12.0001 6.90909 10.8488 6.90909 9.42867C6.90909 8.00849 8.06908 6.85721 9.5 6.85721C10.9309 6.85721 12.0909 8.00849 12.0909 9.42867C12.0909 10.8488 10.9309 12.0001 9.5 12.0001ZM9.5 0C4.25576 0.00590455 0.00594923 4.22381 0 9.42867C0 12.793 1.56642 16.3587 4.53409 19.7413C5.86757 21.2697 7.36839 22.6461 9.00881 23.8449C9.30628 24.0517 9.70235 24.0517 9.99983 23.8449C11.6372 22.6456 13.1351 21.2693 14.4659 19.7413C17.4293 16.3587 19 12.793 19 9.42867C18.9941 4.22381 14.7442 0.00590455 9.5 0ZM9.5 22.0716C7.71551 20.6788 1.72727 15.5627 1.72727 9.42867C1.72727 5.16814 5.20724 1.7143 9.5 1.7143C13.7928 1.7143 17.2727 5.16814 17.2727 9.42867C17.2727 15.5605 11.2845 20.6788 9.5 22.0716Z" fill="black" fill-opacity="0.7"/>
</svg>
