<svg width="25" height="24" viewBox="0 0 25 24" fill="none" xmlns="http://www.w3.org/2000/svg">
<path d="M24.33 22.2078C22.5401 19.1508 19.7818 16.9587 16.5628 15.9196C18.1551 14.9832 19.3922 13.5562 20.0841 11.858C20.776 10.1598 20.8846 8.28407 20.393 6.51899C19.9015 4.75391 18.837 3.19704 17.3631 2.08746C15.8892 0.977884 14.0874 0.376953 12.2344 0.376953C10.3813 0.376953 8.57951 0.977884 7.10562 2.08746C5.63174 3.19704 4.56729 4.75391 4.07573 6.51899C3.58418 8.28407 3.6927 10.1598 4.38464 11.858C5.07658 13.5562 6.31367 14.9832 7.90594 15.9196C4.68693 16.9576 1.92862 19.1496 0.138722 22.2078C0.0730831 22.3136 0.0295453 22.4312 0.0106773 22.5538C-0.0081906 22.6765 -0.00200647 22.8016 0.0288649 22.9218C0.0597362 23.042 0.114669 23.1549 0.190423 23.2539C0.266177 23.3528 0.361217 23.4357 0.469936 23.4977C0.578655 23.5598 0.69885 23.5997 0.823431 23.6151C0.948011 23.6305 1.07445 23.6211 1.1953 23.5874C1.31614 23.5538 1.42893 23.4965 1.52703 23.4191C1.62512 23.3417 1.70653 23.2457 1.76644 23.1367C3.98061 19.3563 7.89418 17.0992 12.2344 17.0992C16.5746 17.0992 20.4881 19.3563 22.7023 23.1367C22.7622 23.2457 22.8436 23.3417 22.9417 23.4191C23.0398 23.4965 23.1526 23.5538 23.2735 23.5874C23.3943 23.6211 23.5207 23.6305 23.6453 23.6151C23.7699 23.5997 23.8901 23.5598 23.9988 23.4977C24.1075 23.4357 24.2026 23.3528 24.2783 23.2539C24.3541 23.1549 24.409 23.042 24.4399 22.9218C24.4708 22.8016 24.4769 22.6765 24.4581 22.5538C24.4392 22.4312 24.3957 22.3136 24.33 22.2078ZM5.65299 8.73966C5.65299 7.45371 6.03898 6.19664 6.76215 5.12742C7.48532 4.05819 8.51319 3.22483 9.71579 2.73272C10.9184 2.2406 12.2417 2.11185 13.5183 2.36272C14.795 2.6136 15.9677 3.23284 16.8881 4.14214C17.8085 5.05145 18.4354 6.20997 18.6893 7.47121C18.9432 8.73245 18.8129 10.0398 18.3148 11.2278C17.8167 12.4159 16.9731 13.4313 15.8908 14.1458C14.8085 14.8602 13.5361 15.2415 12.2344 15.2415C10.4895 15.2397 8.81654 14.5541 7.58269 13.3351C6.34885 12.1162 5.65485 10.4635 5.65299 8.73966Z" fill="black" fill-opacity="0.7"/>
</svg>
